<svg xmlns="http://www.w3.org/2000/svg" width="548" height="159" viewBox="0 0 548 159" fill="none">
  <path d="M145.579 94.2158H174.782V129.908H145.579V155H98.8555V129.908H0V94.8647L74.6284 3.58015H145.579V94.2158ZM54.5112 90.1058V94.2158H101.668V61.336C101.668 53.5487 102.244 46.6988 103.398 40.7862C104.552 34.7294 106.21 27.9515 108.373 20.4527H104.48C102.028 27.3747 99.3603 33.3594 96.4761 38.4067C93.7361 43.4541 90.203 48.6456 85.8767 53.9813L54.5112 90.1058Z" fill="#FA4A48"/>
  <path d="M272.285 158.028C254.692 158.028 239.261 154.64 225.994 147.862C212.727 140.94 202.488 131.566 195.278 119.741C188.211 107.771 184.678 94.2879 184.678 79.2901C184.678 64.2923 188.211 50.8808 195.278 39.0557C202.488 27.0863 212.727 17.7127 225.994 10.9348C239.261 4.01279 254.692 0.551758 272.285 0.551758C289.879 0.551758 305.309 4.01279 318.577 10.9348C331.844 17.7127 342.011 27.0863 349.077 39.0557C356.287 50.8808 359.893 64.2923 359.893 79.2901C359.893 94.2879 356.287 107.771 349.077 119.741C342.011 131.566 331.844 140.94 318.577 147.862C305.309 154.64 289.879 158.028 272.285 158.028ZM272.285 120.173C284.687 120.173 294.566 116.496 301.92 109.141C309.419 101.643 313.169 91.6921 313.169 79.2901C313.169 66.8881 309.419 57.0097 301.92 49.6551C294.566 42.1562 284.687 38.4067 272.285 38.4067C259.883 38.4067 249.933 42.1562 242.434 49.6551C235.079 57.0097 231.402 66.8881 231.402 79.2901C231.402 91.6921 235.079 101.643 242.434 109.141C249.933 116.496 259.883 120.173 272.285 120.173Z" fill="#FA4A48"/>
  <path d="M518.425 94.2158H547.628V129.908H518.425V155H471.702V129.908H372.846V94.8647L447.474 3.58015H518.425V94.2158ZM427.357 90.1058V94.2158H474.514V61.336C474.514 53.5487 475.091 46.6988 476.244 40.7862C477.398 34.7294 479.056 27.9515 481.219 20.4527H477.326C474.874 27.3747 472.206 33.3594 469.322 38.4067C466.582 43.4541 463.049 48.6456 458.723 53.9813L427.357 90.1058Z" fill="#FA4A48"/>
</svg>