
<svg width="738" height="166" viewBox="0 0 738 166" fill="none" xmlns="http://www.w3.org/2000/svg">
<g clip-path="url(#clip0_310_4507)">
<path d="M55.8678 165.457C55.2769 165.457 54.7935 164.974 54.7935 164.383V1.07537C54.7935 0.484452 55.2769 0.000976562 55.8678 0.000976562H120.75C135.093 0.000976562 147.707 2.04232 158.558 6.13574C169.442 10.2184 178.531 15.8912 185.858 23.1541C193.186 30.417 198.751 39.0765 202.522 49.1543C206.293 59.2321 208.195 70.1909 208.195 82.0307C208.195 94.644 206.153 106.097 202.028 116.422C197.934 126.747 192.09 135.514 184.548 142.777C176.973 150.04 167.884 155.637 157.247 159.548C146.611 163.491 134.771 165.468 121.663 165.468H55.8678V165.457ZM96.1575 131.388C96.1575 131.388 96.1682 131.42 96.1897 131.42H123.812C129.947 131.42 135.577 130.324 140.723 128.111C145.837 125.887 150.274 122.718 153.97 118.528C157.666 114.338 160.556 109.191 162.598 103.056C164.639 96.8895 165.66 89.9811 165.66 82.267C165.66 75.1868 164.779 68.6652 163.049 62.7454C161.319 56.8255 158.719 51.7543 155.26 47.489C151.811 43.2237 147.513 39.9146 142.367 37.5509C137.253 35.1873 131.301 33.9947 124.5 33.9947H97.2104C96.6195 33.9947 96.136 34.4782 96.136 35.0691V131.377L96.1575 131.388Z" fill="white"/>
<path d="M306.953 165.214C306.362 165.214 305.879 164.73 305.879 164.14V154.363C305.879 153.439 304.772 152.934 304.052 153.525C299.937 156.887 295.35 159.606 290.268 161.658C284.423 164.021 278.149 165.214 271.348 165.214C263.451 165.214 256.231 163.667 249.613 160.594C242.984 157.532 237.311 153.267 232.595 147.841C227.878 142.415 224.214 135.862 221.604 128.212C218.993 120.562 217.693 112.182 217.693 103.017C217.693 93.8529 218.993 85.5802 221.604 78.0702C224.214 70.6032 227.878 64.189 232.595 58.9353C237.311 53.6493 242.984 49.5666 249.613 46.6335C256.242 43.7112 263.494 42.2607 271.348 42.2607C278.117 42.2607 284.423 43.3136 290.268 45.4624C295.318 47.2996 299.927 49.9104 304.052 53.241C304.772 53.8212 305.879 53.327 305.879 52.3922V43.3244C305.879 42.7335 306.362 42.25 306.953 42.25H346.168C346.759 42.25 347.243 42.7335 347.243 43.3244V164.107C347.243 164.698 346.759 165.182 346.168 165.182H306.953V165.214ZM282.941 132.133C290.515 132.133 296.22 129.458 300.066 124.097C303.945 118.736 305.847 111.806 305.847 103.308C305.847 94.8092 303.913 88.019 300.066 82.9801C296.188 77.9412 290.483 75.4057 282.941 75.4057C275.398 75.4057 269.693 77.9412 265.922 82.9801C262.151 88.019 260.249 94.7877 260.249 103.308C260.249 111.827 262.151 118.736 265.922 124.097C269.693 129.458 275.366 132.133 282.941 132.133Z" fill="white"/>
<path d="M436.054 129.059C436.054 129.059 436.087 129.049 436.087 129.027C436.065 126.545 434.206 124.719 430.521 123.634C426.825 122.538 422.173 121.56 416.565 120.679C410.967 119.798 404.897 118.885 398.354 117.821C391.8 116.8 385.741 115.038 380.143 112.503C374.546 110 369.893 106.476 366.187 101.963C362.491 97.4507 360.621 91.4234 360.621 83.8919C360.621 77.4456 362.029 71.6331 364.887 66.519C367.745 61.4049 371.612 57.0751 376.587 53.5189C381.551 49.9627 387.47 47.2122 394.314 45.2353C401.18 43.2585 408.614 42.2808 416.651 42.2808C423.591 42.2808 430.607 43.0543 437.687 44.6444C444.768 46.2345 451.182 48.6626 456.962 51.9718C462.742 55.2809 467.394 59.6214 471.026 64.9719C473.948 70.3761 475.678 75.8984 475.839 82.9572C475.85 83.5481 475.366 84.0316 474.775 84.0316H435.56C434.969 84.0316 434.486 83.5481 434.453 82.9572C434.249 79.691 433.025 77.0803 429.877 74.6629C426.428 71.9876 422.087 70.6447 416.876 70.6447C412.3 70.6447 408.636 71.6009 405.885 73.5025C403.135 75.4042 401.76 77.2737 401.76 79.1753C401.76 81.539 403.661 83.1613 407.433 84.0423C411.204 84.9233 415.888 85.6646 421.496 86.2985C427.094 86.9324 433.153 87.706 439.707 88.6622C446.261 89.6184 452.321 91.3052 457.929 93.7333C463.526 96.1614 468.222 99.621 471.982 104.026C475.753 108.431 477.655 114.491 477.655 122.237C477.655 128.866 476.215 134.818 473.282 140.104C470.36 145.39 466.309 149.859 461.088 153.566C455.877 157.262 449.742 160.152 442.662 162.193C435.582 164.235 427.932 165.255 419.724 165.255C412.643 165.255 405.488 164.407 398.333 162.752C391.177 161.098 384.698 158.487 378.951 154.963C373.203 151.407 368.561 146.862 364.994 141.254C361.599 135.903 359.837 129.532 359.687 122.108C359.676 121.517 360.159 121.034 360.75 121.034H399.966C400.556 121.034 401.04 121.517 401.061 122.108C401.309 127.082 403.264 130.746 406.96 133.077C410.903 135.613 415.491 136.849 420.669 136.849C424.612 136.849 428.136 136.182 431.306 134.839C434.464 133.507 436.011 131.584 436.022 129.091C436.022 129.07 436.033 129.059 436.054 129.059Z" fill="white"/>
<path d="M546.795 84.6084V123.781C546.795 126.316 547.364 128.25 548.46 129.69C549.545 131.108 550.995 131.806 552.714 131.806C554.434 131.806 555.852 131.108 556.98 129.69C558.076 128.282 558.634 126.134 558.634 123.319V119.225C558.634 119.107 558.731 119.01 558.849 119.01H599.794C599.912 119.01 600.009 119.096 600.009 119.215C600.288 128.272 600.579 140.638 587.954 153.262C580.197 161.019 568.014 164.511 552.263 164.511H551.597C551.597 164.511 551.543 164.489 551.533 164.468C551.522 164.446 551.5 164.436 551.479 164.436C520.784 164.425 505.431 151.285 505.431 124.941V84.5762C505.431 83.9853 504.958 83.5018 504.356 83.5018H485.716C485.125 83.5018 484.641 83.0183 484.641 82.4274V49.1321C484.641 48.5411 485.125 48.0577 485.716 48.0577H504.356C504.947 48.0577 505.431 47.5742 505.431 46.9833V15.1706C505.431 14.5797 505.914 14.0962 506.505 14.0962H545.72C546.322 14.0962 546.795 14.5797 546.795 15.1706V47.0155C546.795 47.6172 547.278 48.0899 547.869 48.0899H598.924C599.526 48.0899 599.998 48.5734 599.998 49.1643V82.4596C599.998 83.0505 599.515 83.534 598.924 83.534H547.869C547.278 83.534 546.795 84.0175 546.795 84.6084Z" fill="white"/>
<path d="M690.333 124.096C686.487 129.457 680.782 132.132 673.207 132.132C665.633 132.132 659.96 129.457 656.189 124.096C655.115 122.559 654.191 120.915 653.428 119.143C653.396 119.067 653.321 119.014 653.235 119.014H609.679C609.539 119.014 609.442 119.143 609.464 119.272C610.076 122.355 610.871 125.342 611.849 128.221C614.46 135.86 618.123 142.414 622.851 147.84C627.567 153.265 633.24 157.531 639.869 160.593C646.487 163.665 653.707 165.212 661.604 165.212C668.405 165.212 674.669 164.009 680.524 161.656C685.606 159.604 690.183 156.886 694.308 153.523C695.028 152.932 696.135 153.437 696.135 154.361V164.138C696.135 164.729 696.618 165.212 697.209 165.212H736.425C737.015 165.212 737.499 164.729 737.499 164.138V119.229C737.499 119.11 737.402 119.014 737.284 119.014H693.32C693.234 119.014 693.159 119.067 693.127 119.143C692.342 120.926 691.408 122.581 690.323 124.096H690.333ZM736.435 42.2808H697.22C696.629 42.2808 696.146 42.7642 696.146 43.3552V52.423C696.146 53.3577 695.071 53.8734 694.341 53.2933C690.204 49.9519 685.595 47.3411 680.535 45.4932C674.679 43.3444 668.373 42.2808 661.615 42.2808C653.761 42.2808 646.498 43.7312 639.88 46.6535C633.251 49.5759 627.578 53.6693 622.862 58.9446C618.134 64.1983 614.471 70.6124 611.86 78.0794C611.28 79.777 610.753 81.5067 610.291 83.2902C610.259 83.4299 610.356 83.5588 610.506 83.5588H655.781C655.91 83.3547 656.049 83.172 656.189 82.9787C659.96 77.9398 665.665 75.4042 673.207 75.4042C680.75 75.4042 686.455 77.9398 690.333 82.9787C690.473 83.172 690.613 83.3547 690.752 83.5588H737.51V43.3552C737.51 42.7642 737.026 42.2808 736.435 42.2808Z" fill="white"/>
<path d="M602.967 113.93H602.993L603.004 113.909C605.128 113.905 607.071 113.409 608.833 112.41L608.833 112.41C610.601 111.396 611.993 110.015 612.985 108.29L613.006 108.253L612.97 108.231L609.027 105.889L608.988 105.866L608.967 105.906C608.423 106.94 607.612 107.762 606.534 108.37C605.478 108.957 604.292 109.246 602.977 109.246C600.731 109.246 598.917 108.53 597.54 107.089C596.184 105.648 595.5 103.811 595.5 101.521C595.5 99.2309 596.174 97.362 597.54 95.9209C598.928 94.4801 600.731 93.7639 602.977 93.7639C604.292 93.7639 605.477 94.0631 606.534 94.6714L606.534 94.6718C607.591 95.2587 608.401 96.08 608.967 97.1363L608.988 97.1759L609.027 97.153L612.97 94.8108L613.006 94.7891L612.985 94.7522C611.982 93.0264 610.59 91.6673 608.79 90.6645C607.01 89.64 605.069 89.1333 602.967 89.1333C599.464 89.1333 596.573 90.3301 594.287 92.7134C592.001 95.075 590.858 98.0405 590.858 101.532C590.858 105.023 592.001 107.967 594.287 110.35C596.573 112.733 599.464 113.93 602.967 113.93Z" fill="#F9C418" stroke="#F9C418" stroke-width="0.086"/>
<path d="M628.449 113.443L628.468 113.428V113.445H633.411H633.485L633.448 113.381L628.335 104.461C629.666 103.824 630.743 102.89 631.556 101.65L631.556 101.65C632.377 100.376 632.787 99.0032 632.787 97.5227C632.787 95.3414 632.031 93.4718 630.519 91.9273C629.007 90.3828 627.169 89.6045 625.02 89.6045H615.748H615.705V89.6475V113.413V113.456H615.748H620.324H620.367V113.413V105.205H623.78L628.399 113.359H628.364L628.438 113.433L628.449 113.443ZM625.03 101.014H620.367V94.0632H625.03C625.887 94.0632 626.607 94.401 627.222 95.0698C627.827 95.7492 628.135 96.5554 628.135 97.5227C628.135 98.4906 627.838 99.3182 627.222 100.008C626.607 100.677 625.877 101.014 625.03 101.014Z" fill="#F9C418" stroke="#F9C418" stroke-width="0.086"/>
<path d="M650.487 108.932V108.889H650.444H640.72V103.646H649.455H649.498V103.603V99.1871V99.1441H649.455H640.72V94.1697H650.283H650.326V94.1267V89.6465V89.6035H650.283H636.101H636.058V89.6465V113.412V113.455H636.101H650.444H650.487V113.412V108.932Z" fill="#F9C418" stroke="#F9C418" stroke-width="0.086"/>
<path d="M668.899 113.426L668.909 113.456H668.94H673.915H673.975L673.955 113.399L665.801 89.6335L665.791 89.6045H665.76H660.098H660.067L660.057 89.6336L651.946 113.399L651.926 113.456H651.986H656.918H656.949L656.959 113.426L658.346 109.18H667.523L668.899 113.426ZM659.824 104.71L662.945 95.1791L666.066 104.71H659.824Z" fill="#F9C418" stroke="#F9C418" stroke-width="0.086"/>
<path d="M689.857 89.6465V89.6035H689.814H689.803H672.742H672.699V89.6465V94.1267V94.1697H672.742H678.93V113.412V113.455H678.973H683.55H683.593V113.412V94.1697H689.814H689.857V94.1267V89.6465Z" fill="#F9C418" stroke="#F9C418" stroke-width="0.086"/>
<path d="M692.367 89.6035H692.324V89.6465V113.412V113.455H692.367H696.933H696.976V113.412V89.6465V89.6035H696.933H692.367Z" fill="#F9C418" stroke="#F9C418" stroke-width="0.086"/>
<path d="M706.922 113.428L706.932 113.457H706.963H712.625H712.656L712.666 113.428L720.488 89.6624L720.506 89.6059H720.447H715.44H715.408L715.399 89.6363L709.81 107.768L704.189 89.6362L704.18 89.6059H704.148H699.174H699.114L699.133 89.6623L706.922 113.428Z" fill="#F9C418" stroke="#F9C418" stroke-width="0.086"/>
<path d="M737.072 108.933V108.89H737.029H727.295V103.647H737.029H737.072V103.604V99.188V99.145H737.029H727.295V94.1707H737.029H737.072V94.1277V89.6475V89.6045H737.029H722.686H722.643V89.6475V113.413V113.456H722.686H737.029H737.072V113.413V108.933Z" fill="#F9C418" stroke="#F9C418" stroke-width="0.086"/>
<path d="M37.6149 126.772H1.08562C0.492251 126.772 0.0112305 127.253 0.0112305 127.847V164.376C0.0112305 164.969 0.492251 165.451 1.08562 165.451H37.6149C38.2082 165.451 38.6893 164.969 38.6893 164.376V127.847C38.6893 127.253 38.2082 126.772 37.6149 126.772Z" fill="#F9C418"/>
</g>
<defs>
<clipPath id="clip0_310_4507">
<rect width="737.515" height="165.456" fill="white"/>
</clipPath>
</defs>
</svg>
