<svg width="143" height="48" viewBox="0 0 143 48" fill="none" xmlns="http://www.w3.org/2000/svg">
<g clip-path="url(#clip0_1_1055)">
<path d="M10.5535 36.7996C10.4419 36.7996 10.3506 36.7083 10.3506 36.5967V5.74715C10.3506 5.63552 10.4419 5.54419 10.5535 5.54419H22.8101C25.5196 5.54419 27.9023 5.92981 29.9522 6.70308C32.0082 7.47431 33.7252 8.54593 35.1093 9.91792C36.4935 11.2899 37.5448 12.9257 38.2572 14.8295C38.9696 16.7332 39.3288 18.8034 39.3288 21.04C39.3288 23.4227 38.9432 25.5862 38.1638 27.5366C37.3906 29.4871 36.2865 31.1432 34.8617 32.5152C33.4309 33.8872 31.7139 34.9446 29.7046 35.6833C27.6953 36.4282 25.4587 36.8016 22.9826 36.8016H10.5535V36.7996ZM18.1644 30.3638C18.1644 30.3638 18.1665 30.3699 18.1705 30.3699H23.3886C24.5474 30.3699 25.6109 30.1629 26.5831 29.7448C27.5492 29.3247 28.3874 28.726 29.0856 27.9344C29.7837 27.1429 30.3297 26.1707 30.7153 25.0119C31.1009 23.8469 31.2937 22.5419 31.2937 21.0846C31.2937 19.7471 31.1273 18.5152 30.8006 17.3969C30.4738 16.2786 29.9826 15.3206 29.3291 14.5149C28.6776 13.7092 27.8658 13.0841 26.8936 12.6375C25.9276 12.191 24.8032 11.9658 23.5185 11.9658H18.3633C18.2517 11.9658 18.1604 12.0571 18.1604 12.1687V30.3618L18.1644 30.3638Z" fill="white"/>
<path d="M57.9847 36.7536C57.8731 36.7536 57.7818 36.6623 57.7818 36.5506V34.7037C57.7818 34.5292 57.5727 34.4338 57.4367 34.5454C56.6594 35.1807 55.7928 35.6942 54.8328 36.0818C53.7287 36.5283 52.5434 36.7536 51.2587 36.7536C49.767 36.7536 48.4031 36.4613 47.1529 35.8809C45.9007 35.3025 44.829 34.4967 43.9381 33.4718C43.0471 32.4468 42.355 31.2088 41.8618 29.7638C41.3686 28.3187 41.123 26.7356 41.123 25.0044C41.123 23.2732 41.3686 21.7104 41.8618 20.2917C42.355 18.8812 43.0471 17.6695 43.9381 16.6771C44.829 15.6785 45.9007 14.9073 47.1529 14.3532C48.4052 13.8012 49.7751 13.5272 51.2587 13.5272C52.5374 13.5272 53.7287 13.7261 54.8328 14.132C55.7867 14.479 56.6574 14.9722 57.4367 15.6014C57.5727 15.711 57.7818 15.6176 57.7818 15.4411V13.7281C57.7818 13.6165 57.8731 13.5251 57.9847 13.5251H65.3927C65.5043 13.5251 65.5956 13.6165 65.5956 13.7281V36.5446C65.5956 36.6562 65.5043 36.7475 65.3927 36.7475H57.9847V36.7536ZM53.4486 30.5045C54.8795 30.5045 55.9572 29.9992 56.6838 28.9864C57.4165 27.9737 57.7757 26.6646 57.7757 25.0592C57.7757 23.4538 57.4104 22.1711 56.6838 21.2193C55.9511 20.2674 54.8734 19.7884 53.4486 19.7884C52.0239 19.7884 50.9462 20.2674 50.2338 21.2193C49.5214 22.1711 49.1622 23.4498 49.1622 25.0592C49.1622 26.6687 49.5214 27.9737 50.2338 28.9864C50.9462 29.9992 52.0178 30.5045 53.4486 30.5045Z" fill="white"/>
<path d="M82.3725 29.9239C82.3725 29.9239 82.3786 29.9218 82.3786 29.9178C82.3746 29.4489 82.0234 29.1039 81.3273 28.8989C80.6291 28.6919 79.7503 28.5072 78.6909 28.3408C77.6335 28.1744 76.4868 28.0019 75.2508 27.8009C74.0127 27.6081 72.868 27.2753 71.8106 26.7963C70.7532 26.3234 69.8744 25.6577 69.1742 24.8053C68.476 23.9529 68.1229 22.8143 68.1229 21.3915C68.1229 20.1738 68.3888 19.0758 68.9286 18.1097C69.4685 17.1436 70.1991 16.3257 71.1388 15.6539C72.0765 14.9822 73.1948 14.4626 74.4876 14.0891C75.7845 13.7157 77.189 13.531 78.7071 13.531C80.0182 13.531 81.3435 13.6771 82.681 13.9775C84.0185 14.2779 85.2302 14.7366 86.3221 15.3617C87.414 15.9868 88.2928 16.8067 88.9788 17.8175C89.5308 18.8383 89.8576 19.8815 89.888 21.215C89.8901 21.3266 89.7987 21.4179 89.6871 21.4179H82.2792C82.1675 21.4179 82.0762 21.3266 82.0701 21.215C82.0316 20.598 81.8002 20.1048 81.2055 19.6481C80.554 19.1428 79.7341 18.8891 78.7497 18.8891C77.8851 18.8891 77.1931 19.0697 76.6735 19.4289C76.1539 19.7882 75.8941 20.1413 75.8941 20.5006C75.8941 20.9471 76.2534 21.2535 76.9657 21.42C77.6781 21.5864 78.563 21.7264 79.6225 21.8462C80.6799 21.9659 81.8245 22.112 83.0626 22.2927C84.3006 22.4733 85.4453 22.7919 86.5047 23.2506C87.5621 23.7093 88.4491 24.3628 89.1594 25.195C89.8718 26.0271 90.231 27.1718 90.231 28.6351C90.231 29.8873 89.9591 31.0117 89.405 32.0103C88.853 33.0088 88.0878 33.8531 87.1014 34.5533C86.1171 35.2515 84.9582 35.7974 83.6207 36.1831C82.2832 36.5687 80.8382 36.7615 79.2876 36.7615C77.9501 36.7615 76.5984 36.6012 75.2467 36.2886C73.895 35.976 72.6712 35.4829 71.5853 34.8172C70.4995 34.1454 69.6227 33.2869 68.9489 32.2274C68.3076 31.2167 67.9747 30.0132 67.9463 28.6107C67.9443 28.4991 68.0356 28.4078 68.1472 28.4078H75.5552C75.6668 28.4078 75.7581 28.4991 75.7622 28.6107C75.8089 29.5504 76.1783 30.2425 76.8764 30.6829C77.6213 31.1619 78.4879 31.3953 79.4662 31.3953C80.211 31.3953 80.8767 31.2695 81.4755 31.0158C82.0721 30.7641 82.3644 30.4008 82.3664 29.93C82.3664 29.9259 82.3685 29.9239 82.3725 29.9239Z" fill="white"/>
<path d="M103.292 21.5269V28.9267C103.292 29.4057 103.399 29.771 103.606 30.043C103.811 30.3109 104.085 30.4428 104.41 30.4428C104.735 30.4428 105.003 30.3109 105.216 30.043C105.423 29.7771 105.528 29.3712 105.528 28.8394V28.0662C105.528 28.0438 105.547 28.0256 105.569 28.0256H113.304C113.326 28.0256 113.344 28.0418 113.344 28.0641C113.397 29.7751 113.452 32.1111 111.067 34.4958C109.602 35.9612 107.3 36.6208 104.325 36.6208H104.199C104.199 36.6208 104.189 36.6167 104.187 36.6127C104.185 36.6086 104.181 36.6066 104.177 36.6066C98.3783 36.6046 95.478 34.1224 95.478 29.1459V21.5208C95.478 21.4092 95.3887 21.3178 95.275 21.3178H91.7537C91.6421 21.3178 91.5508 21.2265 91.5508 21.1149V14.8252C91.5508 14.7136 91.6421 14.6223 91.7537 14.6223H95.275C95.3867 14.6223 95.478 14.5309 95.478 14.4193V8.40974C95.478 8.29812 95.5693 8.20679 95.681 8.20679H103.089C103.203 8.20679 103.292 8.29812 103.292 8.40974V14.4254C103.292 14.5391 103.383 14.6284 103.495 14.6284H113.139C113.253 14.6284 113.342 14.7197 113.342 14.8313V21.121C113.342 21.2326 113.251 21.3239 113.139 21.3239H103.495C103.383 21.3239 103.292 21.4152 103.292 21.5269Z" fill="white"/>
<path d="M130.407 28.9862C129.68 29.999 128.603 30.5043 127.172 30.5043C125.741 30.5043 124.669 29.999 123.957 28.9862C123.754 28.696 123.58 28.3854 123.435 28.0506C123.429 28.0364 123.415 28.0262 123.399 28.0262H115.171C115.145 28.0262 115.126 28.0506 115.13 28.0749C115.246 28.6574 115.396 29.2216 115.581 29.7656C116.074 31.2086 116.766 32.4466 117.659 33.4716C118.55 34.4965 119.622 35.3022 120.874 35.8807C122.124 36.4611 123.488 36.7534 124.98 36.7534C126.265 36.7534 127.448 36.5261 128.554 36.0816C129.514 35.6939 130.379 35.1805 131.158 34.5452C131.294 34.4336 131.503 34.529 131.503 34.7035V36.5504C131.503 36.662 131.594 36.7534 131.706 36.7534H139.114C139.226 36.7534 139.317 36.662 139.317 36.5504V28.0668C139.317 28.0445 139.299 28.0262 139.276 28.0262H130.971C130.955 28.0262 130.941 28.0364 130.935 28.0506C130.787 28.3875 130.61 28.7 130.405 28.9862H130.407ZM139.116 13.531H131.708C131.596 13.531 131.505 13.6223 131.505 13.734V15.4469C131.505 15.6235 131.302 15.7209 131.164 15.6113C130.383 14.9801 129.512 14.4869 128.556 14.1378C127.45 13.7319 126.259 13.531 124.982 13.531C123.498 13.531 122.126 13.805 120.876 14.357C119.624 14.9091 118.552 15.6824 117.661 16.6789C116.768 17.6713 116.076 18.883 115.583 20.2935C115.473 20.6142 115.374 20.941 115.287 21.2779C115.281 21.3043 115.299 21.3286 115.327 21.3286H123.88C123.904 21.2901 123.931 21.2556 123.957 21.219C124.669 20.2672 125.747 19.7882 127.172 19.7882C128.597 19.7882 129.674 20.2672 130.407 21.219C130.433 21.2556 130.46 21.2901 130.486 21.3286H139.319V13.734C139.319 13.6223 139.228 13.531 139.116 13.531Z" fill="white"/>
<path d="M113.903 27.1007H113.93L113.932 27.0965C114.33 27.0924 114.696 26.9974 115.029 26.8089L115.029 26.8088C115.368 26.6143 115.635 26.3491 115.826 26.0176L115.847 25.9809L115.811 25.9592L115.066 25.5168L115.027 25.4936L115.006 25.5337C114.906 25.7228 114.758 25.8732 114.56 25.9851C114.366 26.0927 114.148 26.146 113.905 26.146C113.489 26.146 113.156 26.0137 112.903 25.7494C112.654 25.4845 112.528 25.1465 112.528 24.7216C112.528 24.2964 112.652 23.9525 112.903 23.6878C113.158 23.4234 113.489 23.2912 113.905 23.2912C114.148 23.2912 114.366 23.3464 114.56 23.4579L114.56 23.4579L114.56 23.4583C114.754 23.5659 114.902 23.7162 115.006 23.9098L115.027 23.9494L115.066 23.9265L115.811 23.484L115.847 23.4623L115.826 23.4254C115.633 23.0939 115.366 22.8328 115.02 22.6404C114.679 22.4438 114.306 22.3466 113.903 22.3466C113.233 22.3466 112.677 22.5762 112.238 23.0336C111.8 23.4867 111.581 24.0559 111.581 24.7237C111.581 25.3916 111.8 25.9566 112.238 26.4136C112.677 26.8711 113.233 27.1007 113.903 27.1007Z" fill="#2C5CFF" stroke="#2C5CFF" stroke-width="0.086"/>
<path d="M118.692 26.9984L118.72 26.9768V27.0089H119.654H119.728L119.691 26.9445L118.744 25.2917C118.986 25.1692 119.183 24.9942 119.333 24.7651L119.333 24.7648C119.492 24.5185 119.571 24.2527 119.571 23.9662C119.571 23.5451 119.425 23.1832 119.133 22.8848C118.841 22.5864 118.484 22.4355 118.069 22.4355H116.317H116.274V22.4785V26.9679V27.0109H116.317H117.182H117.225V26.9679V25.4522H117.814L118.648 26.9229H118.616L118.69 26.9963L118.692 26.9984ZM118.071 24.5909H117.225V23.3476H118.071C118.222 23.3476 118.349 23.4065 118.459 23.5262C118.567 23.6479 118.623 23.7918 118.623 23.9662C118.623 24.1411 118.569 24.2889 118.459 24.4122C118.349 24.5319 118.22 24.5909 118.071 24.5909Z" fill="#2C5CFF" stroke="#2C5CFF" stroke-width="0.086"/>
<path d="M122.915 26.1216V26.0786H122.872H121.07V25.1579H122.685H122.728V25.1149V24.2808V24.2378H122.685H121.07V23.3678H122.842H122.885V23.3248V22.4785V22.4355H122.842H120.163H120.12V22.4785V26.9679V27.0109H120.163H122.872H122.915V26.9679V26.1216Z" fill="#2C5CFF" stroke="#2C5CFF" stroke-width="0.086"/>
<path d="M126.325 26.9812L126.334 27.0109H126.366H127.305H127.366L127.346 26.954L125.806 22.4646L125.796 22.4355H125.765H124.695H124.665L124.655 22.4646L123.122 26.954L123.103 27.0109H123.163H124.095H124.126L124.136 26.9813L124.39 26.2032H126.073L126.325 26.9812ZM124.692 25.2891L125.233 23.6355L125.775 25.2891H124.692Z" fill="#2C5CFF" stroke="#2C5CFF" stroke-width="0.086"/>
<path d="M130.352 22.4785V22.4355H130.309H130.307H127.084H127.041V22.4785V23.3248V23.3678H127.084H128.218V26.9679V27.0109H128.261H129.126H129.169V26.9679V23.3678H130.309H130.352V23.3248V22.4785Z" fill="#2C5CFF" stroke="#2C5CFF" stroke-width="0.086"/>
<path d="M130.792 22.4355H130.749V22.4785V26.9679V27.0109H130.792H131.654H131.697V26.9679V22.4785V22.4355H131.654H130.792Z" fill="#2C5CFF" stroke="#2C5CFF" stroke-width="0.086"/>
<path d="M133.508 26.9818L133.517 27.0114H133.549H134.618H134.649L134.659 26.9819L136.137 22.4924L136.155 22.436H136.096H135.15H135.118L135.109 22.4663L134.086 25.7837L133.058 22.4663L133.049 22.436H133.017H132.077H132.018L132.036 22.4924L133.508 26.9818Z" fill="#2C5CFF" stroke="#2C5CFF" stroke-width="0.086"/>
<path d="M139.271 26.1216V26.0786H139.228H137.424V25.1579H139.228H139.271V25.1149V24.2808V24.2378H139.228H137.424V23.3678H139.228H139.271V23.3248V22.4785V22.4355H139.228H136.519H136.476V22.4785V26.9679V27.0109H136.519H139.228H139.271V26.9679V26.1216Z" fill="#2C5CFF" stroke="#2C5CFF" stroke-width="0.086"/>
<path d="M7.10546 29.4919H0.20491C0.0928202 29.4919 0.00195312 29.5828 0.00195312 29.6949V36.5954C0.00195312 36.7075 0.0928202 36.7984 0.20491 36.7984H7.10546C7.21755 36.7984 7.30841 36.7075 7.30841 36.5954V29.6949C7.30841 29.5828 7.21755 29.4919 7.10546 29.4919Z" fill="#2C5CFF"/>
</g>
<defs>
<clipPath id="clip0_1_1055">
<rect width="139.32" height="31.2554" fill="white" transform="translate(0 5.54395)"/>
</clipPath>
</defs>
</svg>
