<svg width="140" height="32" viewBox="0 0 140 32" fill="none" xmlns="http://www.w3.org/2000/svg">
<g clip-path="url(#clip0_302_7564)">
<path d="M10.5535 31.7994C10.4419 31.7994 10.3506 31.708 10.3506 31.5964V0.746903C10.3506 0.635276 10.4419 0.543945 10.5535 0.543945H22.8101C25.5196 0.543945 27.9023 0.929564 29.9522 1.70283C32.0082 2.47407 33.7252 3.54568 35.1093 4.91767C36.4935 6.28967 37.5448 7.9255 38.2572 9.82924C38.9696 11.733 39.3288 13.8031 39.3288 16.0397C39.3288 18.4225 38.9432 20.586 38.1638 22.5364C37.3906 24.4868 36.2865 26.1429 34.8617 27.5149C33.4309 28.8869 31.7139 29.9443 29.7046 30.6831C27.6953 31.428 25.4587 31.8014 22.9826 31.8014H10.5535V31.7994ZM18.1644 25.3636C18.1644 25.3636 18.1665 25.3697 18.1705 25.3697H23.3886C24.5474 25.3697 25.6109 25.1627 26.5831 24.7446C27.5492 24.3244 28.3874 23.7257 29.0856 22.9342C29.7837 22.1427 30.3297 21.1705 30.7153 20.0116C31.1009 18.8466 31.2937 17.5416 31.2937 16.0844C31.2937 14.7469 31.1273 13.5149 30.8006 12.3967C30.4738 11.2784 29.9826 10.3204 29.3291 9.51466C28.6776 8.70892 27.8658 8.08381 26.8936 7.6373C25.9276 7.1908 24.8032 6.96551 23.5185 6.96551H18.3633C18.2517 6.96551 18.1604 7.05684 18.1604 7.16847V25.3616L18.1644 25.3636Z" fill="white"/>
<path d="M57.9847 31.7534C57.8731 31.7534 57.7818 31.662 57.7818 31.5504V29.7035C57.7818 29.5289 57.5727 29.4336 57.4367 29.5452C56.6594 30.1804 55.7928 30.6939 54.8328 31.0816C53.7287 31.5281 52.5434 31.7534 51.2587 31.7534C49.767 31.7534 48.4031 31.4611 47.1529 30.8806C45.9007 30.3022 44.829 29.4965 43.9381 28.4715C43.0471 27.4466 42.355 26.2086 41.8618 24.7635C41.3686 23.3185 41.123 21.7354 41.123 20.0042C41.123 18.2729 41.3686 16.7102 41.8618 15.2915C42.355 13.8809 43.0471 12.6693 43.9381 11.6768C44.829 10.6783 45.9007 9.90704 47.1529 9.35297C48.4052 8.80092 49.7751 8.52693 51.2587 8.52693C52.5374 8.52693 53.7287 8.72583 54.8328 9.13174C55.7867 9.4788 56.6574 9.97199 57.4367 10.6012C57.5727 10.7108 57.7818 10.6174 57.7818 10.4408V8.72786C57.7818 8.61623 57.8731 8.5249 57.9847 8.5249H65.3927C65.5043 8.5249 65.5956 8.61623 65.5956 8.72786V31.5443C65.5956 31.6559 65.5043 31.7473 65.3927 31.7473H57.9847V31.7534ZM53.4486 25.5043C54.8795 25.5043 55.9572 24.9989 56.6838 23.9862C57.4165 22.9734 57.7757 21.6644 57.7757 20.059C57.7757 18.4536 57.4104 17.1709 56.6838 16.219C55.9511 15.2671 54.8734 14.7882 53.4486 14.7882C52.0239 14.7882 50.9462 15.2671 50.2338 16.219C49.5214 17.1709 49.1622 18.4495 49.1622 20.059C49.1622 21.6684 49.5214 22.9734 50.2338 23.9862C50.9462 24.9989 52.0178 25.5043 53.4486 25.5043Z" fill="white"/>
<path d="M82.3725 24.9236C82.3725 24.9236 82.3786 24.9216 82.3786 24.9175C82.3746 24.4487 82.0234 24.1037 81.3273 23.8987C80.6291 23.6917 79.7503 23.507 78.6909 23.3406C77.6335 23.1741 76.4868 23.0016 75.2508 22.8007C74.0127 22.6079 72.868 22.275 71.8106 21.796C70.7532 21.3232 69.8744 20.6575 69.1742 19.805C68.476 18.9526 68.1229 17.814 68.1229 16.3913C68.1229 15.1736 68.3888 14.0756 68.9286 13.1095C69.4685 12.1434 70.1991 11.3255 71.1388 10.6537C72.0765 9.98191 73.1948 9.46234 74.4876 9.08889C75.7845 8.71545 77.189 8.53076 78.7071 8.53076C80.0182 8.53076 81.3435 8.67689 82.681 8.97727C84.0185 9.27764 85.2302 9.73633 86.3221 10.3614C87.414 10.9865 88.2928 11.8065 88.9788 12.8172C89.5308 13.8381 89.8576 14.8813 89.888 16.2147C89.8901 16.3264 89.7987 16.4177 89.6871 16.4177H82.2792C82.1675 16.4177 82.0762 16.3264 82.0701 16.2147C82.0316 15.5977 81.8002 15.1045 81.2055 14.6479C80.554 14.1425 79.7341 13.8888 78.7497 13.8888C77.8851 13.8888 77.1931 14.0695 76.6735 14.4287C76.1539 14.7879 75.8941 15.1411 75.8941 15.5003C75.8941 15.9468 76.2534 16.2533 76.9657 16.4197C77.6781 16.5861 78.563 16.7262 79.6225 16.8459C80.6799 16.9657 81.8245 17.1118 83.0626 17.2924C84.3006 17.4731 85.4453 17.7917 86.5047 18.2504C87.5621 18.7091 88.4491 19.3626 89.1594 20.1947C89.8718 21.0268 90.231 22.1715 90.231 23.6348C90.231 24.8871 89.9591 26.0115 89.405 27.01C88.853 28.0086 88.0878 28.8529 87.1014 29.5531C86.1171 30.2512 84.9582 30.7972 83.6207 31.1828C82.2832 31.5684 80.8382 31.7613 79.2876 31.7613C77.9501 31.7613 76.5984 31.6009 75.2467 31.2884C73.895 30.9758 72.6712 30.4826 71.5853 29.8169C70.4995 29.1451 69.6227 28.2866 68.9489 27.2272C68.3076 26.2165 67.9747 25.0129 67.9463 23.6105C67.9443 23.4989 68.0356 23.4075 68.1472 23.4075H75.5552C75.6668 23.4075 75.7581 23.4989 75.7622 23.6105C75.8089 24.5502 76.1783 25.2423 76.8764 25.6827C77.6213 26.1617 78.4879 26.3951 79.4662 26.3951C80.211 26.3951 80.8767 26.2692 81.4755 26.0155C82.0721 25.7639 82.3644 25.4006 82.3664 24.9297C82.3664 24.9257 82.3685 24.9236 82.3725 24.9236Z" fill="white"/>
<path d="M103.292 16.5266V23.9264C103.292 24.4054 103.399 24.7708 103.606 25.0427C103.811 25.3106 104.085 25.4425 104.41 25.4425C104.735 25.4425 105.003 25.3106 105.216 25.0427C105.423 24.7768 105.528 24.3709 105.528 23.8392V23.0659C105.528 23.0436 105.547 23.0253 105.569 23.0253H113.304C113.326 23.0253 113.344 23.0416 113.344 23.0639C113.397 24.7748 113.452 27.1108 111.067 29.4956C109.602 30.9609 107.3 31.6206 104.325 31.6206H104.199C104.199 31.6206 104.189 31.6165 104.187 31.6124C104.185 31.6084 104.181 31.6064 104.177 31.6064C98.3783 31.6043 95.478 29.1222 95.478 24.1456V16.5205C95.478 16.4089 95.3887 16.3176 95.275 16.3176H91.7537C91.6421 16.3176 91.5508 16.2263 91.5508 16.1146V9.82498C91.5508 9.71335 91.6421 9.62202 91.7537 9.62202H95.275C95.3867 9.62202 95.478 9.53069 95.478 9.41906V3.4095C95.478 3.29787 95.5693 3.20654 95.681 3.20654H103.089C103.203 3.20654 103.292 3.29787 103.292 3.4095V9.42515C103.292 9.53881 103.383 9.62811 103.495 9.62811H113.139C113.253 9.62811 113.342 9.71944 113.342 9.83107V16.1207C113.342 16.2323 113.251 16.3237 113.139 16.3237H103.495C103.383 16.3237 103.292 16.415 103.292 16.5266Z" fill="white"/>
<path d="M130.407 23.986C129.68 24.9987 128.603 25.5041 127.172 25.5041C125.741 25.5041 124.669 24.9987 123.957 23.986C123.754 23.6957 123.58 23.3852 123.435 23.0503C123.429 23.0361 123.415 23.026 123.399 23.026H115.171C115.145 23.026 115.126 23.0503 115.13 23.0747C115.246 23.6572 115.396 24.2214 115.581 24.7653C116.074 26.2083 116.766 27.4464 117.659 28.4713C118.55 29.4962 119.622 30.302 120.874 30.8804C122.124 31.4609 123.488 31.7531 124.98 31.7531C126.265 31.7531 127.448 31.5258 128.554 31.0813C129.514 30.6937 130.379 30.1802 131.158 29.545C131.294 29.4333 131.503 29.5287 131.503 29.7033V31.5502C131.503 31.6618 131.594 31.7531 131.706 31.7531H139.114C139.226 31.7531 139.317 31.6618 139.317 31.5502V23.0666C139.317 23.0442 139.299 23.026 139.276 23.026H130.971C130.955 23.026 130.941 23.0361 130.935 23.0503C130.787 23.3872 130.61 23.6998 130.405 23.986H130.407ZM139.116 8.53076H131.708C131.596 8.53076 131.505 8.62209 131.505 8.73372V10.4467C131.505 10.6233 131.302 10.7207 131.164 10.6111C130.383 9.97988 129.512 9.48669 128.556 9.1376C127.45 8.73169 126.259 8.53076 124.982 8.53076C123.498 8.53076 122.126 8.80475 120.876 9.3568C119.624 9.90884 118.552 10.6821 117.661 11.6786C116.768 12.6711 116.076 13.8827 115.583 15.2933C115.473 15.614 115.374 15.9407 115.287 16.2776C115.281 16.304 115.299 16.3284 115.327 16.3284H123.88C123.904 16.2898 123.931 16.2553 123.957 16.2188C124.669 15.2669 125.747 14.7879 127.172 14.7879C128.597 14.7879 129.674 15.2669 130.407 16.2188C130.433 16.2553 130.46 16.2898 130.486 16.3284H139.319V8.73372C139.319 8.62209 139.228 8.53076 139.116 8.53076Z" fill="white"/>
<path d="M113.903 22.1007H113.93L113.932 22.0965C114.33 22.0924 114.696 21.9974 115.029 21.8089L115.029 21.8088C115.368 21.6143 115.635 21.3491 115.826 21.0176L115.847 20.9809L115.811 20.9592L115.066 20.5168L115.027 20.4936L115.006 20.5337C114.906 20.7228 114.758 20.8732 114.56 20.9851C114.366 21.0927 114.148 21.146 113.905 21.146C113.489 21.146 113.156 21.0137 112.903 20.7494C112.654 20.4845 112.528 20.1465 112.528 19.7216C112.528 19.2964 112.652 18.9525 112.903 18.6878C113.158 18.4234 113.489 18.2912 113.905 18.2912C114.148 18.2912 114.366 18.3464 114.56 18.4579L114.56 18.4579L114.56 18.4583C114.754 18.5659 114.902 18.7162 115.006 18.9098L115.027 18.9494L115.066 18.9265L115.811 18.484L115.847 18.4623L115.826 18.4254C115.633 18.0939 115.366 17.8328 115.02 17.6404C114.679 17.4438 114.306 17.3466 113.903 17.3466C113.233 17.3466 112.677 17.5762 112.238 18.0336C111.8 18.4867 111.581 19.0559 111.581 19.7237C111.581 20.3916 111.8 20.9566 112.238 21.4136C112.677 21.8711 113.233 22.1007 113.903 22.1007Z" fill="#2C5CFF" stroke="#2C5CFF" stroke-width="0.086"/>
<path d="M118.692 21.9984L118.72 21.9768V22.0089H119.654H119.728L119.691 21.9445L118.744 20.2917C118.986 20.1692 119.183 19.9942 119.333 19.7651L119.333 19.7648C119.492 19.5185 119.571 19.2527 119.571 18.9662C119.571 18.5451 119.425 18.1832 119.133 17.8848C118.841 17.5864 118.484 17.4355 118.069 17.4355H116.317H116.274V17.4785V21.9679V22.0109H116.317H117.182H117.225V21.9679V20.4522H117.814L118.648 21.9229H118.616L118.69 21.9963L118.692 21.9984ZM118.071 19.5909H117.225V18.3476H118.071C118.222 18.3476 118.349 18.4065 118.459 18.5262C118.567 18.6479 118.623 18.7918 118.623 18.9662C118.623 19.1411 118.569 19.2889 118.459 19.4122C118.349 19.5319 118.22 19.5909 118.071 19.5909Z" fill="#2C5CFF" stroke="#2C5CFF" stroke-width="0.086"/>
<path d="M122.915 21.1216V21.0786H122.872H121.07V20.1579H122.685H122.728V20.1149V19.2808V19.2378H122.685H121.07V18.3678H122.842H122.885V18.3248V17.4785V17.4355H122.842H120.163H120.12V17.4785V21.9679V22.0109H120.163H122.872H122.915V21.9679V21.1216Z" fill="#2C5CFF" stroke="#2C5CFF" stroke-width="0.086"/>
<path d="M126.325 21.9812L126.334 22.0109H126.366H127.305H127.366L127.346 21.954L125.806 17.4646L125.796 17.4355H125.765H124.695H124.665L124.655 17.4646L123.122 21.954L123.103 22.0109H123.163H124.095H124.126L124.136 21.9813L124.39 21.2032H126.073L126.325 21.9812ZM124.692 20.2891L125.233 18.6355L125.775 20.2891H124.692Z" fill="#2C5CFF" stroke="#2C5CFF" stroke-width="0.086"/>
<path d="M130.352 17.4785V17.4355H130.309H130.307H127.084H127.041V17.4785V18.3248V18.3678H127.084H128.218V21.9679V22.0109H128.261H129.126H129.169V21.9679V18.3678H130.309H130.352V18.3248V17.4785Z" fill="#2C5CFF" stroke="#2C5CFF" stroke-width="0.086"/>
<path d="M130.792 17.4355H130.749V17.4785V21.9679V22.0109H130.792H131.654H131.697V21.9679V17.4785V17.4355H131.654H130.792Z" fill="#2C5CFF" stroke="#2C5CFF" stroke-width="0.086"/>
<path d="M133.508 21.9818L133.517 22.0114H133.549H134.618H134.649L134.659 21.9819L136.137 17.4924L136.155 17.436H136.096H135.15H135.118L135.109 17.4663L134.086 20.7837L133.058 17.4663L133.049 17.436H133.017H132.077H132.018L132.036 17.4924L133.508 21.9818Z" fill="#2C5CFF" stroke="#2C5CFF" stroke-width="0.086"/>
<path d="M139.271 21.1216V21.0786H139.228H137.424V20.1579H139.228H139.271V20.1149V19.2808V19.2378H139.228H137.424V18.3678H139.228H139.271V18.3248V17.4785V17.4355H139.228H136.519H136.476V17.4785V21.9679V22.0109H136.519H139.228H139.271V21.9679V21.1216Z" fill="#2C5CFF" stroke="#2C5CFF" stroke-width="0.086"/>
<path d="M7.10546 24.4917H0.20491C0.0928202 24.4917 0.00195312 24.5826 0.00195312 24.6947V31.5952C0.00195312 31.7073 0.0928202 31.7982 0.20491 31.7982H7.10546C7.21755 31.7982 7.30841 31.7073 7.30841 31.5952V24.6947C7.30841 24.5826 7.21755 24.4917 7.10546 24.4917Z" fill="#2C5CFF"/>
</g>
<defs>
<clipPath id="clip0_302_7564">
<rect width="139.32" height="31.2554" fill="white" transform="translate(0 0.543945)"/>
</clipPath>
</defs>
</svg>
