<svg width="544" height="98" viewBox="0 0 544 98" fill="none" xmlns="http://www.w3.org/2000/svg">
<path d="M45 0.332764H0V47.9242C30.7301 43.3801 40.7488 31.9291 45 0.332764Z" fill="white"/>
<path d="M102.243 47.8939C102.243 46.8034 102.212 45.8945 102.121 44.8343C100.39 17.5396 81.6243 1.42336 52.5946 0.363078C51.5926 0.332784 50.5601 0.30249 49.5581 0.30249H48.5C53.146 34.7768 64.7106 43.986 102.273 47.8939H102.243Z" fill="white"/>
<path d="M48.7369 97.9999H49.5264C50.5588 97.9999 51.5913 97.9999 52.5934 97.9393C81.5319 96.879 100.268 80.8536 102.09 53.6499C102.181 52.5896 102.181 51.5293 102.211 50.4387C64.6486 54.3466 53.3525 63.7074 48.7065 97.9999H48.7369Z" fill="white"/>
<path d="M0 50.4387V97.9999H44.5C40.2184 66.4641 30.639 54.9525 0 50.4387Z" fill="white"/>
<path d="M532.433 79.6725H501.339L508.718 97.7275H540.177L532.403 79.6725H532.433ZM497.968 0H458.766L439.544 44.6832H469.637L471.034 41.3509L477.289 24.9317H479.172L485.579 41.3509L486.976 44.6832H517.281L497.968 0ZM416.679 97.7275H447.409L454.94 79.6725H424.422L416.679 97.7275ZM331.108 0V24.75H365.634V97.6973H393.024V24.75H427.398V0H331.108ZM296.491 39.3213L265.883 34.8075C260.629 34.0804 258.899 32.6263 258.899 29.5667C258.899 25.3558 261.966 18.8124 275.934 18.8124C294.305 18.8124 297.372 25.78 297.372 32.7778V34.959H324.762V34.0804C324.762 12.269 309.913 0 278.849 0C243.594 0 231.509 15.0257 231.509 30.5664C231.509 46.107 240.679 56.0131 258.899 58.4669L289.507 62.5262C297.524 63.5562 299.407 65.0103 299.407 68.4941C299.407 72.8564 297.645 81.3387 281.035 81.3387C262.664 81.3387 260.356 72.4323 260.356 65.8888V62.8292H232.966V63.7077C232.966 88.4274 251.186 97.6973 281.035 97.6973C313.952 97.6973 326.766 84.1863 326.766 67.4944C326.766 54.9831 320.359 42.7747 296.461 39.291L296.491 39.3213ZM188.541 0H149.339L107.222 97.7275H137.952L145.513 79.5816H191.851L199.26 97.7275H230.75L188.541 0ZM155.898 54.9831L161.576 41.3206L167.832 24.9014H169.714L176.122 41.3206L181.8 54.9831H155.868H155.898Z" fill="white"/>
<path d="M46.7644 13.9348C48.6774 42.8047 53.293 47.3488 82.1708 49.2573C53.2323 51.1658 48.6774 55.7704 46.7644 84.5798C44.8513 55.7099 40.2357 51.1658 11.3579 49.2573C40.2965 47.3488 44.8513 42.7441 46.7644 13.9348Z" fill="#FA4A48"/>
<path d="M407.751 61.9808C407.751 56.6491 411.273 53.1653 417.225 53.1653C423.177 53.1653 426.456 55.8917 426.456 60.4661V60.8902H421.082V60.4661C421.082 58.5273 420.171 57.7699 417.316 57.7699C413.824 57.7699 412.883 58.5879 412.883 61.9808C412.883 65.3737 413.824 66.1916 417.316 66.1916C420.171 66.1916 421.082 65.4342 421.082 63.4954V63.0713H426.456V63.4954C426.456 68.0698 422.995 70.7962 417.225 70.7962C411.456 70.7962 407.751 67.3125 407.751 61.9808Z" fill="#FA4A48"/>
<path d="M427.764 70.5537V53.4377H437.784C442.309 53.4377 444.708 55.316 444.708 58.6786C444.708 61.3747 443.341 63.0106 440.062 63.4044V63.6467C441.823 64.1011 442.4 64.9494 443.038 66.252L445.163 70.5537H439.606L437.572 66.3732C436.965 65.1008 436.448 64.7373 434.566 64.7373H432.592V70.5537H427.764ZM432.592 61.1324H437.754C439.151 61.1324 439.667 60.89 439.667 59.4359C439.667 58.0727 439.151 57.7395 437.754 57.7395H432.592V61.1324Z" fill="#FA4A48"/>
<path d="M445.952 70.5537V53.4377H461.195V57.7697H450.78V59.8297H460.831V64.1314H450.78V66.2823H461.195V70.6143H445.952V70.5537Z" fill="#FA4A48"/>
<path d="M461.528 70.5537L468.938 53.4377H475.831L483.27 70.5537H477.744L476.438 67.3729H468.3L466.964 70.5537H461.559H461.528ZM470.091 63.0711H474.646L473.644 60.6779L472.521 57.8H472.187L471.094 60.6779L470.091 63.0711Z" fill="#FA4A48"/>
<path d="M489.495 70.554V57.7397H483.421V53.4077H500.365V57.7397H494.323V70.554H489.495Z" fill="#FA4A48"/>
<path d="M501.52 70.5537V53.4377H506.348V70.5537H501.52Z" fill="#FA4A48"/>
<path d="M513.727 70.5537L506.834 53.4377H512.665L517.098 65.7067H517.432L521.774 53.4377H527.574L520.681 70.5537H513.758H513.727Z" fill="#FA4A48"/>
<path d="M528.091 70.5537V53.4377H543.335V57.7697H532.919V59.8297H542.971V64.1314H532.919V66.2823H543.335V70.6143H528.091V70.5537Z" fill="#FA4A48"/>
</svg>
