<svg width="245" height="71" viewBox="0 0 245 71" fill="none" xmlns="http://www.w3.org/2000/svg">
<g clip-path="url(#clip0_493_355)">
<path d="M242.581 45.8518H232.905L235.201 51.4836H244.991L242.572 45.8518H242.581ZM231.856 21.0004H219.657L213.676 34.938H223.04L223.475 33.8986L225.421 28.7771H226.007L228.001 33.8986L228.436 34.938H237.866L231.856 21.0004ZM206.561 51.4836H216.123L218.467 45.8518H208.97L206.561 51.4836ZM179.933 21.0004V28.7204H190.677V51.4741H199.2V28.7204H209.896V21.0004H179.933ZM169.161 33.2655L159.636 31.8575C158.001 31.6308 157.463 31.1772 157.463 30.2228C157.463 28.9094 158.417 26.8683 162.764 26.8683C168.48 26.8683 169.435 29.0417 169.435 31.2244V31.9048H177.958V31.6308C177.958 24.8273 173.337 21.0004 163.671 21.0004C152.7 21.0004 148.939 25.6872 148.939 30.5346C148.939 35.3821 151.793 38.472 157.463 39.2374L166.987 40.5036C169.482 40.8249 170.068 41.2784 170.068 42.3651C170.068 43.7258 169.52 46.3716 164.351 46.3716C158.634 46.3716 157.916 43.5935 157.916 41.5524V40.5981H149.393V40.8721C149.393 48.5827 155.062 51.4741 164.351 51.4741C174.594 51.4741 178.582 47.2598 178.582 42.0533C178.582 38.1507 176.588 34.3427 169.151 33.256L169.161 33.2655ZM135.569 21.0004H123.37L110.264 51.4836H119.826L122.179 45.8235H136.599L138.904 51.4836H148.703L135.569 21.0004ZM125.411 38.1507L127.178 33.8891L129.124 28.7676H129.71L131.704 33.8891L133.471 38.1507H125.401H125.411Z" fill="white"/>
</g>
<path d="M80.4351 21.0002H92.9918C97.2214 21.0002 100.776 22.4704 103.654 25.4108C106.533 28.3512 107.972 31.9757 107.972 36.2844C107.972 40.6222 106.533 44.2612 103.654 47.2016C100.805 50.1129 97.2508 51.5685 92.9918 51.5685H80.4351V21.0002ZM88.5419 44.0138H92.9918C95.1066 44.0138 96.8543 43.3151 98.2348 41.9177C99.5859 40.4912 100.261 38.6134 100.261 36.2844C100.261 33.9263 99.5859 32.063 98.2348 30.6948C96.8836 29.2682 95.136 28.555 92.9918 28.555H88.5419V44.0138Z" fill="white"/>
<path d="M205.313 40.1988C205.313 38.6716 206.322 37.6737 208.027 37.6737C209.732 37.6737 210.671 38.4547 210.671 39.765V39.8865H209.131V39.765C209.131 39.2096 208.87 38.9927 208.053 38.9927C207.053 38.9927 206.783 39.227 206.783 40.1988C206.783 41.1707 207.053 41.405 208.053 41.405C208.87 41.405 209.131 41.1881 209.131 40.6327V40.5112H210.671V40.6327C210.671 41.943 209.679 42.724 208.027 42.724C206.374 42.724 205.313 41.7261 205.313 40.1988Z" fill="#2C5CFF"/>
<path d="M211.045 42.6545V37.7517H213.915C215.211 37.7517 215.898 38.2897 215.898 39.2529C215.898 40.0252 215.507 40.4938 214.568 40.6066V40.676C215.072 40.8062 215.237 41.0491 215.42 41.4223L216.029 42.6545H214.437L213.854 41.457C213.68 41.0925 213.533 40.9884 212.993 40.9884H212.428V42.6545H211.045ZM212.428 39.9558H213.907C214.307 39.9558 214.455 39.8864 214.455 39.4698C214.455 39.0794 214.307 38.9839 213.907 38.9839H212.428V39.9558Z" fill="#2C5CFF"/>
<path d="M216.255 42.6545V37.7517H220.621V38.9926H217.638V39.5827H220.517V40.8148H217.638V41.4309H220.621V42.6718H216.255V42.6545Z" fill="#2C5CFF"/>
<path d="M220.717 42.6545L222.84 37.7517H224.814L226.945 42.6545H225.362L224.988 41.7433H222.657L222.274 42.6545H220.726H220.717ZM223.17 40.5111H224.475L224.188 39.8256L223.866 39.0013H223.77L223.457 39.8256L223.17 40.5111Z" fill="#2C5CFF"/>
<path d="M228.728 42.6544V38.9838H226.988V37.7429H231.842V38.9838H230.111V42.6544H228.728Z" fill="#2C5CFF"/>
<path d="M232.172 42.6545V37.7517H233.555V42.6545H232.172Z" fill="#2C5CFF"/>
<path d="M235.669 42.6545L233.695 37.7517H235.365L236.635 41.2661H236.73L237.974 37.7517H239.636L237.661 42.6545H235.678H235.669Z" fill="#2C5CFF"/>
<path d="M239.783 42.6545V37.7517H244.15V38.9926H241.166V39.5827H244.045V40.8148H241.166V41.4309H244.15V42.6718H239.783V42.6545Z" fill="#2C5CFF"/>
<path d="M70.8833 35.3447C58.995 36.1308 51.2215 37.3633 46.0489 40.5562C43.7974 41.9342 42.0409 43.6908 40.6531 45.9423C37.4699 51.1052 36.2277 58.8593 35.4417 70.6893C34.6556 58.8399 33.4231 51.0955 30.2302 45.9423C28.8521 43.7005 27.0956 41.9439 24.8441 40.5562C19.6715 37.373 11.898 36.1308 0 35.3447C11.8883 34.5586 19.6715 33.3164 24.8441 30.1333C27.0956 28.7455 28.8521 26.989 30.2399 24.7375C33.4134 19.5745 34.6556 11.8205 35.4417 0.00012207C36.218 11.8399 37.4602 19.5843 40.6434 24.7375C42.0312 26.989 43.7877 28.7455 46.0489 30.1333C51.2215 33.3164 58.995 34.5586 70.8833 35.3447Z" fill="#2C5CFF"/>
<path d="M27.5429 20.1852C25.7016 23.1716 23.3776 25.4957 20.3799 27.3482V20.1852H27.5429Z" fill="#2C5CFF"/>
<path d="M50.4648 20.1852V27.3482C47.4718 25.5069 45.1402 23.1829 43.3018 20.1852H50.4648Z" fill="#2C5CFF"/>
<path d="M27.5429 50.2703H20.3799V43.1073C23.371 44.9515 25.6987 47.2792 27.5429 50.2703Z" fill="#2C5CFF"/>
<path d="M50.4648 43.1073V50.2703H43.3018C45.143 47.2792 47.4671 44.9515 50.4648 43.1073Z" fill="#2C5CFF"/>
<defs>
<clipPath id="clip0_493_355">
<rect width="168.102" height="30.5683" fill="white" transform="translate(76.8984 21.0004)"/>
</clipPath>
</defs>
</svg>
