
<svg width="96" height="96" viewBox="0 0 96 96" fill="none" xmlns="http://www.w3.org/2000/svg">
<rect width="96" height="96" fill="white"/>
<path d="M42.7199 4.02711H4V46.8947C30.4415 42.8017 39.062 32.4873 42.7199 4.02711Z" fill="#2C5CFF"/>
<path d="M91.9739 46.8676C91.9739 45.8853 91.9477 45.0667 91.8694 44.1116C90.3801 19.5262 74.233 5.00961 49.2546 4.05457C48.3924 4.02729 47.504 4 46.6418 4H45.7314C49.729 35.0524 59.6797 43.3476 92 46.8676H91.9739Z" fill="#2C5CFF"/>
<path d="M46.6148 92C47.5031 92 48.3915 92 49.2537 91.9454C74.1537 90.9904 90.2747 76.5557 91.8424 52.0521C91.9207 51.097 91.9207 50.142 91.9469 49.1597C59.6265 52.6797 49.9069 61.1113 45.9093 92H46.6148Z" fill="#2C5CFF"/>
<path d="M4 49.1597V92H42.2897C38.6057 63.5944 30.3631 53.2254 4 49.1597Z" fill="#2C5CFF"/>
<path d="M44.238 16.2791C45.884 42.2835 49.8555 46.3765 74.7032 48.0956C49.8032 49.8146 45.884 53.9622 44.238 79.912C42.5919 53.9077 38.6205 49.8146 13.7727 48.0956C38.6727 46.3765 42.5919 42.2289 44.238 16.2791Z" fill="#FA4A48"/>
</svg>
