<svg width="512" height="512" viewBox="0 0 512 512" fill="none" xmlns="http://www.w3.org/2000/svg">
<rect x="14" y="25" width="484" height="462" rx="14" fill="#2C5CFF"/>
<path d="M490.882 255.427C412.095 260.07 360.578 267.35 326.298 286.209C311.376 294.349 299.735 304.725 290.538 318.024C269.442 348.519 261.21 394.32 256 464.197C250.79 394.206 242.622 348.462 221.462 318.024C212.329 304.782 200.688 294.406 185.767 286.209C151.486 267.407 99.9692 260.07 21.1177 255.427C99.9049 250.784 151.486 243.446 185.767 224.644C200.688 216.447 212.329 206.072 221.527 192.773C242.558 162.277 250.79 116.476 256 46.6562C261.145 116.59 269.378 162.334 290.473 192.773C299.671 206.072 311.312 216.447 326.298 224.644C360.578 243.446 412.095 250.784 490.882 255.427Z" fill="white"/>
<path d="M201.982 165.544C189.779 183.185 174.377 196.912 154.51 207.854V165.544H201.982Z" fill="white"/>
<path d="M353.891 165.544V207.854C334.055 196.978 318.603 183.251 306.42 165.544H353.891Z" fill="white"/>
<path d="M201.982 343.248H154.511V300.938C174.334 311.831 189.761 325.58 201.982 343.248Z" fill="white"/>
<path d="M353.891 300.938V343.248H306.42C318.622 325.58 334.024 311.831 353.891 300.938Z" fill="white"/>
</svg>
