<svg width="43" height="28" viewBox="0 0 43 28" fill="none" xmlns="http://www.w3.org/2000/svg">
<path d="M19.0858 0.193966C21.1774 -0.15203 23.4147 -0.0960329 25.3469 0.865933C27.5661 1.8839 29.2729 4.0778 29.4384 6.55568C29.598 9.36351 28.597 12.1114 27.1674 14.4853C24.2043 19.2631 19.4567 22.9188 14.077 24.5268C10.9704 25.4147 7.47095 25.5987 4.49001 24.1788C1.36945 22.6629 -0.213751 18.8011 0.591811 15.4732C1.28172 12.4793 3.52891 10.0955 6.1071 8.56361C6.69929 8.16754 7.41316 7.89961 7.81988 7.27762C10.5756 3.68378 14.5954 0.973942 19.0858 0.193966ZM8.94251 7.17563C9.66434 6.78161 10.4509 6.57882 11.2705 6.57678C11.4406 6.58572 11.467 6.82692 11.3028 6.87261L11.1478 6.91567C10.2565 7.12761 9.35525 7.32963 8.52183 7.73162C7.00111 10.145 6.11778 13.2262 6.17464 16.1559C6.19112 17.0049 5.57052 17.8206 5.06758 17.1375C4.96013 16.9915 4.89275 16.8505 4.87882 16.7691C4.43417 13.9233 5.34341 11.0294 6.85684 8.63555C5.81797 9.32356 4.82499 10.1115 4.05532 11.1015C2.70341 12.8034 1.96964 14.9893 2.06734 17.1672C2.08528 19.1891 2.92275 21.2689 4.55979 22.5069C6.5079 24.0048 9.08804 24.3708 11.4768 24.1668C15.1238 23.8048 18.5673 22.1969 21.4606 19.983C24.2681 17.8111 26.6569 14.9193 27.6837 11.4714C28.3238 9.21351 28.2819 6.62363 26.9919 4.59578C25.8274 2.63782 23.6719 1.41589 21.4446 1.13989C16.5634 0.539963 11.6283 3.12186 8.94251 7.17563Z" fill="#ECECEC"/>
<path d="M32.8503 22.4188C34.242 20.7689 36.0286 19.281 38.1941 18.849C38.7344 18.795 39.6736 18.631 39.8152 19.365C39.8369 20.0088 39.3638 20.5095 38.8156 20.8324C38.464 21.0393 38.0089 20.8117 38.2241 20.4646C38.4271 20.1374 38.799 19.8236 38.7683 19.419C38.0944 19.191 37.3945 19.447 36.7983 19.763C35.7155 20.351 34.7186 21.1409 33.9888 22.1429C33.7256 22.5109 33.4524 23.1288 33.8831 23.4788C34.5251 23.9307 35.3307 23.5448 35.9728 23.2888C36.3301 23.1595 36.6438 22.9456 36.9586 22.7356C37.4369 22.4165 37.9155 22.8301 37.8112 23.3967C37.7981 23.4679 37.7854 23.5392 37.7733 23.6108C39.4802 23.7608 41.0395 22.8648 42.5868 22.2708V22.6928C41.1531 23.2968 39.7234 23.9447 38.21 24.3208C37.7335 24.4027 37.1352 24.5887 36.7465 24.1948C36.7664 23.9167 36.8202 23.6428 36.868 23.3688C35.6538 24.0448 34.2739 24.8367 32.8403 24.5688C32.1564 24.3488 32.3378 23.5608 32.4913 23.0368C31.1753 23.5988 29.8433 24.1987 28.4197 24.4148C27.9271 24.4927 27.1974 24.4008 27.1375 23.7808C27.0977 22.7888 27.7278 21.9488 28.0747 21.0609C26.0768 21.9609 24.4477 23.5268 22.4219 24.3707C22.033 24.6047 21.5186 24.1967 21.7499 23.7708C22.1726 22.8429 23.032 22.2248 23.5763 21.3769C22.5879 21.7729 21.6722 22.3448 20.695 22.7625C20.2107 22.9694 19.9766 22.6293 20.4654 22.4331C20.5349 22.4052 20.6034 22.3771 20.6691 22.3469C22.027 21.7949 23.2573 20.9889 24.4995 20.2209C24.7807 20.0589 25.3489 19.789 25.2851 20.3609C25.0179 21.5508 23.4208 22.0888 23.5046 23.3948C24.8226 22.8088 25.9552 21.8968 27.1794 21.1489C27.9705 20.6872 28.6983 20.0807 29.5653 19.773C29.7574 19.7048 29.937 19.8727 29.8731 20.0668C29.516 21.1511 28.4867 21.9743 28.4636 23.1768C28.5313 23.8287 29.3688 23.6647 29.8114 23.5648C30.8484 23.2648 31.9131 22.9608 32.8503 22.4188Z" fill="#ECECEC"/>
<path d="M15.4407 5.75573C15.979 4.80582 16.7906 3.94583 17.8593 3.62589C19.5881 3.11589 21.5143 4.04985 22.4175 5.56178C22.918 6.40174 22.9698 7.4197 22.8901 8.37165C22.7206 10.1776 22.0665 11.8815 21.4943 13.5874C21.3209 14.2013 21.1174 14.9433 21.5083 15.5172C21.8034 15.9332 22.4892 15.8352 22.7285 15.4052C22.8038 15.2204 22.7278 15.0571 22.6325 14.8998C22.5579 14.7767 22.3555 14.7746 22.2833 14.8991C22.2229 15.0032 22.0619 14.9602 22.0615 14.8396C22.0613 14.787 22.0611 14.7351 22.061 14.6858C22.0606 14.5625 22.1316 14.4443 22.2527 14.4222C22.6956 14.3414 23.102 14.6732 23.1333 15.1593C23.225 16.0893 21.7855 16.4252 21.2969 15.7213C21.0141 15.3644 21.0947 14.8246 20.9058 14.448C20.8686 14.374 20.7686 14.3688 20.7055 14.4225C20.6869 14.4382 20.6761 14.4553 20.6671 14.4781C20.1038 15.8987 18.9566 16.9691 17.8115 17.9311C15.9591 19.4011 13.8674 20.703 11.4985 21.095C14.2503 19.7811 16.9561 18.2051 18.9699 15.8653C19.4645 15.2553 19.957 14.5653 20.0148 13.7574C20.0686 13.2554 19.7376 12.8454 19.4983 12.4394C17.6021 13.7073 15.4167 14.6133 13.8793 16.3613C13.1476 17.1192 12.6531 18.0571 12.1367 18.9671C11.9592 17.8872 12.3062 16.7672 13.1197 16.0293C15.333 13.9254 18.5332 13.3094 20.7247 11.1695C20.3756 11.6174 19.951 12.0015 19.5302 12.3794C20.1744 12.6706 20.6405 13.1868 20.8661 13.8529C20.8811 13.8969 20.9212 13.9274 20.9677 13.9285C21.0184 13.9297 21.0642 13.8955 21.0761 13.8462C21.5284 11.9784 22.119 10.104 22.0227 8.15768C22.0048 6.96968 21.6239 5.70371 20.6748 4.93181C19.8194 4.18985 18.5572 4.00581 17.5124 4.41578C16.7287 4.70383 16.1346 5.31582 15.4407 5.75573Z" fill="#ECECEC"/>
<path d="M17.6841 4.83988C18.3023 4.64583 19.0081 4.48785 19.6063 4.83988C21.1018 5.65777 21.9213 7.67571 21.1696 9.26366C21.343 7.7737 20.7209 6.19373 19.4568 5.34978C18.9443 4.9718 18.2883 4.93982 17.6841 4.83988Z" fill="#ECECEC"/>
<path d="M14.5612 7.56761C14.5293 7.02961 14.8564 6.56365 15.2133 6.19568C15.3948 6.6737 15.5203 7.18564 15.8334 7.59959C16.3518 8.33757 17.2013 8.74559 17.7516 9.45149C18.1763 10.0154 18.0208 10.7574 17.9769 11.4094C17.8453 10.8374 17.8294 10.2155 17.5103 9.70746C17.1972 9.2835 16.7207 9.03151 16.3338 8.68357C15.8076 8.24726 15.4774 7.64179 15.0879 7.08979C15.0383 7.0196 14.934 7.04721 14.9306 7.13324C14.9094 7.67756 15.0914 8.19913 15.2611 8.71157C14.9521 8.38958 14.5672 8.0536 14.5612 7.56761Z" fill="#ECECEC"/>
<path d="M12.1465 7.85767C13.2092 7.18969 14.6628 8.03364 14.7645 9.24963C14.0826 8.48959 13.2471 7.75569 12.1465 7.85767Z" fill="#ECECEC"/>
<path d="M9.43669 10.9576C9.07379 9.63162 10.1545 8.28769 11.4965 8.25366C10.7867 8.69163 10.0987 9.30157 9.98109 10.1816C9.80056 11.436 10.6363 12.49 10.8441 13.6787C10.8695 13.8242 10.7695 13.9625 10.6222 13.9665C10.3707 13.9733 10.1307 13.9072 9.92951 13.7561C9.81617 13.6708 9.8185 13.508 9.90963 13.3992C9.94017 13.3627 9.97081 13.3263 10.0013 13.2896C10.0575 13.2222 10.1672 13.2574 10.1731 13.3451C10.1749 13.3736 10.1768 13.4017 10.1786 13.4284C10.1834 13.5006 10.223 13.5657 10.2847 13.6032C10.4238 13.6881 10.6007 13.5974 10.5789 13.4355C10.4578 12.5395 9.53064 11.905 9.43669 10.9576Z" fill="#ECECEC"/>
<path d="M17.4448 8.17358C17.8635 8.75757 18.4139 9.21352 18.9642 9.66548C19.3294 9.93565 19.3987 10.3816 19.4526 10.8076C19.469 10.9371 19.6054 11.0113 19.7196 10.9487C20.3023 10.6288 20.8062 10.1849 21.321 9.76756C20.8185 10.8274 19.6979 11.3414 18.687 11.7954C17.3192 12.4274 15.7978 12.6454 14.4579 13.3454C12.9365 14.1133 11.2655 14.9252 10.4381 16.5092C9.73416 17.7351 9.86176 19.2151 10.2167 20.531C9.70818 19.321 9.27557 17.9371 9.77198 16.6492C10.4001 15.0232 12.0073 14.1093 13.4649 13.3314C14.0306 12.998 14.7317 12.8261 15.173 12.3158C15.1801 12.3077 15.1857 12.2982 15.1895 12.2882C15.3605 11.8382 15.3506 11.3475 15.3833 10.8675C15.3895 10.7754 15.5071 10.7487 15.557 10.8263C15.8762 11.3221 16.2793 11.8087 16.8813 11.9109C16.8913 11.9127 16.9015 11.9127 16.9115 11.911C17.6205 11.7978 18.289 11.52 18.9497 11.2482C19.0357 11.2129 19.0846 11.1215 19.0703 11.0295C19.002 10.5935 18.9732 10.115 18.6073 9.81753C18.0988 9.36158 17.6641 8.82961 17.4448 8.17358Z" fill="#ECECEC"/>
<path d="M10.5931 11.1795C9.97904 10.3275 10.5433 9.15754 11.4965 8.88562C11.2213 9.18155 10.8783 9.43159 10.6989 9.80151C10.4695 10.2275 10.5912 10.7215 10.5931 11.1795Z" fill="#ECECEC"/>
<path d="M12.1466 9.37354C12.3559 9.74549 12.7188 10.1095 12.6091 10.5735C12.4895 11.1895 12.2462 11.7714 12.0668 12.3694C11.9096 11.6889 12.2702 11.0804 12.4011 10.4374C12.4116 10.386 12.412 10.333 12.4025 10.2813C12.3452 9.97191 12.2349 9.67608 12.1466 9.37354Z" fill="#ECECEC"/>
<path d="M13.1676 9.48352C13.375 9.68758 13.8376 9.79957 13.7558 10.1636C13.5923 10.8675 13.2194 11.5035 12.9822 12.1834C12.8226 11.6214 13.1337 11.1315 13.371 10.6515C13.6182 10.2655 13.2613 9.86354 13.1676 9.48352Z" fill="#ECECEC"/>
<path d="M19.3601 26.0592H18.2471V27.9647H18.5593V27.1916H19.333V26.8922H18.5593V26.3586H19.3601V26.0592Z" fill="white"/>
<path d="M22.082 27.7142C22.2748 27.521 22.3698 27.2869 22.3698 27.0119C22.3698 26.737 22.2748 26.5029 22.082 26.3123C21.892 26.1191 21.6586 26.0238 21.3844 26.0238C21.1102 26.0238 20.8767 26.1191 20.684 26.3123C20.4939 26.5029 20.3989 26.737 20.3989 27.0119C20.3989 27.2869 20.4939 27.521 20.684 27.7142C20.8767 27.9048 21.1102 28 21.3844 28C21.6586 28 21.892 27.9048 22.082 27.7142ZM20.9039 27.5019C20.7763 27.3712 20.7111 27.2079 20.7111 27.0119C20.7111 26.8159 20.7763 26.6526 20.9039 26.5247C21.0342 26.394 21.1943 26.3287 21.3844 26.3287C21.5744 26.3287 21.7346 26.394 21.8622 26.5247C21.9925 26.6526 22.0576 26.8159 22.0576 27.0119C22.0576 27.2079 21.9925 27.3712 21.8622 27.5019C21.7346 27.6298 21.5744 27.6952 21.3844 27.6952C21.1943 27.6952 21.0342 27.6298 20.9039 27.5019Z" fill="white"/>
<path d="M23.4609 27.3331C23.4609 27.5373 23.5288 27.6979 23.6618 27.8204C23.7948 27.9402 23.9686 28.0001 24.1803 28.0001C24.3921 28.0001 24.5658 27.9402 24.6988 27.8204C24.8319 27.6979 24.8997 27.5373 24.8997 27.3331V26.0592H24.5875V27.3141C24.5875 27.5455 24.4518 27.6952 24.1803 27.6952C23.9089 27.6952 23.7731 27.5455 23.7731 27.3141V26.0592H23.4609V27.3331Z" fill="white"/>
<path d="M27.2408 27.3522L26.3449 26.0592H26.1006V27.9647H26.4128V26.6717L27.3086 27.9647H27.553V26.0592H27.2408V27.3522Z" fill="white"/>
<path d="M28.7739 26.0592V27.9647H29.5205C29.7811 27.9647 29.9983 27.8721 30.1693 27.6897C30.343 27.5046 30.4299 27.2787 30.4299 27.0119C30.4299 26.7424 30.343 26.5165 30.1693 26.3341C29.9983 26.1518 29.7811 26.0592 29.5205 26.0592H28.7739ZM29.0861 27.6652V26.3586H29.5205C29.6996 26.3586 29.8462 26.4212 29.9575 26.5437C30.0716 26.6662 30.1286 26.8214 30.1286 27.0119C30.1286 27.1998 30.0716 27.3576 29.9575 27.4801C29.8462 27.6026 29.6996 27.6652 29.5205 27.6652H29.0861Z" fill="white"/>
<path d="M33.0591 27.9647L32.3723 26.0592H31.9976L31.3081 27.9647H31.6474L31.7805 27.5809H32.5895L32.7225 27.9647H33.0591ZM32.185 26.4267L32.4863 27.2869H31.8836L32.185 26.4267Z" fill="white"/>
<path d="M33.8203 26.0592V26.3586H34.3578V27.9647H34.67V26.3586H35.2048V26.0592H33.8203Z" fill="white"/>
<path d="M36.2773 27.9647H36.5895V26.0592H36.2773V27.9647Z" fill="white"/>
<path d="M39.3989 27.7142C39.5917 27.521 39.6867 27.2869 39.6867 27.0119C39.6867 26.737 39.5917 26.5029 39.3989 26.3123C39.2089 26.1191 38.9754 26.0238 38.7013 26.0238C38.4271 26.0238 38.1936 26.1191 38.0009 26.3123C37.8108 26.5029 37.7158 26.737 37.7158 27.0119C37.7158 27.2869 37.8108 27.521 38.0009 27.7142C38.1936 27.9048 38.4271 28 38.7013 28C38.9754 28 39.2089 27.9048 39.3989 27.7142ZM38.2208 27.5019C38.0932 27.3712 38.028 27.2079 38.028 27.0119C38.028 26.8159 38.0932 26.6526 38.2208 26.5247C38.3511 26.394 38.5112 26.3287 38.7013 26.3287C38.8913 26.3287 39.0515 26.394 39.179 26.5247C39.3094 26.6526 39.3745 26.8159 39.3745 27.0119C39.3745 27.2079 39.3094 27.3712 39.179 27.5019C39.0515 27.6298 38.8913 27.6952 38.7013 27.6952C38.5112 27.6952 38.3511 27.6298 38.2208 27.5019Z" fill="white"/>
<path d="M41.9532 27.3522L41.0573 26.0592H40.813V27.9647H41.1252V26.6717L42.021 27.9647H42.2654V26.0592H41.9532V27.3522Z" fill="white"/>
</svg>
