<svg width="141" height="28" viewBox="0 0 141 28" fill="none" xmlns="http://www.w3.org/2000/svg">
<path d="M17.5316 6.70585C10.4968 4.99892 5.58055 9.05519 2.55657 4.49419C2.54752 4.47581 2.53846 4.46664 2.52941 4.44829C2.44793 4.31982 2.55657 4.13627 2.70142 4.17297C8.93046 5.67803 9.9445 4.74196 12.5611 5.06315C14.9784 5.35682 17.5316 6.70585 17.5316 6.70585Z" fill="white" fill-opacity="0.4"/>
<path d="M18.7727 7.85293C12.5797 6.92606 8.18861 11.6155 4.8749 8.00895C4.86585 7.99978 4.8568 7.98143 4.83869 7.97225C4.74816 7.8713 4.81153 7.68776 4.94733 7.69693C10.606 8.11907 11.9369 7.1096 14.2638 7.00865C16.4366 6.91688 18.7727 7.85293 18.7727 7.85293Z" fill="white" fill-opacity="0.4"/>
<path d="M19.922 9.33033C14.5168 8.587 12.1991 13.5059 7.81706 10.4958C7.80801 10.4867 7.79895 10.4775 7.78085 10.4591C7.69032 10.3765 7.71748 10.1379 7.84422 10.1379C12.6337 10.1471 13.8831 9.01832 15.9022 8.77055C18.6365 8.44016 19.922 9.33033 19.922 9.33033Z" fill="white" fill-opacity="0.4"/>
<path d="M22.3567 10.9548C19.5319 11.2576 19.9756 13.5519 16.8792 13.038C16.4718 12.9737 16.5624 12.6801 16.7434 12.625C19.3419 11.8725 19.3419 11.3678 20.2744 10.9915C21.1617 10.6519 22.3567 10.9548 22.3567 10.9548Z" fill="white" fill-opacity="0.4"/>
<path d="M21.08 10.2483C17.0058 10.3309 15.9646 13.2951 12.5332 12.3315C12.0081 12.1846 12.1892 11.7808 12.4698 11.7441C16.3993 11.1109 16.5892 10.5236 18.0469 10.1749C19.414 9.8445 21.08 10.2483 21.08 10.2483Z" fill="white" fill-opacity="0.4"/>
<path d="M18.7536 6.69656C18.7264 6.74244 18.6631 6.75161 18.6178 6.73326C17.7758 6.24688 16.9882 5.67789 16.0829 5.05386C15.2318 4.4757 13.4029 3.68647 9.60025 3.87001C7.78948 3.96179 5.03712 4.33805 2.19421 2.36498C1.50612 1.89694 0.808967 1.09854 0.446813 0.355207C0.4106 0.290959 0.392494 0.208361 0.38344 0.125763C0.374387 0.0431649 0.464919 -0.0210583 0.546423 0.006466C7.58125 2.86972 9.5912 1.75012 14.0185 2.78712C15.8383 3.21846 18.0927 5.89816 18.7447 6.56807C18.7808 6.59562 18.7808 6.65067 18.7536 6.69656Z" fill="white" fill-opacity="0.4"/>
<path d="M24.8743 22.3894C24.7927 22.6461 24.8107 22.9491 24.648 23.1693C24.4486 23.4631 23.9598 23.4906 23.7244 23.2243C23.5705 23.0868 23.5705 22.8666 23.5161 22.6921C23.1631 21.1229 22.819 19.5534 22.475 17.975C22.4389 17.865 22.475 17.7915 22.5836 17.7457C22.7557 17.6997 22.7738 17.8925 22.8279 18.0027C23.2173 19.0765 23.5794 20.1592 23.9779 21.2329C24.1045 21.6001 24.5302 21.4806 24.8108 21.5726C25.1096 21.7651 24.9285 22.1231 24.8743 22.3894Z" fill="white" fill-opacity="0.4"/>
<path d="M25.3364 18.058C25.3728 18.159 25.3184 18.2782 25.2098 18.2965C25.1464 18.3057 25.092 18.2965 25.074 18.2047C24.8113 17.6725 24.5849 17.1127 24.3133 16.5805C23.9604 16.2775 23.5891 15.9656 23.3719 15.5342C22.9826 14.8368 23.0187 13.9283 23.4533 13.2583C23.4894 13.2124 23.5166 13.1574 23.553 13.1115C23.6163 13.0197 23.7521 13.0381 23.7882 13.1482C23.8154 13.2308 23.8335 13.3134 23.8698 13.3868C24.3586 14.9377 24.8296 16.507 25.3364 18.058Z" fill="white" fill-opacity="0.4"/>
<path d="M25.4087 10.6703C25.3907 11.0833 25.2368 11.4687 25.1371 11.8633C25.128 11.8908 25.1191 11.9092 25.0919 11.9184C25.0285 11.9459 24.9652 11.9 24.9652 11.8358C24.9741 11.2943 25.1643 10.7621 25.0285 10.2298C24.8294 9.5048 24.3404 8.87159 24.3043 8.10071C24.286 7.69692 24.3857 7.3023 24.4673 6.90769C24.1774 6.29283 24.0416 5.58618 24.1955 4.91627C24.2227 4.83367 24.2318 4.83367 24.2771 4.89789C24.5578 5.31088 24.9289 5.72385 24.9289 6.26528C24.8927 7.03616 24.4762 7.80704 24.7569 8.57792C24.9833 9.2662 25.4721 9.90859 25.4087 10.6703Z" fill="white" fill-opacity="0.4"/>
<path d="M27.7978 8.00886C27.7798 9.01833 26.9106 9.82591 27.0102 10.8538C27.0102 11.2484 27.1097 11.6522 27.0644 12.0468C27.0011 12.3955 26.6118 12.4506 26.3313 12.5332C26.1682 12.6066 25.9872 12.4139 26.0324 12.2487C26.0324 11.0557 26.0324 9.85346 26.0324 8.66044C26.0505 8.16488 26.1682 7.64177 26.5032 7.26553C26.7114 7.01774 26.9286 6.76997 27.1549 6.52218C27.2002 6.4671 27.2274 6.40288 27.2185 6.33863C27.2002 6.11839 27.1549 5.92567 27.2546 5.6687C27.4085 5.34751 27.6079 5.15479 27.8159 4.94372C27.8522 4.90702 27.9064 4.92537 27.9156 4.97124C28.0605 5.62282 27.9156 6.32945 27.6168 6.91679C27.6892 7.26553 27.7978 7.6326 27.7978 8.00886Z" fill="white" fill-opacity="0.4"/>
<path d="M39.2329 4.31943C38.0016 4.66815 37.4312 5.09028 36.9424 5.4849C36.9424 5.4849 38.056 5.09028 39.6584 4.91594C44.2036 4.4112 44.466 6.12731 49.5544 4.13588C49.7263 4.10836 49.7715 4.24601 49.7263 4.31943C49.0473 5.51245 48.2958 6.83394 45.453 6.95323C42.3566 7.08173 40.745 5.82446 37.8386 6.20073C35.9827 6.43932 35.0229 7.02666 34.4887 7.38457C40.8264 6.15483 40.3013 8.98138 46.5121 7.47635C46.5846 7.45797 46.6662 7.43962 46.7387 7.4488C46.9015 7.46715 46.965 7.66907 46.8654 7.77919C46.8201 7.83424 46.7568 7.88931 46.7115 7.94436C45.8967 8.83453 45.0364 9.80731 42.1391 9.58706C38.735 9.3301 38.5178 7.19185 32.0171 8.82536C38.3185 8.79784 38.2099 10.8902 42.9542 10.2662C43.1172 10.2478 43.2166 10.4497 43.09 10.5598C43.0175 10.6241 42.9359 10.6791 42.8725 10.7342C42.1574 11.3032 41.1161 12.0006 39.1605 11.5968C35.0863 10.7342 35.6025 9.02726 30.3603 9.96333C34.4434 10.0735 34.1629 11.6794 38.3548 12.074C38.3548 12.074 38.3548 12.074 38.3637 12.074C38.5901 12.1016 38.6536 12.4044 38.4634 12.5329C38.3185 12.6339 38.1555 12.7073 38.0016 12.7715C34.9416 13.9737 33.52 10.0826 29.7627 10.9545C32.4517 11.193 32.2342 12.1107 34.6608 12.7807C34.9233 12.8541 34.8963 13.212 34.6064 13.2395C31.7274 13.5332 31.981 11.5693 30.2153 11.4959C29.7446 11.4775 29.31 11.7345 29.0745 12.1566C28.3775 13.3864 28.658 14.5519 28.6127 15.1851C28.7757 15.8458 29.0204 16.4883 29.0293 17.1856C29.0384 17.672 28.9931 18.1768 28.839 18.6448C28.5494 19.6175 28.2597 20.5905 27.9609 21.5724C27.8976 21.7742 27.9065 21.9944 27.979 22.1872C28.0876 22.4809 28.1964 22.7654 28.2417 23.0774C28.3503 23.6004 28.2778 24.1419 28.0967 24.6466C27.7165 25.5918 27.3361 26.5371 26.9559 27.4915C26.8834 27.6658 26.8293 27.8495 26.7024 27.9963C26.5124 28.033 26.5305 27.7853 26.5485 27.6658C26.9198 24.1326 27.2728 20.5995 27.6349 17.0663L27.9248 16.2221C27.3544 16.7176 27.1009 17.4058 26.7296 18.0208C26.6843 18.1675 26.4671 18.195 26.4219 18.03C26.458 17.4151 26.5394 16.8003 26.5577 16.1853C26.6118 15.5613 26.6029 14.9281 26.8112 14.3316C27.0465 13.7259 27.4991 13.2395 27.8523 12.7165C28.4316 11.9639 28.8662 11.1104 29.1651 10.2111C29.3461 9.66049 29.7266 9.1741 30.2153 8.87126C31.9085 7.78836 32.8952 6.85229 34.4978 5.62257C35.9735 4.49377 37.1143 3.61277 37.7664 3.34665C40.745 2.10774 46.7296 3.43843 51.854 0.0612673C51.9807 -0.0121558 52.1437 0.134666 52.0443 0.345735C51.5644 1.57548 50.994 2.36471 49.6357 3.04381C45.7246 4.99854 41.2338 3.75044 39.2329 4.31943Z" fill="white" fill-opacity="0.4"/>
<path d="M27.3542 6.43959C27.3542 6.43959 27.0191 5.84308 26.2043 5.76966C25.5886 5.71461 25.3081 5.92568 25.3081 5.92568C25.3081 5.92568 26.0504 5.70543 26.63 6.22852C27.2093 6.75161 26.8924 7.2013 26.8924 7.2013C26.8924 7.2013 27.5261 6.82503 27.3542 6.43959Z" fill="white" fill-opacity="0.4"/>
<path d="M27.3186 6.35689C27.3186 6.35689 26.8931 5.89805 26.0239 5.86133C26.0239 5.86133 26.5399 5.9898 26.6035 6.27429C26.7121 6.81575 26.2414 7.54073 26.1508 7.88947C26.0783 8.20149 27.3186 6.35689 27.3186 6.35689Z" fill="white" fill-opacity="0.4"/>
<path opacity="0.2" d="M103.787 18.5273C102.608 18.7246 101.415 18.8161 100.221 18.8008C97.9819 18.8008 95.5806 17.3051 95.5806 13.1288V10.6846C95.5806 6.25637 98.0979 4.99693 100.38 4.99693C101.521 4.98661 102.66 5.0719 103.787 5.25192C103.945 5.2706 104.092 5.34212 104.092 5.52559V6.43672C104.092 6.56421 104.022 6.62021 103.86 6.62021H103.79C102.732 6.53001 101.908 6.49269 100.383 6.49269C98.718 6.49269 97.2119 7.40384 97.2119 10.6846V13.1288C97.2119 16.1391 98.5563 17.3239 100.224 17.3239C101.315 17.3239 102.057 17.2524 102.479 17.2149V12C102.475 11.954 102.481 11.9076 102.495 11.8638C102.51 11.8201 102.533 11.7797 102.563 11.7454C102.593 11.711 102.63 11.6833 102.672 11.664C102.713 11.6447 102.757 11.6342 102.803 11.6331H103.771C103.863 11.6379 103.95 11.6787 104.013 11.7471C104.077 11.8155 104.111 11.9061 104.11 12V18.1261C104.113 18.2216 104.082 18.3148 104.022 18.3886C103.963 18.4623 103.879 18.5116 103.787 18.5273Z" fill="white" fill-opacity="0.4"/>
<path opacity="0.2" d="M110.788 9.9197C109.954 9.88603 109.119 9.94758 108.298 10.1032V18.3097C108.303 18.3987 108.274 18.4859 108.217 18.5534C108.16 18.6212 108.08 18.6642 107.993 18.6734H107.061C106.971 18.6687 106.886 18.6277 106.825 18.5597C106.765 18.4914 106.733 18.4017 106.737 18.3097V9.44701C106.742 9.35544 106.775 9.26762 106.83 9.19497C106.885 9.12232 106.96 9.0682 107.046 9.03965C108.066 8.58254 109.304 8.52966 110.788 8.52966C111.023 8.52966 111.167 8.54831 111.167 8.80331V9.63983C111.167 9.82953 111.13 9.9197 110.788 9.9197Z" fill="white" fill-opacity="0.4"/>
<path opacity="0.2" d="M116.733 18.8009C114.1 18.8009 112.762 17.0317 112.762 14.351V12.9641C112.762 10.2835 114.106 8.51721 116.733 8.51721C119.361 8.51721 120.705 10.2835 120.705 12.9641V14.351C120.705 17.0317 119.352 18.8009 116.733 18.8009ZM119.153 12.9641C119.153 11.0983 118.417 9.9197 116.733 9.9197C115.05 9.9197 114.332 11.0889 114.332 12.9641V14.351C114.332 16.2167 115.05 17.3985 116.733 17.3985C118.417 17.3985 119.153 16.2292 119.153 14.351V12.9641Z" fill="white" fill-opacity="0.4"/>
<path opacity="0.2" d="M126.681 18.8004H126.51C125.287 18.8004 122.819 18.1069 122.819 14.5153V9.00801C122.815 8.96161 122.821 8.91491 122.836 8.87089C122.851 8.82684 122.874 8.78644 122.905 8.75221C122.936 8.71801 122.974 8.69074 123.016 8.67214C123.058 8.65354 123.103 8.64402 123.149 8.64417H124.081C124.126 8.64487 124.171 8.65502 124.212 8.67399C124.253 8.69297 124.29 8.72036 124.32 8.75449C124.351 8.78861 124.374 8.82874 124.388 8.87233C124.403 8.91596 124.408 8.96213 124.405 9.00801V14.5153C124.405 16.6922 125.321 17.3979 126.519 17.3979H126.681C127.878 17.3979 128.795 16.7044 128.795 14.5153V9.00801C128.791 8.96238 128.796 8.91646 128.811 8.87306C128.825 8.82966 128.848 8.78969 128.878 8.75561C128.908 8.72154 128.945 8.69407 128.985 8.67492C129.026 8.65574 129.071 8.64529 129.116 8.64417H130.047C130.093 8.64487 130.137 8.65502 130.178 8.67399C130.219 8.69297 130.257 8.72036 130.287 8.75449C130.317 8.78861 130.34 8.82874 130.355 8.87233C130.369 8.91596 130.375 8.96213 130.371 9.00801V14.5153C130.371 18.1069 127.897 18.8004 126.681 18.8004Z" fill="white" fill-opacity="0.4"/>
<path opacity="0.2" d="M136.479 18.8006C135.776 18.7911 135.076 18.7246 134.383 18.6016V21.901C134.383 21.9465 134.375 21.9913 134.358 22.0333C134.341 22.075 134.316 22.113 134.284 22.1453C134.252 22.1773 134.215 22.2028 134.174 22.22C134.133 22.2373 134.089 22.2463 134.044 22.2463H133.128C133.084 22.2458 133.041 22.2365 133.001 22.219C132.961 22.2013 132.924 22.1755 132.894 22.1433C132.864 22.1113 132.84 22.073 132.825 22.0315C132.809 21.99 132.802 21.9455 132.804 21.901V9.3503C132.804 9.11398 132.859 9.00513 133.18 8.93361C134.259 8.66714 135.365 8.52632 136.476 8.51379C139.146 8.51379 140.384 10.2801 140.384 13.0166V14.3258C140.387 17.1961 139.094 18.8006 136.479 18.8006ZM138.807 13.0197C138.807 11.1042 138.254 9.86651 136.479 9.86651C135.777 9.87066 135.076 9.93096 134.383 10.0469V17.2676C135.076 17.3834 135.777 17.4449 136.479 17.4511C138.236 17.4511 138.807 16.2849 138.807 14.3414V13.0197Z" fill="white" fill-opacity="0.4"/>
<path d="M72.6023 18.6514C71.7957 18.7789 69.547 18.9406 68.7681 18.9406C65.3098 18.9406 62.9634 18.0574 62.9634 13.6355V5.57516C62.9641 5.52846 62.974 5.48241 62.9926 5.43967C63.0111 5.39694 63.0376 5.35837 63.071 5.32624C63.1041 5.29409 63.1435 5.26902 63.1862 5.2525C63.2293 5.23597 63.275 5.22832 63.3208 5.22997H66.2416C66.2873 5.2279 66.3334 5.23525 66.3764 5.25162C66.4194 5.268 66.459 5.29302 66.4924 5.32524C66.5256 5.35747 66.5523 5.39622 66.5706 5.43914C66.5889 5.48209 66.5985 5.52834 66.599 5.57516V13.6355C66.599 15.2775 67.1368 15.8123 68.4107 15.8123C68.9858 15.8104 69.5601 15.773 70.1308 15.7004V5.57516C70.131 5.52834 70.1407 5.48209 70.159 5.43914C70.1773 5.39622 70.204 5.35747 70.2374 5.32524C70.2708 5.29302 70.3101 5.268 70.3531 5.25162C70.3962 5.23525 70.4422 5.2279 70.4882 5.22997H73.3904C73.4852 5.22572 73.5774 5.25957 73.6479 5.32414C73.7182 5.38874 73.7607 5.47892 73.7662 5.57516V17.2459C73.7662 18.2659 73.4607 18.5239 72.6023 18.6514Z" fill="white" fill-opacity="0.4"/>
<path d="M79.3902 18.7789H76.4511C76.3571 18.7766 76.2678 18.7369 76.202 18.6681C76.1365 18.5996 76.0996 18.5076 76.0996 18.4121V5.57513C76.1006 5.52898 76.1102 5.48346 76.1283 5.44113C76.1464 5.39881 76.1726 5.36051 76.2052 5.32846C76.2379 5.29641 76.2762 5.27121 76.3185 5.25431C76.3606 5.23741 76.4058 5.22914 76.4511 5.22996H79.3902C79.4359 5.22786 79.482 5.23522 79.525 5.25159C79.568 5.26796 79.6076 5.29301 79.6408 5.32524C79.6741 5.35744 79.7009 5.39619 79.7192 5.43913C79.7375 5.48206 79.7471 5.52833 79.7476 5.57513V18.4121C79.7479 18.4601 79.739 18.5076 79.7211 18.5521C79.7033 18.5966 79.6771 18.6371 79.644 18.6714C79.6106 18.7054 79.5713 18.7324 79.5275 18.7509C79.4839 18.7694 79.4372 18.7789 79.3902 18.7789Z" fill="white" fill-opacity="0.4"/>
<path d="M89.7821 18.6143C88.967 18.8508 88.1213 18.9611 87.2739 18.9408C83.9774 18.9408 81.7563 17.1186 81.7563 12.9422V11.0764C81.7563 6.88763 83.9774 5.06536 87.2739 5.06536C88.1213 5.04683 88.9665 5.15688 89.7821 5.39187C90.0692 5.48517 90.1763 5.53802 90.1763 5.79304V8.12843C90.1763 8.36474 90.0692 8.47359 89.8709 8.47359H89.8157C88.9831 8.37457 88.1458 8.3206 87.3075 8.3119C86.3391 8.3119 85.4744 8.74726 85.4744 11.064V12.9298C85.4744 15.2279 86.3359 15.685 87.3075 15.685C88.1458 15.6754 88.9831 15.6204 89.8157 15.5202H89.8493C90.0633 15.5202 90.1548 15.629 90.1548 15.8654V18.2131C90.1763 18.4496 90.0692 18.5241 89.7821 18.6143Z" fill="white" fill-opacity="0.4"/>
</svg>
