<svg width="20" height="20" viewBox="0 0 20 20" fill="none" xmlns="http://www.w3.org/2000/svg">
<path fill-rule="evenodd" clip-rule="evenodd" d="M4.99992 3.83301C4.6905 3.83301 4.39375 3.95592 4.17496 4.17472C3.95617 4.39351 3.83325 4.69026 3.83325 4.99967V6.66634C3.83325 6.94248 3.60939 7.16634 3.33325 7.16634C3.05711 7.16634 2.83325 6.94248 2.83325 6.66634V4.99967C2.83325 4.42504 3.06152 3.87394 3.46785 3.46761C3.87418 3.06128 4.42528 2.83301 4.99992 2.83301H6.66659C6.94273 2.83301 7.16658 3.05687 7.16658 3.33301C7.16658 3.60915 6.94273 3.83301 6.66659 3.83301H4.99992ZM12.8333 3.33301C12.8333 3.05687 13.0571 2.83301 13.3333 2.83301H14.9999C15.5746 2.83301 16.1257 3.06128 16.532 3.46761C16.9383 3.87394 17.1666 4.42504 17.1666 4.99967V6.66634C17.1666 6.94248 16.9427 7.16634 16.6666 7.16634C16.3904 7.16634 16.1666 6.94248 16.1666 6.66634V4.99967C16.1666 4.69026 16.0437 4.39351 15.8249 4.17472C15.6061 3.95592 15.3093 3.83301 14.9999 3.83301H13.3333C13.0571 3.83301 12.8333 3.60915 12.8333 3.33301ZM9.73492 5.82568C9.89705 5.72434 10.1028 5.72434 10.2649 5.82568L13.5983 7.90901C13.7444 8.00038 13.8333 8.16061 13.8333 8.33301V12.083C13.8333 12.2554 13.7444 12.4156 13.5983 12.507L10.2649 14.5903C10.1028 14.6917 9.89705 14.6917 9.73492 14.5903L6.40159 12.507C6.2554 12.4156 6.16659 12.2554 6.16659 12.083V8.33301C6.16659 8.16061 6.2554 8.00038 6.40159 7.90901L9.73492 5.82568ZM7.16658 9.23513V11.8059L9.49992 13.2642V10.6935L7.16658 9.23513ZM10.4999 10.6935V13.2642L12.8333 11.8059V9.23513L10.4999 10.6935ZM12.3899 8.33301L9.99992 9.82672L7.60998 8.33301L9.99992 6.8393L12.3899 8.33301ZM3.33325 12.833C3.60939 12.833 3.83325 13.0569 3.83325 13.333V14.9997C3.83325 15.3091 3.95617 15.6058 4.17496 15.8246C4.39375 16.0434 4.6905 16.1663 4.99992 16.1663H6.66659C6.94273 16.1663 7.16658 16.3902 7.16658 16.6663C7.16658 16.9425 6.94273 17.1663 6.66659 17.1663H4.99992C4.42528 17.1663 3.87418 16.9381 3.46785 16.5317C3.06153 16.1254 2.83325 15.5743 2.83325 14.9997V13.333C2.83325 13.0569 3.05711 12.833 3.33325 12.833ZM16.6666 12.833C16.9427 12.833 17.1666 13.0569 17.1666 13.333V14.9997C17.1666 15.5743 16.9383 16.1254 16.532 16.5317C16.1257 16.9381 15.5746 17.1663 14.9999 17.1663H13.3333C13.0571 17.1663 12.8333 16.9425 12.8333 16.6663C12.8333 16.3902 13.0571 16.1663 13.3333 16.1663H14.9999C15.3093 16.1663 15.6061 16.0434 15.8249 15.8246C16.0437 15.6058 16.1666 15.3091 16.1666 14.9997V13.333C16.1666 13.0569 16.3904 12.833 16.6666 12.833Z" fill="black"/>
<path fill-rule="evenodd" clip-rule="evenodd" d="M4.99992 3.83301C4.6905 3.83301 4.39375 3.95592 4.17496 4.17472C3.95617 4.39351 3.83325 4.69026 3.83325 4.99967V6.66634C3.83325 6.94248 3.60939 7.16634 3.33325 7.16634C3.05711 7.16634 2.83325 6.94248 2.83325 6.66634V4.99967C2.83325 4.42504 3.06152 3.87394 3.46785 3.46761C3.87418 3.06128 4.42528 2.83301 4.99992 2.83301H6.66659C6.94273 2.83301 7.16658 3.05687 7.16658 3.33301C7.16658 3.60915 6.94273 3.83301 6.66659 3.83301H4.99992ZM12.8333 3.33301C12.8333 3.05687 13.0571 2.83301 13.3333 2.83301H14.9999C15.5746 2.83301 16.1257 3.06128 16.532 3.46761C16.9383 3.87394 17.1666 4.42504 17.1666 4.99967V6.66634C17.1666 6.94248 16.9427 7.16634 16.6666 7.16634C16.3904 7.16634 16.1666 6.94248 16.1666 6.66634V4.99967C16.1666 4.69026 16.0437 4.39351 15.8249 4.17472C15.6061 3.95592 15.3093 3.83301 14.9999 3.83301H13.3333C13.0571 3.83301 12.8333 3.60915 12.8333 3.33301ZM9.73492 5.82568C9.89705 5.72434 10.1028 5.72434 10.2649 5.82568L13.5983 7.90901C13.7444 8.00038 13.8333 8.16061 13.8333 8.33301V12.083C13.8333 12.2554 13.7444 12.4156 13.5983 12.507L10.2649 14.5903C10.1028 14.6917 9.89705 14.6917 9.73492 14.5903L6.40159 12.507C6.2554 12.4156 6.16659 12.2554 6.16659 12.083V8.33301C6.16659 8.16061 6.25539 8.00038 6.40159 7.90901L9.73492 5.82568ZM7.16658 9.23513V11.8059L9.49992 13.2642V10.6935L7.16658 9.23513ZM10.4999 10.6935V13.2642L12.8333 11.8059V9.23513L10.4999 10.6935ZM12.3899 8.33301L9.99992 9.82672L7.60998 8.33301L9.99992 6.8393L12.3899 8.33301ZM3.33325 12.833C3.60939 12.833 3.83325 13.0569 3.83325 13.333V14.9997C3.83325 15.3091 3.95617 15.6058 4.17496 15.8246C4.39375 16.0434 4.6905 16.1663 4.99992 16.1663H6.66659C6.94273 16.1663 7.16658 16.3902 7.16658 16.6663C7.16658 16.9425 6.94273 17.1663 6.66659 17.1663H4.99992C4.42528 17.1663 3.87418 16.9381 3.46785 16.5317C3.06152 16.1254 2.83325 15.5743 2.83325 14.9997V13.333C2.83325 13.0569 3.05711 12.833 3.33325 12.833ZM16.6666 12.833C16.9427 12.833 17.1666 13.0569 17.1666 13.333V14.9997C17.1666 15.5743 16.9383 16.1254 16.532 16.5317C16.1257 16.9381 15.5746 17.1663 14.9999 17.1663H13.3333C13.0571 17.1663 12.8333 16.9425 12.8333 16.6663C12.8333 16.3902 13.0571 16.1663 13.3333 16.1663H14.9999C15.3093 16.1663 15.6061 16.0434 15.8249 15.8246C16.0437 15.6058 16.1666 15.3091 16.1666 14.9997V13.333C16.1666 13.0569 16.3904 12.833 16.6666 12.833Z" fill="black"/>
</svg>
