<svg width="32" height="32" viewBox="0 0 32 32" fill="none" xmlns="http://www.w3.org/2000/svg">
<path d="M25.9945 18.6443L28.6158 23.1857C28.7237 23.3726 28.7846 23.583 28.7933 23.7987C28.802 24.0144 28.7583 24.229 28.6659 24.4241C28.5735 24.6191 28.4351 24.7889 28.2626 24.9188C28.0902 25.0486 27.8888 25.1347 27.6758 25.1697L27.5252 25.1843L27.3758 25.183L23.4652 24.9297L21.7278 28.4443C21.6335 28.6346 21.4951 28.7997 21.3242 28.9258C21.1532 29.0518 20.9547 29.1353 20.745 29.1692C20.5353 29.2031 20.3206 29.1865 20.1186 29.1207C19.9167 29.0549 19.7333 28.9419 19.5838 28.791L19.4745 28.6657L19.3785 28.519L16.7545 23.9763C18.6017 23.8609 20.397 23.3194 22 22.3944C23.6031 21.4694 24.9702 20.1858 25.9945 18.6443Z" fill="black"/>
<path d="M15.2398 23.9763L12.6185 28.5203C12.5123 28.7044 12.3636 28.8605 12.1849 28.9755C12.0062 29.0906 11.8026 29.1613 11.591 29.1818C11.3795 29.2022 11.1661 29.1719 10.9687 29.0933C10.7712 29.0146 10.5954 28.89 10.4558 28.7297L10.3545 28.5963L10.2692 28.4443L8.53048 24.931L4.62248 25.1843C4.40722 25.1982 4.1918 25.1596 3.99468 25.072C3.79757 24.9844 3.62463 24.8503 3.49067 24.6812C3.35672 24.5121 3.26574 24.3131 3.22554 24.1012C3.18533 23.8892 3.19709 23.6707 3.25982 23.4643L3.31315 23.3217L3.37982 23.1883L6.00382 18.643C7.02738 20.1845 8.39378 21.4682 9.99608 22.3937C11.5984 23.3192 13.3931 23.86 15.2398 23.9763Z" fill="black"/>
<path d="M15.9998 2.66699L16.3198 2.67233C18.7384 2.7553 21.0301 3.77441 22.7117 5.51469C24.3933 7.25497 25.3332 9.58035 25.3331 12.0003L25.3291 12.2577L25.3198 12.5137L25.2958 12.8403L25.2611 13.163L25.2292 13.4003C25.1414 13.9759 24.9999 14.5419 24.8065 15.091L24.6518 15.5017L24.4478 15.9657C23.693 17.5736 22.495 18.9329 20.9946 19.8837C19.4942 20.8346 17.7536 21.3376 15.9773 21.3337C14.2009 21.3297 12.4626 20.8191 10.9664 19.8616C9.47017 18.9041 8.27821 17.5396 7.53048 15.9283L7.35715 15.5323L7.28782 15.355L7.18115 15.0657L7.05448 14.6737C7.00924 14.5219 6.9679 14.3689 6.93048 14.215L6.85048 13.8537L6.78515 13.4923L6.75848 13.307L6.70648 12.8763L6.67448 12.3897L6.66648 12.0003C6.66644 9.58035 7.60634 7.25497 9.28792 5.51469C10.9695 3.77441 13.2613 2.7553 15.6798 2.67233L15.9998 2.66699Z" fill="black"/>
</svg>
