<svg width="24" height="24" viewBox="0 0 24 24" fill="none" xmlns="http://www.w3.org/2000/svg">
<path fill-rule="evenodd" clip-rule="evenodd" d="M8.5 4C7.83696 4 7.20107 4.26339 6.73223 4.73223C6.26339 5.20107 6 5.83696 6 6.5V8.02785C6.16523 8.00938 6.33213 8 6.5 8H7C7.55228 8 8 8.44772 8 9C8 9.55228 7.55228 10 7 10H6.5C5.83696 10 5.20107 10.2634 4.73223 10.7322C4.26339 11.2011 4 11.837 4 12.5C4 13.163 4.26339 13.7989 4.73223 14.2678C5.20107 14.7366 5.83696 15 6.5 15C7.05228 15 7.5 15.4477 7.5 16C7.5 16.5523 7.05228 17 6.5 17C6.33213 17 6.16523 16.9906 6 16.9722V17.5C6 18.163 6.26339 18.7989 6.73223 19.2678C7.20107 19.7366 7.83696 20 8.5 20C9.16304 20 9.79893 19.7366 10.2678 19.2678C10.7366 18.7989 11 18.163 11 17.5V16.5C11 15.837 10.7366 15.2011 10.2678 14.7322C9.79893 14.2634 9.16304 14 8.5 14C7.94772 14 7.5 13.5523 7.5 13C7.5 12.4477 7.94772 12 8.5 12C9.39649 12 10.2654 12.2675 11 12.7583V6.5C11 5.83696 10.7366 5.20107 10.2678 4.73223C9.79893 4.26339 9.16304 4 8.5 4ZM12 3.67155C11.9008 3.54875 11.7947 3.4307 11.682 3.31802C10.8381 2.47411 9.69347 2 8.5 2C7.30653 2 6.16193 2.47411 5.31802 3.31802C4.47411 4.16193 4 5.30653 4 6.5V8.75832C3.75664 8.92092 3.52802 9.10802 3.31802 9.31802C2.47411 10.1619 2 11.3065 2 12.5C2 13.6935 2.47411 14.8381 3.31802 15.682C3.52802 15.892 3.75664 16.0791 4 16.2417V17.5C4 18.6935 4.47411 19.8381 5.31802 20.682C6.16193 21.5259 7.30653 22 8.5 22C9.69347 22 10.8381 21.5259 11.682 20.682C11.7947 20.5693 11.9008 20.4513 12 20.3284C12.0993 20.4513 12.2053 20.5693 12.318 20.682C13.1619 21.5259 14.3065 22 15.5 22C16.6935 22 17.8381 21.5259 18.682 20.682C19.5259 19.8381 20 18.6935 20 17.5V16.2417C20.2434 16.0791 20.472 15.892 20.682 15.682C21.5259 14.8381 22 13.6935 22 12.5C22 11.3065 21.5259 10.1619 20.682 9.31802C20.472 9.10802 20.2434 8.92092 20 8.75832V6.5C20 5.30653 19.5259 4.16193 18.682 3.31802C17.8381 2.47411 16.6935 2 15.5 2C14.3065 2 13.1619 2.47411 12.318 3.31802C12.2053 3.4307 12.0993 3.54875 12 3.67155ZM18 8.02785V6.5C18 5.83696 17.7366 5.20107 17.2678 4.73223C16.7989 4.26339 16.163 4 15.5 4C14.837 4 14.2011 4.26339 13.7322 4.73223C13.2634 5.20107 13 5.83696 13 6.5V12.7583C13.7346 12.2675 14.6035 12 15.5 12C16.0523 12 16.5 12.4477 16.5 13C16.5 13.5523 16.0523 14 15.5 14C14.837 14 14.2011 14.2634 13.7322 14.7322C13.2634 15.2011 13 15.837 13 16.5V17.5C13 18.163 13.2634 18.7989 13.7322 19.2678C14.2011 19.7366 14.837 20 15.5 20C16.163 20 16.7989 19.7366 17.2678 19.2678C17.7366 18.7989 18 18.163 18 17.5V16.9722C17.8348 16.9906 17.6679 17 17.5 17C16.9477 17 16.5 16.5523 16.5 16C16.5 15.4477 16.9477 15 17.5 15C18.163 15 18.7989 14.7366 19.2678 14.2678C19.7366 13.7989 20 13.163 20 12.5C20 11.837 19.7366 11.2011 19.2678 10.7322C18.7989 10.2634 18.163 10 17.5 10H17C16.4477 10 16 9.55228 16 9C16 8.44772 16.4477 8 17 8H17.5C17.6679 8 17.8348 8.00938 18 8.02785Z" fill="black"/>
</svg>
