<svg width="20" height="20" viewBox="0 0 20 20" fill="none" xmlns="http://www.w3.org/2000/svg">
<path fill-rule="evenodd" clip-rule="evenodd" d="M10.465 4.16154C10.7385 2.94055 11.4733 2 12.465 2C12.4674 2 12.4697 2 12.4721 2.00001C12.4742 2 12.4762 2 12.4783 2C13.3608 2 13.9118 2.59177 14.2105 3.06742C14.2321 3.10186 14.2528 3.13622 14.2726 3.17034C14.3555 3.11435 14.4446 3.06741 14.5393 3.03018C14.714 2.96148 14.8956 2.93051 15.0764 2.93105C15.312 2.931 15.5464 2.98478 15.7628 3.07847C16.4979 3.39687 17.0992 4.19589 17.1617 5.27546C17.1642 5.31934 17.1659 5.36369 17.1666 5.40849C17.1693 5.5756 17.1577 5.73691 17.1335 5.89209C17.0304 6.55566 16.6978 7.11077 16.2652 7.56167C15.7383 8.11075 15.05 8.52132 14.3927 8.82396C13.7312 9.12852 13.0733 9.33636 12.584 9.46788C12.3385 9.5339 12.1331 9.58128 11.9881 9.61236C11.9156 9.6279 11.858 9.6394 11.8178 9.64712L11.771 9.65593L11.7579 9.65829L11.7541 9.65896L11.7529 9.65918C11.7528 9.65918 11.7524 9.65927 11.7518 9.65638L11.7529 9.65918C11.7211 9.66469 11.6886 9.6672 11.6573 9.66662C11.6552 9.66665 11.653 9.66667 11.6508 9.66667C11.432 9.66667 11.243 9.52551 11.1761 9.32626C10.3165 7.18939 10.1816 5.4269 10.465 4.16154ZM15.0762 3.93116C15.1597 3.93154 15.2563 3.95052 15.3624 3.99633C15.7376 4.15831 16.1538 4.63592 16.1667 5.42484M14.1497 4.66665C14.369 4.66829 14.5644 4.52656 14.6303 4.31654C14.7018 4.08902 14.8162 3.99831 14.9117 3.96063C14.9577 3.9425 15.013 3.93143 15.0762 3.93116M13.6611 4.28939C13.6611 4.28929 13.6612 4.2895 13.6611 4.28939C13.6612 4.28966 13.6613 4.29023 13.6614 4.29049C13.7166 4.50658 13.9084 4.66003 14.1314 4.66646M12.4732 3.00004C12.8458 3.00352 13.1312 3.24511 13.355 3.6C13.4634 3.77203 13.5416 3.94804 13.5928 4.08325C13.618 4.15005 13.636 4.20487 13.6472 4.24157C13.6529 4.25988 13.6568 4.27353 13.659 4.28174L13.6611 4.28939M11.979 8.5858C11.3095 6.75838 11.2487 5.33344 11.4612 4.37953C11.6985 3.31416 12.2062 3.00398 12.4732 3.00004M11.979 8.5858C12.0764 8.56277 12.1881 8.53497 12.3109 8.50206C12.7679 8.37964 13.3707 8.18899 13.967 7.91535C14.5675 7.63978 15.1341 7.29242 15.5419 6.86873C15.9426 6.4525 16.1753 5.97972 16.1667 5.42484M7.78039 3.96417C8.35741 4.60607 8.76809 5.42584 9.05249 6.15498L9.05552 6.16276L9.17879 6.49528L9.18409 6.51031L9.29477 6.8406L9.3899 7.15076L9.46917 7.43395L9.53479 7.68806L9.60213 7.97977L9.60523 7.99414L9.65416 8.23798C9.66239 8.27408 9.66667 8.31134 9.66667 8.34917C9.66667 8.5677 9.52579 8.75681 9.32638 8.82389C7.18946 9.68351 5.42693 9.81844 4.16154 9.53499C2.94055 9.26149 2 8.52671 2 7.535C2 6.59526 2.66004 6.03235 3.17496 5.73426C3.11693 5.64937 3.06843 5.55795 3.03018 5.46068C2.87247 5.05961 2.91363 4.62246 3.07825 4.24118C3.40919 3.47468 4.26075 2.85217 5.40849 2.8334C6.41337 2.81802 7.19766 3.31593 7.78039 3.96417ZM3.84946 6.50822C3.3887 6.72882 3 7.0642 3 7.535C3 7.80412 3.30945 8.31934 4.38013 8.55917C5.3341 8.77286 6.75985 8.71175 8.58887 8.03668L8.56182 7.91981L8.5022 7.6893L8.42858 7.4268L8.34057 7.14039L8.23844 6.83558L8.11934 6.51451C7.85555 5.83903 7.49838 5.14629 7.0367 4.6327C6.57991 4.12456 6.05294 3.82375 5.42461 3.83327C4.63583 3.84625 4.15829 4.26244 3.99633 4.63757C3.91449 4.82712 3.91826 4.98653 3.96081 5.09473C3.99876 5.19123 4.08975 5.30576 4.3168 5.37724C4.5259 5.44306 4.66773 5.63741 4.66666 5.85662C4.66559 6.07583 4.52185 6.26877 4.31212 6.33254L4.19949 6.36679L4.07801 6.40975C4.05815 6.41724 4.03836 6.42494 4.01867 6.43285L3.84946 6.50822ZM15.8385 10.465C17.0594 10.7385 18 11.4733 18 12.465C18 13.4051 17.3388 13.968 16.8251 14.2659C16.8831 14.3507 16.9316 14.4421 16.9698 14.5393C17.1275 14.9404 17.0864 15.3775 16.9218 15.7588C16.5908 16.5253 15.7393 17.1478 14.5915 17.1666C13.5454 17.183 12.7399 16.6438 12.1503 15.9578C11.5656 15.2775 11.1571 14.4154 10.8811 13.6693L10.8787 13.6629L10.7584 13.3235L10.7053 13.1594L10.6101 12.8492L10.5308 12.5661L10.4652 12.3119L10.3979 12.0202L10.3948 12.0059L10.3458 11.762C10.3376 11.7259 10.3333 11.6887 10.3333 11.6508C10.3333 11.4323 10.4742 11.2432 10.6736 11.1761C12.8105 10.3165 14.5731 10.1816 15.8385 10.465ZM11.4111 11.9633L11.4382 12.0802L11.4978 12.3107L11.5714 12.5732L11.6601 12.8619L11.7077 13.0084L11.8201 13.3255C12.0773 14.0201 12.4355 14.7554 12.9087 15.306C13.3776 15.8515 13.9223 16.1769 14.5752 16.1667C15.3641 16.1538 15.8417 15.7376 16.0037 15.3624C16.0855 15.1729 16.0817 15.0135 16.0392 14.9053C16.0012 14.8088 15.9103 14.6942 15.6832 14.6228C15.4741 14.5569 15.3323 14.3626 15.3333 14.1434C15.3344 13.9242 15.4781 13.7312 15.6879 13.6675L15.801 13.6331L15.9215 13.5907C15.941 13.5832 15.9604 13.5755 15.9797 13.5676L16.1518 13.4916C16.6112 13.2706 17 12.9354 17 12.465C17 12.1959 16.6906 11.6807 15.6199 11.4408C14.6659 11.2271 13.2401 11.2883 11.4111 11.9633ZM8.23798 10.3458C8.27408 10.3376 8.31134 10.3333 8.34917 10.3333C8.5677 10.3333 8.75681 10.4742 8.82389 10.6736C9.68351 12.8105 9.81844 14.5731 9.53499 15.8385C9.26149 17.0594 8.52671 18 7.535 18C6.59494 18 6.03196 17.3388 5.73415 16.8251C5.64929 16.8831 5.55791 16.9316 5.46068 16.9698C5.05961 17.1275 4.62246 17.0864 4.24118 16.9218C3.47468 16.5908 2.85217 15.7393 2.8334 14.5915C2.81698 13.545 3.35617 12.7395 4.04226 12.1499C4.72258 11.5654 5.58466 11.157 6.33069 10.8811L6.33705 10.8787L6.67646 10.7584L6.84063 10.7053L7.15076 10.6101L7.43395 10.5308L7.68806 10.4652L7.97977 10.3979L7.99414 10.3948L8.23798 10.3458ZM8.03668 11.4111L7.91983 11.4382L7.6893 11.4978L7.42681 11.5714L7.1381 11.6601L6.99157 11.7077L6.67451 11.8201C5.97979 12.0774 5.24451 12.4353 4.69399 12.9084C4.1485 13.3771 3.82313 13.9218 3.83327 14.5752C3.84617 15.3641 4.26241 15.8417 4.63757 16.0037C4.82713 16.0855 4.98653 16.0817 5.09473 16.0392C5.19123 16.0012 5.30576 15.9103 5.37724 15.6832C5.44306 15.4741 5.63741 15.3323 5.85662 15.3333C6.07583 15.3344 6.26877 15.4781 6.33254 15.6879L6.36693 15.801L6.40833 15.9188L6.43365 15.9824L6.50843 16.1518C6.72936 16.6112 7.06459 17 7.535 17C7.80412 17 8.31934 16.6906 8.55917 15.6199C8.77286 14.6659 8.71175 13.2401 8.03668 11.4111Z" fill="black"/>
</svg>
