<svg width="20" height="20" viewBox="0 0 20 20" fill="none" xmlns="http://www.w3.org/2000/svg">
<path fill-rule="evenodd" clip-rule="evenodd" d="M8.33331 3.5C8.15649 3.5 7.98693 3.57024 7.8619 3.69526C7.73688 3.82029 7.66664 3.98986 7.66664 4.16667V4.83333H12.3333V4.16667C12.3333 3.98986 12.2631 3.82029 12.138 3.69526C12.013 3.57024 11.8434 3.5 11.6666 3.5H8.33331ZM14.3333 4.83333V4.16667C14.3333 3.45942 14.0524 2.78115 13.5523 2.28105C13.0522 1.78095 12.3739 1.5 11.6666 1.5H8.33331C7.62606 1.5 6.94779 1.78095 6.44769 2.28105C5.94759 2.78115 5.66664 3.45942 5.66664 4.16667V4.83333H4.16664C3.4594 4.83333 2.78112 5.11428 2.28102 5.61438C1.78092 6.11448 1.49997 6.79276 1.49997 7.5V10.8118C1.49968 10.8256 1.49968 10.8395 1.49997 10.8533V15C1.49997 15.7072 1.78092 16.3855 2.28102 16.8856C2.78112 17.3857 3.45939 17.6667 4.16664 17.6667H15.8333C16.5406 17.6667 17.2188 17.3857 17.7189 16.8856C18.219 16.3855 18.5 15.7072 18.5 15V10.8533C18.5003 10.8395 18.5003 10.8256 18.5 10.8118V7.5C18.5 6.79276 18.219 6.11448 17.7189 5.61438C17.2188 5.11428 16.5405 4.83333 15.8333 4.83333H14.3333ZM4.16664 6.83333C3.98983 6.83333 3.82026 6.90357 3.69523 7.0286C3.57021 7.15362 3.49997 7.32319 3.49997 7.5V10.2042C5.53842 11.1337 7.75487 11.6162 9.99997 11.6162C12.2451 11.6162 14.4615 11.1337 16.5 10.2042V7.5C16.5 7.32319 16.4297 7.15362 16.3047 7.0286C16.1797 6.90357 16.0101 6.83333 15.8333 6.83333H4.16664ZM16.5 12.377C14.4351 13.194 12.2301 13.6162 9.99997 13.6162C7.76986 13.6162 5.56483 13.194 3.49997 12.377V15C3.49997 15.1768 3.57021 15.3464 3.69523 15.4714C3.82026 15.5964 3.98983 15.6667 4.16664 15.6667H15.8333C16.0101 15.6667 16.1797 15.5964 16.3047 15.4714C16.4297 15.3464 16.5 15.1768 16.5 15V12.377ZM9.99997 9C10.5523 9 11 9.44772 11 10V10.0083C11 10.5606 10.5523 11.0083 9.99997 11.0083C9.44769 11.0083 8.99997 10.5606 8.99997 10.0083V10C8.99997 9.44772 9.44769 9 9.99997 9Z" fill="black"/>
</svg>
