<svg width="16" height="16" viewBox="0 0 16 16" fill="none" xmlns="http://www.w3.org/2000/svg">
<path fill-rule="evenodd" clip-rule="evenodd" d="M4.66672 1.2998C5.05332 1.2998 5.36672 1.61321 5.36672 1.9998V2.63314H10.6334V1.9998C10.6334 1.61321 10.9468 1.2998 11.3334 1.2998C11.72 1.2998 12.0334 1.61321 12.0334 1.9998V2.63318C12.3255 2.6335 12.5824 2.63589 12.7995 2.65363C13.0651 2.67533 13.3321 2.72344 13.5898 2.85476C13.9724 3.0497 14.2835 3.36076 14.4784 3.74336C14.6098 4.00109 14.6579 4.26811 14.6796 4.53374C14.7001 4.78484 14.7001 5.08923 14.7001 5.4398V11.8931C14.7001 12.2437 14.7001 12.5481 14.6796 12.7992C14.6579 13.0648 14.6098 13.3319 14.4784 13.5896C14.2835 13.9722 13.9724 14.2832 13.5898 14.4782C13.3321 14.6095 13.0651 14.6576 12.7995 14.6793C12.5483 14.6998 12.244 14.6998 11.8934 14.6998H4.10671C3.75614 14.6998 3.45176 14.6998 3.20065 14.6793C2.93503 14.6576 2.668 14.6095 2.41027 14.4782C2.02767 14.2832 1.71661 13.9722 1.52167 13.5896C1.39035 13.3319 1.34224 13.0648 1.32054 12.7992C1.30003 12.5481 1.30004 12.2437 1.30005 11.8932V5.43976C1.30004 5.08921 1.30003 4.78484 1.32054 4.53374C1.34224 4.26811 1.39035 4.00109 1.52167 3.74336C1.71661 3.36076 2.02767 3.0497 2.41027 2.85476C2.668 2.72344 2.93503 2.67533 3.20065 2.65363C3.41772 2.63589 3.6746 2.6335 3.96672 2.63318V1.9998C3.96672 1.61321 4.28012 1.2998 4.66672 1.2998ZM4.13338 4.03314C3.74846 4.03314 3.50187 4.03368 3.31466 4.04898C3.13561 4.06361 3.07334 4.08817 3.04586 4.10217C2.92669 4.16289 2.8298 4.25977 2.76908 4.37894C2.75508 4.40642 2.73052 4.4687 2.71589 4.64774C2.70059 4.83496 2.70005 5.08155 2.70005 5.46647V5.96647H13.3001V5.46647C13.3001 5.08155 13.2995 4.83496 13.2842 4.64774C13.2696 4.4687 13.245 4.40642 13.231 4.37894C13.1703 4.25977 13.0734 4.16289 12.9542 4.10217C12.9268 4.08817 12.8645 4.06361 12.6854 4.04898C12.4982 4.03368 12.2516 4.03314 11.8667 4.03314H4.13338ZM13.3001 7.36647H2.70005V11.8665C2.70005 12.2514 2.70059 12.498 2.71589 12.6852C2.73052 12.8642 2.75508 12.9265 2.76908 12.954C2.8298 13.0732 2.92669 13.1701 3.04586 13.2308C3.07334 13.2448 3.13561 13.2693 3.31466 13.284C3.50187 13.2993 3.74846 13.2998 4.13338 13.2998H11.8667C12.2516 13.2998 12.4982 13.2993 12.6854 13.284C12.8645 13.2693 12.9268 13.2448 12.9542 13.2308C13.0734 13.1701 13.1703 13.0732 13.231 12.954C13.245 12.9265 13.2696 12.8642 13.2842 12.6852C13.2995 12.498 13.3001 12.2514 13.3001 11.8665V7.36647Z" fill="black"/>
</svg>
