<svg width="24" height="24" viewBox="0 0 24 24" fill="none" xmlns="http://www.w3.org/2000/svg">
    <path d="M20 17.97L19.5803 17.3484C19.3738 17.4878 19.25 17.7208 19.25 17.97H20ZM20 20L19.6142 20.6432C19.8459 20.7822 20.1345 20.7858 20.3696 20.6526C20.6047 20.5195 20.75 20.2702 20.75 20H20ZM18.036 18.822L18.4218 18.1788C18.2541 18.0783 18.0539 18.0471 17.8636 18.0921L18.036 18.822ZM16.5 19L16.5009 18.25H16.5V19ZM11.4019 16.4195C11.8004 16.3063 12.0316 15.8915 11.9185 15.4931C11.8053 15.0946 11.3905 14.8634 10.9921 14.9765L11.4019 16.4195ZM9 16V15.25L8.99838 15.25L9 16ZM6.388 15.568L6.63101 14.8585C6.4219 14.7868 6.19185 14.8111 6.00229 14.9248L6.388 15.568ZM4 17H3.25C3.25 17.2702 3.39531 17.5195 3.6304 17.6526C3.86548 17.7857 4.15401 17.7822 4.38571 17.6432L4 17ZM4 14.199H4.75C4.75 13.9827 4.6566 13.7769 4.49378 13.6345L4 14.199ZM16 9.785H16.75C16.75 9.77435 16.7498 9.76371 16.7493 9.75307L16 9.785ZM15.25 10.018C15.25 10.4322 15.5858 10.768 16 10.768C16.4142 10.768 16.75 10.4322 16.75 10.018H15.25ZM10 7.25C9.58579 7.25 9.25 7.58579 9.25 8C9.25 8.41421 9.58579 8.75 10 8.75V7.25ZM10.01 8.75C10.4242 8.75 10.76 8.41421 10.76 8C10.76 7.58579 10.4242 7.25 10.01 7.25V8.75ZM7 7.25C6.58579 7.25 6.25 7.58579 6.25 8C6.25 8.41421 6.58579 8.75 7 8.75V7.25ZM7.01 8.75C7.42421 8.75 7.76 8.41421 7.76 8C7.76 7.58579 7.42421 7.25 7.01 7.25V8.75ZM15 13.25C14.5858 13.25 14.25 13.5858 14.25 14C14.25 14.4142 14.5858 14.75 15 14.75V13.25ZM15.01 14.75C15.4242 14.75 15.76 14.4142 15.76 14C15.76 13.5858 15.4242 13.25 15.01 13.25V14.75ZM18 13.25C17.5858 13.25 17.25 13.5858 17.25 14C17.25 14.4142 17.5858 14.75 18 14.75V13.25ZM18.01 14.75C18.4242 14.75 18.76 14.4142 18.76 14C18.76 13.5858 18.4242 13.25 18.01 13.25V14.75ZM16.5 10.75C19.2715 10.75 21.25 12.5629 21.25 14.5H22.75C22.75 11.4671 19.8046 9.25 16.5 9.25V10.75ZM21.25 14.5C21.25 15.6004 20.6384 16.634 19.5803 17.3484L20.4197 18.5916C21.8055 17.656 22.75 16.1936 22.75 14.5H21.25ZM19.25 17.97V20H20.75V17.97H19.25ZM20.3858 19.3568L18.4218 18.1788L17.6502 19.4652L19.6142 20.6432L20.3858 19.3568ZM17.8636 18.0921C17.4171 18.1975 16.9597 18.2505 16.5009 18.25L16.4991 19.75C17.0746 19.7507 17.6483 19.6842 18.2084 19.5519L17.8636 18.0921ZM16.5 18.25C13.7285 18.25 11.75 16.4371 11.75 14.5H10.25C10.25 17.5329 13.1954 19.75 16.5 19.75V18.25ZM11.75 14.5C11.75 12.5629 13.7285 10.75 16.5 10.75V9.25C13.1954 9.25 10.25 11.4671 10.25 14.5H11.75ZM10.9921 14.9765C10.3691 15.1535 9.69805 15.25 9 15.25V16.75C9.83595 16.75 10.6449 16.6345 11.4019 16.4195L10.9921 14.9765ZM8.99838 15.25C8.193 15.2517 7.39295 15.1194 6.63101 14.8585L6.14499 16.2775C7.06439 16.5924 8.02979 16.7521 9.00162 16.75L8.99838 15.25ZM6.00229 14.9248L3.61429 16.3568L4.38571 17.6432L6.77371 16.2112L6.00229 14.9248ZM4.75 17V14.199H3.25V17H4.75ZM4.49378 13.6345C3.39697 12.6751 2.75 11.3903 2.75 10H1.25C1.25 11.8797 2.12903 13.5589 3.50622 14.7635L4.49378 13.6345ZM2.75 10C2.75 7.20453 5.43556 4.75 9 4.75V3.25C4.83244 3.25 1.25 6.16747 1.25 10H2.75ZM9 4.75C12.4837 4.75 15.1349 7.09924 15.2507 9.81693L16.7493 9.75307C16.5911 6.04076 13.0803 3.25 9 3.25V4.75ZM15.25 9.785V10.018H16.75V9.785H15.25ZM10 8.75H10.01V7.25H10V8.75ZM7 8.75H7.01V7.25H7V8.75ZM15 14.75H15.01V13.25H15V14.75ZM18 14.75H18.01V13.25H18V14.75Z" fill="black"/>
</svg>
