<svg width="20" height="20" viewBox="0 0 20 20" fill="none" xmlns="http://www.w3.org/2000/svg">
<path fill-rule="evenodd" clip-rule="evenodd" d="M3.25567 3.25567C3.71826 2.79308 4.34567 2.5332 4.99987 2.5332H11.6665C12.3207 2.5332 12.9481 2.79308 13.4107 3.25567C13.8733 3.71826 14.1332 4.34567 14.1332 4.99987V5.86654H14.9999C15.6541 5.86654 16.2815 6.12642 16.7441 6.58901C17.2067 7.0516 17.4665 7.679 17.4665 8.3332V14.9999C17.4665 15.6541 17.2067 16.2815 16.7441 16.7441C16.2815 17.2067 15.6541 17.4665 14.9999 17.4665H8.3332C7.679 17.4665 7.0516 17.2067 6.58901 16.7441C6.12642 16.2815 5.86654 15.6541 5.86654 14.9999V14.1332H4.99987C4.34567 14.1332 3.71826 13.8733 3.25567 13.4107C2.79308 12.9481 2.5332 12.3207 2.5332 11.6665V4.99987C2.5332 4.34567 2.79308 3.71826 3.25567 3.25567ZM7.46654 14.9999C7.46654 15.2297 7.55785 15.4502 7.72038 15.6127C7.88291 15.7752 8.10335 15.8665 8.3332 15.8665H14.9999C15.2297 15.8665 15.4502 15.7752 15.6127 15.6127C15.7752 15.4502 15.8665 15.2297 15.8665 14.9999V8.3332C15.8665 8.10335 15.7752 7.88291 15.6127 7.72038C15.4502 7.55785 15.2297 7.46654 14.9999 7.46654H8.3332C8.10335 7.46654 7.88291 7.55785 7.72038 7.72038C7.55785 7.88291 7.46654 8.10335 7.46654 8.3332V14.9999ZM12.5332 5.86654H8.3332C7.679 5.86654 7.0516 6.12642 6.58901 6.58901C6.12642 7.0516 5.86654 7.679 5.86654 8.3332V12.5332H4.99987C4.77002 12.5332 4.54958 12.4419 4.38704 12.2794C4.22451 12.1168 4.1332 11.8964 4.1332 11.6665V4.99987C4.1332 4.77002 4.22451 4.54958 4.38704 4.38704C4.54958 4.22451 4.77002 4.1332 4.99987 4.1332H11.6665C11.8964 4.1332 12.1168 4.22451 12.2794 4.38704C12.4419 4.54958 12.5332 4.77002 12.5332 4.99987V5.86654Z" fill="black"/>
</svg>
