<svg xmlns="http://www.w3.org/2000/svg" width="24" height="24" viewBox="0 0 24 24" fill="none">
    <path d="M15.7569 8.3324C15.9404 8.85328 16.5115 9.12672 17.0324 8.94314C17.5533 8.75956 17.8267 8.18848 17.6431 7.6676L15.7569 8.3324ZM14 6L14.0431 5.00093C14.0288 5.00031 14.0144 5 14 5V6ZM10 12V13V12ZM14 18V19V18ZM10 18L9.95686 18.9991C9.97123 18.9997 9.98562 19 10 19V18ZM8.24314 15.6676C8.05956 15.1467 7.48848 14.8733 6.9676 15.0569C6.44672 15.2404 6.17328 15.8115 6.35686 16.3324L8.24314 15.6676ZM13 3C13 2.44772 12.5523 2 12 2C11.4477 2 11 2.44772 11 3H13ZM11 6C11 6.55228 11.4477 7 12 7C12.5523 7 13 6.55228 13 6H11ZM13 18C13 17.4477 12.5523 17 12 17C11.4477 17 11 17.4477 11 18H13ZM11 21C11 21.5523 11.4477 22 12 22C12.5523 22 13 21.5523 13 21H11ZM17.6431 7.6676C17.3777 6.91458 16.8931 6.25822 16.2515 5.78298L15.061 7.39009C15.3818 7.62771 15.6242 7.95589 15.7569 8.3324L17.6431 7.6676ZM16.2515 5.78298C15.6099 5.30774 14.8408 5.03537 14.0431 5.00093L13.9569 6.99907C14.3557 7.01629 14.7403 7.15247 15.061 7.39009L16.2515 5.78298ZM14 5H10V7H14V5ZM10 5C8.93913 5 7.92172 5.42143 7.17157 6.17157L8.58579 7.58579C8.96086 7.21071 9.46957 7 10 7V5ZM7.17157 6.17157C6.42143 6.92172 6 7.93913 6 9H8C8 8.46957 8.21071 7.96086 8.58579 7.58579L7.17157 6.17157ZM6 9C6 10.0609 6.42143 11.0783 7.17157 11.8284L8.58579 10.4142C8.21071 10.0391 8 9.53043 8 9H6ZM7.17157 11.8284C7.92172 12.5786 8.93913 13 10 13V11C9.46957 11 8.96086 10.7893 8.58579 10.4142L7.17157 11.8284ZM10 13H14V11H10V13ZM14 13C14.5304 13 15.0391 13.2107 15.4142 13.5858L16.8284 12.1716C16.0783 11.4214 15.0609 11 14 11V13ZM15.4142 13.5858C15.7893 13.9609 16 14.4696 16 15H18C18 13.9391 17.5786 12.9217 16.8284 12.1716L15.4142 13.5858ZM16 15C16 15.5304 15.7893 16.0391 15.4142 16.4142L16.8284 17.8284C17.5786 17.0783 18 16.0609 18 15H16ZM15.4142 16.4142C15.0391 16.7893 14.5304 17 14 17V19C15.0609 19 16.0783 18.5786 16.8284 17.8284L15.4142 16.4142ZM14 17H10V19H14V17ZM10.0431 17.0009C9.6443 16.9837 9.25974 16.8475 8.93896 16.6099L7.7485 18.217C8.39007 18.6923 9.15919 18.9646 9.95686 18.9991L10.0431 17.0009ZM8.93896 16.6099C8.61817 16.3723 8.37584 16.0441 8.24314 15.6676L6.35686 16.3324C6.62226 17.0854 7.10693 17.7418 7.7485 18.217L8.93896 16.6099ZM11 3V6H13V3H11ZM11 18V21H13V18H11Z" fill="#62AD5A"/>
</svg>