<svg width="20" height="20" viewBox="0 0 20 20" fill="none" xmlns="http://www.w3.org/2000/svg">
<path fill-rule="evenodd" clip-rule="evenodd" d="M11.7502 3.33301C11.7502 2.91879 12.0859 2.58301 12.5002 2.58301H16.6668C17.081 2.58301 17.4168 2.91879 17.4168 3.33301V7.49967C17.4168 7.91389 17.081 8.24967 16.6668 8.24967C16.2526 8.24967 15.9168 7.91389 15.9168 7.49967V5.14367L8.86383 12.1967C8.57093 12.4896 8.09606 12.4896 7.80317 12.1967C7.51027 11.9038 7.51027 11.4289 7.80317 11.136L14.8562 4.08301H12.5002C12.0859 4.08301 11.7502 3.74722 11.7502 3.33301ZM3.29132 5.79083C3.74453 5.33762 4.35922 5.08301 5.00016 5.08301H9.16683C9.58104 5.08301 9.91683 5.41879 9.91683 5.83301C9.91683 6.24722 9.58104 6.58301 9.16683 6.58301H5.00016C4.75705 6.58301 4.52389 6.67958 4.35198 6.85149C4.18007 7.0234 4.0835 7.25656 4.0835 7.49967V14.9997C4.0835 15.2428 4.18007 15.4759 4.35198 15.6479C4.52389 15.8198 4.75705 15.9163 5.00016 15.9163H12.5002C12.7433 15.9163 12.9764 15.8198 13.1483 15.6479C13.3203 15.4759 13.4168 15.2428 13.4168 14.9997V10.833C13.4168 10.4188 13.7526 10.083 14.1668 10.083C14.581 10.083 14.9168 10.4188 14.9168 10.833V14.9997C14.9168 15.6406 14.6622 16.2553 14.209 16.7085C13.7558 17.1617 13.1411 17.4163 12.5002 17.4163H5.00016C4.35922 17.4163 3.74453 17.1617 3.29132 16.7085C2.83811 16.2553 2.5835 15.6406 2.5835 14.9997V7.49967C2.5835 6.85873 2.83811 6.24405 3.29132 5.79083Z" fill="black"/>
</svg>
