<svg width="16" height="16" viewBox="0 0 16 16" fill="none" xmlns="http://www.w3.org/2000/svg">
<path fill-rule="evenodd" clip-rule="evenodd" d="M2.37677 8.00044C3.19914 10.3128 5.40733 11.9671 8.00019 11.9671C10.593 11.9671 12.8012 10.3128 13.6236 8.00047C12.8012 5.68815 10.593 4.03379 8.00018 4.03379C5.40733 4.03379 3.19915 5.68813 2.37677 8.00044ZM0.970887 7.79068C1.9094 4.80259 4.7006 2.63379 8.00018 2.63379C11.2998 2.63379 14.091 4.80261 15.0295 7.79073C15.0724 7.92728 15.0724 8.07369 15.0295 8.21024C14.091 11.1983 11.2998 13.3671 8.00019 13.3671C4.7006 13.3671 1.90939 11.1983 0.970885 8.21019C0.927999 8.07364 0.927999 7.92722 0.970887 7.79068ZM7.99989 6.70046C7.28192 6.70046 6.69989 7.28249 6.69989 8.00046C6.69989 8.71843 7.28192 9.30046 7.99989 9.30046C8.71786 9.30046 9.29989 8.71843 9.29989 8.00046C9.29989 7.28249 8.71786 6.70046 7.99989 6.70046ZM5.29989 8.00046C5.29989 6.50929 6.50872 5.30046 7.99989 5.30046C9.49105 5.30046 10.6999 6.50929 10.6999 8.00046C10.6999 9.49162 9.49105 10.7005 7.99989 10.7005C6.50872 10.7005 5.29989 9.49162 5.29989 8.00046Z" fill="black"/>
</svg>
