<svg width="16" height="16" viewBox="0 0 16 16" fill="none" xmlns="http://www.w3.org/2000/svg">
<g clip-path="url(#clip0_321_2920)">
<path d="M16 8C16 3.58172 12.4183 0 8 0C3.58172 0 0 3.58172 0 8C0 12.4183 3.58172 16 8 16C12.4183 16 16 12.4183 16 8Z" fill="#1778F2"/>
<path d="M8.63815 12.516V8.23373H10.0756L10.2911 6.56484H8.63815V5.4993C8.63815 5.01615 8.77237 4.68687 9.46526 4.68687H10.349V3.19464C9.92124 3.14939 9.49134 3.12747 9.0612 3.12898C7.787 3.12898 6.91471 3.90668 6.91471 5.33499V6.56484H5.47363V8.23373H6.91471V12.516H8.63815Z" fill="#FDFDFD"/>
</g>
<defs>
<clipPath id="clip0_321_2920">
<rect width="16" height="16" fill="white"/>
</clipPath>
</defs>
</svg>
