<svg width="28" height="28" viewBox="0 0 28 28" fill="none" xmlns="http://www.w3.org/2000/svg">
<path d="M14.0001 2.33301L14.1366 2.34117C14.397 2.37189 14.6395 2.48943 14.8249 2.67485C15.0103 2.86027 15.1279 3.10275 15.1586 3.36317L15.1667 3.49967V8.16634L15.1726 8.34134C15.2143 8.89687 15.4535 9.41914 15.8468 9.81371C16.24 10.2083 16.7615 10.4491 17.3169 10.4927L17.5001 10.4997H22.1667L22.3032 10.5078C22.5637 10.5386 22.8061 10.6561 22.9916 10.8415C23.177 11.0269 23.2945 11.2694 23.3252 11.5298L23.3334 11.6663V22.1663C23.3335 23.0591 22.9924 23.9181 22.3799 24.5676C21.7675 25.2172 20.93 25.6081 20.0387 25.6605L19.8334 25.6663H8.16675C7.274 25.6664 6.41498 25.3253 5.76544 24.7128C5.11591 24.1004 4.72496 23.2629 4.67258 22.3717L4.66675 22.1663V5.83301C4.6667 4.94026 5.00779 4.08124 5.62025 3.4317C6.2327 2.78217 7.07021 2.39122 7.96141 2.33884L8.16675 2.33301H14.0001Z" fill="black"/>
<path d="M22.1668 8.16633H17.5001L17.4989 3.4985L22.1668 8.16633Z" fill="black"/>
</svg>
