<svg width="24" height="24" viewBox="0 0 24 24" fill="none" xmlns="http://www.w3.org/2000/svg">
<path fill-rule="evenodd" clip-rule="evenodd" d="M11 4C10.7348 4 10.4804 4.10536 10.2929 4.29289C10.1054 4.48043 10 4.73478 10 5V15C10 15.2652 10.1054 15.5196 10.2929 15.7071C10.4804 15.8946 10.7348 16 11 16H18C18.2652 16 18.5196 15.8946 18.7071 15.7071C18.8946 15.5196 19 15.2652 19 15V9H16C15.4696 9 14.9609 8.78929 14.5858 8.41421C14.2107 8.03914 14 7.53043 14 7V4H11ZM16 5.41421L17.5858 7H16V5.41421ZM17 18H18C18.7957 18 19.5587 17.6839 20.1213 17.1213C20.6839 16.5587 21 15.7957 21 15V8C21 7.73478 20.8946 7.48043 20.7071 7.29289L15.7071 2.29289C15.5196 2.10536 15.2652 2 15 2H11C10.2044 2 9.44129 2.31607 8.87868 2.87868C8.31607 3.44129 8 4.20435 8 5V6H7C6.20435 6 5.44129 6.31607 4.87868 6.87868C4.31607 7.44129 4 8.20435 4 9V19C4 19.7957 4.31607 20.5587 4.87868 21.1213C5.44129 21.6839 6.20435 22 7 22H14C14.7957 22 15.5587 21.6839 16.1213 21.1213C16.6839 20.5587 17 19.7957 17 19V18ZM15 18H11C10.2043 18 9.44129 17.6839 8.87868 17.1213C8.31607 16.5587 8 15.7957 8 15V8H7C6.73478 8 6.48043 8.10536 6.29289 8.29289C6.10536 8.48043 6 8.73478 6 9V19C6 19.2652 6.10536 19.5196 6.29289 19.7071C6.48043 19.8946 6.73478 20 7 20H14C14.2652 20 14.5196 19.8946 14.7071 19.7071C14.8946 19.5196 15 19.2652 15 19V18Z" fill="black"/>
</svg>
