<svg width="24" height="24" viewBox="0 0 24 24" fill="none" xmlns="http://www.w3.org/2000/svg">
<path fill-rule="evenodd" clip-rule="evenodd" d="M15 3.5C14.7239 3.5 14.5 3.27614 14.5 3C14.5 2.72386 14.7239 2.5 15 2.5H19C19.2761 2.5 19.5 2.72386 19.5 3V7C19.5 7.27614 19.2761 7.5 19 7.5C18.7239 7.5 18.5 7.27614 18.5 7V4.20711L14.5158 8.19126C15.1499 8.98488 15.5 9.97439 15.5 11C15.5 12.1935 15.0259 13.3381 14.182 14.182C13.3381 15.0259 12.1935 15.5 11 15.5C9.80653 15.5 8.66193 15.0259 7.81802 14.182C6.97411 13.3381 6.5 12.1935 6.5 11C6.5 9.80653 6.97411 8.66193 7.81802 7.81802C8.66193 6.97411 9.80653 6.5 11 6.5C12.0256 6.5 13.0151 6.85012 13.8087 7.48416L17.7929 3.5H15ZM11.5 18.5V16C11.5 15.7239 11.2761 15.5 11 15.5C10.7239 15.5 10.5 15.7239 10.5 16V18.5H8C7.72386 18.5 7.5 18.7239 7.5 19C7.5 19.2761 7.72386 19.5 8 19.5H10.5V22C10.5 22.2761 10.7239 22.5 11 22.5C11.2761 22.5 11.5 22.2761 11.5 22V19.5H14C14.2761 19.5 14.5 19.2761 14.5 19C14.5 18.7239 14.2761 18.5 14 18.5H11.5ZM11 7.5C10.0717 7.5 9.1815 7.86875 8.52513 8.52513C7.86875 9.1815 7.5 10.0717 7.5 11C7.5 11.9283 7.86875 12.8185 8.52513 13.4749C9.1815 14.1313 10.0717 14.5 11 14.5C11.9283 14.5 12.8185 14.1313 13.4749 13.4749C14.1313 12.8185 14.5 11.9283 14.5 11C14.5 10.0717 14.1313 9.1815 13.4749 8.52513C12.8185 7.86875 11.9283 7.5 11 7.5Z" fill="black"/>
</svg>
