<svg width="24" height="24" viewBox="0 0 24 24" fill="none" xmlns="http://www.w3.org/2000/svg">
<path fill-rule="evenodd" clip-rule="evenodd" d="M9.46944 5.01257C8.80934 4.27912 8.12408 3.98972 7.51742 4.00029L7.5 4.00044C7.10218 4.00044 6.72064 4.15848 6.43934 4.43978C6.15804 4.72109 6 5.10262 6 5.50044C6 5.89827 6.15804 6.2798 6.43934 6.5611C6.71935 6.84112 7.09867 6.99899 7.49452 7.00043H10.6419C10.3251 6.189 9.92148 5.51483 9.46944 5.01257ZM11 9.00043V11.0004H4V9.00043H7.49162C7.49441 9.00044 7.49721 9.00044 7.5 9.00044L7.50452 9.00043H11ZM4.33772 7.00043C4.11743 6.53601 4 6.02428 4 5.50044C4 4.57219 4.36875 3.68195 5.02513 3.02557C5.67943 2.37127 6.56612 2.00278 7.4912 2.00046C8.81053 1.98036 10.0128 2.62657 10.956 3.67464C11.3497 4.11204 11.6987 4.61826 12 5.177C12.3013 4.61826 12.6503 4.11204 13.044 3.67464C13.9872 2.62657 15.1895 1.98036 16.5088 2.00046C17.4339 2.00278 18.3206 2.37127 18.9749 3.02557C19.6312 3.68195 20 4.57219 20 5.50044C20 6.02428 19.8826 6.53601 19.6623 7.00043H20C20.5304 7.00043 21.0391 7.21115 21.4142 7.58622C21.7893 7.9613 22 8.47 22 9.00043V11.0004C22 11.5309 21.7893 12.0396 21.4142 12.4146C21.0391 12.7897 20.5304 13.0004 20 13.0004V19.0004C20 19.7961 19.6839 20.5591 19.1213 21.1218C18.5587 21.6844 17.7957 22.0004 17 22.0004H7C6.20435 22.0004 5.44129 21.6844 4.87868 21.1218C4.31607 20.5591 4 19.7961 4 19.0004V13.0004C3.46957 13.0004 2.96086 12.7897 2.58579 12.4146C2.21071 12.0396 2 11.5309 2 11.0004V9.00043C2 8.47 2.21071 7.96129 2.58579 7.58622C2.96086 7.21115 3.46957 7.00043 4 7.00043H4.33772ZM6 13.0004V19.0004C6 19.2657 6.10536 19.52 6.29289 19.7075C6.48043 19.8951 6.73478 20.0004 7 20.0004H11V13.0004H6ZM13 13.0004V20.0004H17C17.2652 20.0004 17.5196 19.8951 17.7071 19.7075C17.8946 19.52 18 19.2656 18 19.0004V13.0004H13ZM20 11.0004V9.00043H16.5084C16.5056 9.00044 16.5028 9.00044 16.5 9.00044L16.4955 9.00043H13V11.0004H20Z" fill="black"/>
</svg>
