<svg width="24" height="24" viewBox="0 0 24 24" fill="none" xmlns="http://www.w3.org/2000/svg">
<path fill-rule="evenodd" clip-rule="evenodd" d="M12.7291 2.02673C12.615 1.99989 12.4963 1.99297 12.3786 2.0073C12.2527 2.00253 12.1265 2.00013 12 2.00013C11.8735 2.00013 11.7473 2.00253 11.6214 2.0073C11.5037 1.99297 11.385 1.99989 11.2709 2.02673C8.88531 2.20103 6.6317 3.2263 4.92893 4.92907C3.05357 6.80443 2 9.34797 2 12.0001C2 13.3134 2.25866 14.6137 2.7612 15.827C3.26375 17.0402 4.00035 18.1426 4.92893 19.0712C5.85752 19.9998 6.95991 20.7364 8.17317 21.2389C9.1613 21.6482 10.2072 21.8957 11.2708 21.9735C11.3849 22.0004 11.5037 22.0073 11.6215 21.993C11.7475 21.9977 11.8737 22.0001 12 22.0001C12.1263 22.0001 12.2525 21.9977 12.3785 21.993C12.4963 22.0073 12.6151 22.0004 12.7292 21.9735C13.7928 21.8957 14.8387 21.6482 15.8268 21.2389C17.0401 20.7364 18.1425 19.9998 19.0711 19.0712C19.9997 18.1426 20.7362 17.0402 21.2388 15.827C21.7413 14.6137 22 13.3134 22 12.0001C22 9.34797 20.9464 6.80443 19.0711 4.92907C17.3683 3.2263 15.1147 2.20103 12.7291 2.02673ZM9.6235 4.36126C8.39676 4.74294 7.26832 5.41811 6.34315 6.34328C5.84444 6.84198 5.41838 7.39975 5.07177 8.00013H8.37227C8.65774 6.7477 9.07685 5.5276 9.6235 4.36126ZM10.4303 8.00013C10.7798 6.64657 11.3063 5.33994 12 4.11519C12.6937 5.33994 13.2202 6.64657 13.5697 8.00013H10.4303ZM8.03365 10.0001H4.25401C4.08671 10.648 4 11.3196 4 12.0001C4 12.6763 4.08573 13.3483 4.25403 14.0001H8.03365C7.95964 13.3381 7.9222 12.6705 7.9222 12.0001C7.9222 11.3298 7.95964 10.6622 8.03365 10.0001ZM10.0477 14.0001C9.96439 13.339 9.9222 12.6711 9.9222 12.0001C9.9222 11.3292 9.96439 10.6613 10.0477 10.0001H13.9523C14.0356 10.6613 14.0778 11.3292 14.0778 12.0001C14.0778 12.6711 14.0356 13.339 13.9523 14.0001H10.0477ZM8.37227 16.0001H5.0718C5.42061 16.6043 5.84772 17.1616 6.34315 17.657C7.08601 18.3999 7.96793 18.9891 8.93853 19.3912C9.16336 19.4843 9.39192 19.567 9.62349 19.639C9.07685 18.4727 8.65774 17.2526 8.37227 16.0001ZM12 19.8851C11.3063 18.6603 10.7798 17.3537 10.4303 16.0001H13.5697C13.2202 17.3537 12.6937 18.6603 12 19.8851ZM14.3765 19.639C14.6081 19.567 14.8366 19.4843 15.0615 19.3912C16.0321 18.9891 16.914 18.3999 17.6569 17.657C18.1523 17.1616 18.5794 16.6043 18.9282 16.0001H15.6277C15.3423 17.2526 14.9231 18.4727 14.3765 19.639ZM15.9663 14.0001H19.746C19.9143 13.3483 20 12.6763 20 12.0001C20 11.3196 19.9133 10.648 19.746 10.0001H15.9663C16.0404 10.6622 16.0778 11.3298 16.0778 12.0001C16.0778 12.6705 16.0404 13.3381 15.9663 14.0001ZM15.6277 8.00013H18.9282C18.5816 7.39975 18.1556 6.84198 17.6569 6.34328C16.7317 5.41811 15.6032 4.74294 14.3765 4.36126C14.9231 5.5276 15.3423 6.7477 15.6277 8.00013Z" fill="black"/>
</svg>
