<svg width="36" height="36" viewBox="0 0 36 36" fill="none" xmlns="http://www.w3.org/2000/svg">
<path d="M6.88677 17.7146L10.7268 17.1572L8.29377 19.5902C7.76416 20.1172 7.46529 20.8327 7.46277 21.5798L7.42377 27.7088C7.40141 28.044 7.25155 28.3578 7.00497 28.5859C6.7584 28.814 6.43384 28.939 6.09797 28.9353C5.76209 28.9315 5.44042 28.7992 5.19901 28.5657C4.95761 28.3321 4.81482 28.015 4.79997 27.6794L4.28097 21.0236C4.22345 20.2462 4.459 19.4755 4.94127 18.8631C5.42353 18.2507 6.11758 17.841 6.88677 17.7146Z" fill="black"/>
<path d="M11.862 34.4641C11.7255 34.5162 11.58 34.5409 11.4339 34.5368C11.2878 34.5327 11.1439 34.4999 11.0105 34.4401C10.8771 34.3804 10.7568 34.2949 10.6564 34.1887C10.5561 34.0824 10.4776 33.9574 10.4256 33.8209L9.69301 31.9009C9.58631 31.626 9.59319 31.3199 9.71213 31.0501C9.83106 30.7803 10.0523 30.5688 10.3272 30.4621C10.6021 30.3554 10.9081 30.3622 11.178 30.4812C11.4478 30.6001 11.6593 30.8214 11.766 31.0963L12.5052 33.0283C12.5573 33.1648 12.5821 33.3102 12.5779 33.4563C12.5738 33.6023 12.541 33.7461 12.4812 33.8795C12.4215 34.0128 12.3361 34.1331 12.2298 34.2334C12.1236 34.3337 11.9986 34.4121 11.862 34.4641Z" fill="black"/>
<path d="M14.7816 32.5119C14.5092 32.6153 14.2072 32.6077 13.9403 32.4908C13.6734 32.3739 13.463 32.157 13.3542 31.8867L12.3684 29.3067C12.2629 29.031 12.2713 28.7247 12.3916 28.4552C12.512 28.1856 12.7344 27.9749 13.0101 27.8694C13.2858 27.7639 13.5921 27.7722 13.8617 27.8926C14.1312 28.0129 14.3419 28.2354 14.4474 28.5111L15.4248 31.0743C15.53 31.3503 15.5214 31.6567 15.4008 31.9262C15.2802 32.1958 15.0575 32.4064 14.7816 32.5119Z" fill="black"/>
<path d="M17.7385 30.6501C17.4632 30.7552 17.1576 30.7468 16.8885 30.6268C16.6194 30.5068 16.409 30.2849 16.3033 30.0099L15.3259 27.4467C15.226 27.1721 15.238 26.8692 15.3595 26.6035C15.481 26.3377 15.7021 26.1303 15.9751 26.0262C16.2482 25.9221 16.5512 25.9295 16.8188 26.0468C17.0864 26.1642 17.2972 26.3821 17.4055 26.6535L18.3823 29.2137C18.4872 29.4896 18.4784 29.7958 18.3577 30.0652C18.2369 30.3345 18.0142 30.5449 17.7385 30.6501Z" fill="black"/>
<path d="M20.3126 27.7804C20.1761 27.8325 20.0306 27.8572 19.8845 27.853C19.7384 27.8489 19.5946 27.816 19.4612 27.7562C19.3279 27.6964 19.2076 27.6109 19.1073 27.5045C19.0071 27.3982 18.9287 27.2732 18.8768 27.1366L18.3884 25.8604C18.2854 25.5851 18.2955 25.2803 18.4165 25.0124C18.5374 24.7446 18.7594 24.5354 19.034 24.4306C19.3085 24.3258 19.6134 24.3338 19.8821 24.453C20.1507 24.5721 20.3614 24.7927 20.468 25.0666L20.9564 26.3482C21.0606 26.6235 21.0513 26.9289 20.9306 27.1974C20.8099 27.4658 20.5877 27.6755 20.3126 27.7804Z" fill="black"/>
<path d="M33.7928 11.6842C33.7365 11.9739 33.5674 12.2293 33.3228 12.3943C33.0782 12.5594 32.7781 12.6206 32.4884 12.5644L29.9312 12.067C29.8539 12.0519 29.7743 12.0522 29.6971 12.0679C29.6199 12.0835 29.5465 12.1142 29.4811 12.1582C29.4158 12.2022 29.3597 12.2587 29.3162 12.3244C29.2727 12.3901 29.2425 12.4637 29.2274 12.541C29.2123 12.6183 29.2126 12.6979 29.2283 12.7751C29.2439 12.8523 29.2746 12.9257 29.3186 12.9911C29.3627 13.0564 29.4191 13.1125 29.4848 13.156C29.5505 13.1995 29.6241 13.2297 29.7014 13.2448L32.2592 13.7422C32.4027 13.7701 32.5393 13.826 32.6611 13.9068C32.783 13.9875 32.8878 14.0914 32.9695 14.2126C33.0512 14.3338 33.1082 14.4699 33.1373 14.6132C33.1664 14.7564 33.167 14.904 33.1391 15.0475C33.1112 15.191 33.0552 15.3276 32.9745 15.4494C32.8938 15.5713 32.7899 15.6761 32.6687 15.7578C32.5475 15.8395 32.4114 15.8965 32.2681 15.9256C32.1249 15.9547 31.9773 15.9553 31.8338 15.9274L29.1434 15.4042C29.0661 15.3891 28.9865 15.3894 28.9093 15.4051C28.8321 15.4207 28.7587 15.4514 28.6933 15.4954C28.628 15.5394 28.5719 15.5959 28.5284 15.6616C28.4849 15.7273 28.4547 15.8009 28.4396 15.8782C28.4245 15.9555 28.4248 16.0351 28.4405 16.1123C28.4561 16.1895 28.4868 16.2629 28.5308 16.3283C28.5749 16.3936 28.6313 16.4497 28.697 16.4932C28.7627 16.5367 28.8363 16.5669 28.9136 16.582L31.604 17.1052C31.7478 17.1327 31.8847 17.1884 32.007 17.2689C32.1292 17.3494 32.2344 17.4533 32.3164 17.5746C32.3985 17.6958 32.4558 17.832 32.4851 17.9755C32.5144 18.1189 32.5151 18.2667 32.4872 18.4104C32.4594 18.5541 32.4034 18.6909 32.3225 18.813C32.2417 18.935 32.1375 19.0399 32.0161 19.1217C31.8946 19.2034 31.7583 19.2604 31.6148 19.2893C31.4712 19.3183 31.3234 19.3187 31.1798 19.2904L28.4888 18.7666C28.3336 18.7385 28.1735 18.7727 28.0433 18.8618C27.9131 18.9508 27.8232 19.0876 27.7931 19.2424C27.7629 19.3973 27.795 19.5577 27.8823 19.6891C27.9696 19.8205 28.1052 19.9122 28.2596 19.9444L29.8952 20.263H29.903C30.1872 20.3225 30.4369 20.4907 30.5988 20.7318C30.7607 20.9728 30.822 21.2675 30.7696 21.5531C30.7172 21.8387 30.5553 22.0926 30.3184 22.2604C30.0815 22.4283 29.7884 22.497 29.5016 22.4518L22.9616 20.9464C22.5905 20.8594 22.2032 20.8689 21.8368 20.9739C21.4704 21.079 21.1369 21.276 20.8682 21.5464L19.2536 23.1664C18.7686 23.1932 18.3053 23.3765 17.9331 23.6888C17.561 24.0011 17.3002 24.4256 17.1896 24.8986C16.8679 24.7691 16.5208 24.715 16.1749 24.7404C15.8291 24.7657 15.4936 24.8699 15.1942 25.0449C14.8948 25.2199 14.6394 25.4611 14.4476 25.75C14.2558 26.039 14.1327 26.3679 14.0876 26.7118C13.7167 26.5937 13.3219 26.572 12.9403 26.6485C12.5587 26.7251 12.2029 26.8976 11.9063 27.1496C11.6097 27.4017 11.3821 27.7251 11.245 28.0893C11.1079 28.4536 11.0657 28.8467 11.1224 29.2318C10.7156 29.1575 10.2962 29.1952 9.9092 29.341C9.3365 29.5603 8.87411 29.9977 8.62341 30.5574C8.37271 31.117 8.35415 31.7533 8.5718 32.3266L8.9918 33.4234L7.7318 34.6318C7.62126 34.7387 7.47393 34.799 7.3202 34.8004H1.8002C1.64107 34.8004 1.48845 34.7372 1.37593 34.6247C1.26341 34.5121 1.2002 34.3595 1.2002 34.2004V28.6906C1.20022 28.5335 1.26183 28.3827 1.3718 28.2706L3.4748 26.125L3.6002 27.7486C3.63015 28.3943 3.90775 29.0037 4.37532 29.4501C4.84289 29.8965 5.46446 30.1455 6.1109 30.1455C6.75733 30.1455 7.37891 29.8965 7.84647 29.4501C8.31404 29.0037 8.59164 28.3943 8.6216 27.7486L8.6618 21.5878C8.66242 21.3743 8.70513 21.1631 8.78749 20.9661C8.86986 20.7691 8.99026 20.5904 9.1418 20.44L14.7902 14.791L16.5056 13.0762C16.597 12.9846 16.6564 12.8659 16.6748 12.7378L17.4878 7.11519C17.6131 6.34501 18.0224 5.64972 18.6351 5.16646C19.2477 4.6832 20.0192 4.44705 20.7974 4.50459L23.2136 4.69119L21.212 6.67119C21.1359 6.74651 21.0813 6.84083 21.0539 6.94437C21.0265 7.0479 21.0274 7.15687 21.0563 7.25997C21.0853 7.36307 21.1413 7.45654 21.2186 7.53068C21.2959 7.60482 21.3916 7.65693 21.4958 7.68159L32.9126 10.3804C33.2019 10.4372 33.4569 10.6062 33.6219 10.8506C33.7868 11.0949 33.8483 11.3947 33.7928 11.6842Z" fill="black"/>
<path d="M34.8 7.3142C34.8008 7.47084 34.7403 7.62157 34.6314 7.7342L33.198 9.2126C32.358 9.0488 36.138 9.9062 22.8252 6.7634L28.2708 1.3742C28.3826 1.26335 28.5334 1.20086 28.6908 1.2002H34.2C34.3591 1.2002 34.5117 1.26341 34.6243 1.37593C34.7368 1.48845 34.8 1.64107 34.8 1.8002V7.3142Z" fill="black"/>
</svg>
