<svg width="24" height="24" viewBox="0 0 24 24" fill="none" xmlns="http://www.w3.org/2000/svg">
<path fill-rule="evenodd" clip-rule="evenodd" d="M8.41135 5.01085C7.86226 4.95227 7.30699 5.00803 6.78051 5.17459C6.25402 5.34116 5.76773 5.61493 5.35225 5.97867C4.93677 6.34241 4.6011 6.78824 4.36638 7.28808C4.13167 7.78792 4.00299 8.33094 3.98845 8.88295C3.97391 9.43497 4.07382 9.98401 4.2819 10.4955C4.48997 11.007 4.8017 11.4699 5.19746 11.855L5.20377 11.8612L5.20374 11.8612L12.0001 18.5922L18.7964 11.8612C18.8171 11.8407 18.8385 11.8212 18.8605 11.8029C19.2242 11.4298 19.5117 10.9891 19.7066 10.5053C19.9123 9.99466 20.0104 9.44709 19.9948 8.89683C19.9791 8.34657 19.8501 7.80547 19.6157 7.30738C19.3813 6.80929 19.0466 6.36495 18.6326 6.00216C18.2185 5.63936 17.7341 5.36593 17.2095 5.19898C16.685 5.03202 16.1316 4.97514 15.5841 5.03188C15.0365 5.08863 14.5066 5.25778 14.0274 5.52875C13.5482 5.79972 13.1301 6.16668 12.7993 6.60667C12.6098 6.85868 12.3126 7.00656 11.9973 7.00568C11.682 7.00481 11.3855 6.85527 11.1975 6.60221C10.8681 6.15901 10.4505 5.78881 9.97096 5.51493C9.49146 5.24105 8.96044 5.06942 8.41135 5.01085ZM20.1347 13.3505L12.7037 20.7102C12.314 21.0962 11.6861 21.0962 11.2964 20.7102L3.79935 13.2851C3.20729 12.7081 2.74085 12.015 2.42931 11.2491C2.1172 10.4819 1.96733 9.65831 1.98914 8.83029C2.01095 8.00227 2.20397 7.18773 2.55605 6.43797C2.90812 5.68822 3.41162 5.01948 4.03484 4.47387C4.65806 3.92826 5.3875 3.5176 6.17723 3.26775C6.96696 3.0179 7.79986 2.93427 8.6235 3.02213C9.44713 3.10999 10.2437 3.36744 10.9629 3.77826C11.337 3.9919 11.6859 4.24462 12.0042 4.5315C12.3221 4.2481 12.6702 3.99861 13.0429 3.78784C13.7617 3.38138 14.5566 3.12765 15.3779 3.04254C16.1992 2.95742 17.0293 3.04275 17.8161 3.29318C18.6029 3.54361 19.3296 3.95376 19.9507 4.49795C20.5717 5.04214 21.0737 5.70865 21.4253 6.45578C21.7769 7.20291 21.9705 8.01457 21.994 8.83996C22.0174 9.66535 21.8703 10.4867 21.5618 11.2526C21.2532 12.0185 20.7899 12.7125 20.2008 13.2911C20.1794 13.3121 20.1574 13.3319 20.1347 13.3505Z" fill="black"/>
</svg>
