<svg width="32" height="32" viewBox="0 0 32 32" fill="none" xmlns="http://www.w3.org/2000/svg">
<path d="M9.30518 4.09901C10.4853 3.89794 11.6954 3.96427 12.8465 4.2931C13.9975 4.62194 15.0601 5.2049 15.9558 5.99901L16.0052 6.04301L16.0505 6.00301C16.9054 5.25274 17.9105 4.6934 18.9987 4.36232C20.087 4.03123 21.2333 3.93601 22.3612 4.08301L22.6892 4.13101C24.1109 4.37649 25.4398 5.00188 26.5351 5.94097C27.6304 6.88005 28.4514 8.09787 28.9111 9.46545C29.3708 10.833 29.4521 12.2995 29.1464 13.7095C28.8407 15.1195 28.1593 16.4206 27.1745 17.475L26.9345 17.7217L26.8705 17.7763L16.9372 27.615C16.7079 27.8419 16.4042 27.978 16.0824 27.9981C15.7605 28.0182 15.4422 27.9209 15.1865 27.7243L15.0612 27.615L5.07051 17.719C4.01214 16.6892 3.25944 15.3866 2.89579 13.9554C2.53213 12.5241 2.57171 11.0202 3.01014 9.6101C3.44856 8.19999 4.26872 6.93874 5.37979 5.96604C6.49086 4.99333 7.84948 4.34714 9.30518 4.09901Z" fill="black"/>
</svg>
