<svg width="20" height="20" viewBox="0 0 20 20" fill="none" xmlns="http://www.w3.org/2000/svg">
<path fill-rule="evenodd" clip-rule="evenodd" d="M9.64646 2.14645C9.84172 1.95118 10.1583 1.95118 10.3536 2.14645L17.8536 9.64645C17.9966 9.78945 18.0393 10.0045 17.962 10.1913C17.8846 10.3782 17.7022 10.5 17.5 10.5H16.3333V15.8333C16.3333 16.408 16.1051 16.9591 15.6987 17.3654C15.2924 17.7717 14.7413 18 14.1667 18H5.83335C5.25871 18 4.70761 17.7717 4.30128 17.3654C3.89495 16.9591 3.66668 16.408 3.66668 15.8333V10.5H2.50001C2.29778 10.5 2.11547 10.3782 2.03807 10.1913C1.96068 10.0045 2.00346 9.78945 2.14646 9.64645L9.64646 2.14645ZM8.00001 17H12V12.5C12 12.1906 11.8771 11.8938 11.6583 11.675C11.4395 11.4562 11.1428 11.3333 10.8333 11.3333H9.16668C8.85726 11.3333 8.56052 11.4562 8.34172 11.675C8.12293 11.8938 8.00001 12.1906 8.00001 12.5V17ZM13 17V12.5C13 11.9254 12.7717 11.3743 12.3654 10.9679C11.9591 10.5616 11.408 10.3333 10.8333 10.3333H9.16668C8.59205 10.3333 8.04095 10.5616 7.63462 10.9679C7.22829 11.3743 7.00001 11.9254 7.00001 12.5V17H5.83335C5.52393 17 5.22718 16.8771 5.00839 16.6583C4.7896 16.4395 4.66668 16.1428 4.66668 15.8333V10C4.66668 9.72386 4.44282 9.5 4.16668 9.5H3.70712L10 3.20711L16.2929 9.5H15.8333C15.5572 9.5 15.3333 9.72386 15.3333 10V15.8333C15.3333 16.1428 15.2104 16.4395 14.9916 16.6583C14.7728 16.8771 14.4761 17 14.1667 17H13Z" fill="black"/>
</svg>
