<svg width="28" height="28" viewBox="0 0 28 28" fill="none" xmlns="http://www.w3.org/2000/svg">
<path fill-rule="evenodd" clip-rule="evenodd" d="M14 5.25C11.6236 5.25 11.3257 5.26007 10.3924 5.30265C9.46106 5.34513 8.82498 5.49306 8.26842 5.70938C7.69303 5.93296 7.20506 6.23215 6.71859 6.71859C6.23215 7.20506 5.93296 7.69303 5.70938 8.26842C5.49306 8.82498 5.34514 9.46105 5.30266 10.3924C5.26008 11.3257 5.25 11.6236 5.25 14C5.25 16.3764 5.26008 16.6743 5.30266 17.6076C5.34514 18.539 5.49306 19.175 5.70938 19.7316C5.93296 20.307 6.23215 20.7949 6.71859 21.2814C7.20506 21.7679 7.69303 22.067 8.26842 22.2907C8.82498 22.5069 9.46106 22.6549 10.3924 22.6973C11.3257 22.7399 11.6236 22.75 14 22.75C16.3764 22.75 16.6743 22.7399 17.6076 22.6973C18.5389 22.6549 19.175 22.5069 19.7316 22.2907C20.307 22.067 20.7949 21.7679 21.2814 21.2814C21.7678 20.7949 22.067 20.307 22.2906 19.7316C22.5069 19.175 22.6549 18.539 22.6974 17.6076C22.7399 16.6743 22.75 16.3764 22.75 14C22.75 11.6236 22.7399 11.3257 22.6974 10.3924C22.6549 9.46105 22.5069 8.82498 22.2906 8.26842C22.067 7.69303 21.7678 7.20506 21.2814 6.71859C20.7949 6.23215 20.307 5.93296 19.7316 5.70938C19.175 5.49306 18.5389 5.34513 17.6076 5.30265C16.6743 5.26007 16.3764 5.25 14 5.25ZM14 6.82657C16.3363 6.82657 16.6131 6.8355 17.5358 6.8776C18.3889 6.9165 18.8522 7.05904 19.1605 7.17887C19.5689 7.3376 19.8604 7.52721 20.1666 7.83342C20.4728 8.13959 20.6624 8.43107 20.8211 8.8395C20.9409 9.14783 21.0835 9.61113 21.1224 10.4642C21.1645 11.3869 21.1734 11.6637 21.1734 14C21.1734 16.3363 21.1645 16.6131 21.1224 17.5358C21.0835 18.3889 20.9409 18.8522 20.8211 19.1605C20.6624 19.5689 20.4728 19.8604 20.1666 20.1666C19.8604 20.4728 19.5689 20.6624 19.1605 20.8211C18.8522 20.941 18.3889 21.0835 17.5358 21.1224C16.6132 21.1645 16.3365 21.1734 14 21.1734C11.6635 21.1734 11.3868 21.1645 10.4642 21.1224C9.61113 21.0835 9.14783 20.941 8.8395 20.8211C8.43107 20.6624 8.13959 20.4728 7.83341 20.1666C7.52724 19.8604 7.3376 19.5689 7.17887 19.1605C7.05904 18.8522 6.9165 18.3889 6.8776 17.5358C6.8355 16.6131 6.82657 16.3363 6.82657 14C6.82657 11.6637 6.8355 11.3869 6.8776 10.4642C6.9165 9.61113 7.05904 9.14783 7.17887 8.8395C7.3376 8.43107 7.52721 8.13959 7.83341 7.83342C8.13959 7.52721 8.43107 7.3376 8.8395 7.17887C9.14783 7.05904 9.61113 6.9165 10.4642 6.8776C11.3869 6.8355 11.6637 6.82657 14 6.82657ZM14 9.50676C11.5184 9.50676 9.50676 11.5184 9.50676 14C9.50676 16.4816 11.5184 18.4932 14 18.4932C16.4816 18.4932 18.4932 16.4816 18.4932 14C18.4932 11.5184 16.4816 9.50676 14 9.50676ZM14 16.9167C12.3892 16.9167 11.0833 15.6108 11.0833 14C11.0833 12.3892 12.3892 11.0833 14 11.0833C15.6108 11.0833 16.9167 12.3892 16.9167 14C16.9167 15.6108 15.6108 16.9167 14 16.9167ZM19.7208 9.32924C19.7208 9.90914 19.2507 10.3792 18.6708 10.3792C18.0909 10.3792 17.6208 9.90914 17.6208 9.32924C17.6208 8.74933 18.0909 8.27922 18.6708 8.27922C19.2507 8.27922 19.7208 8.74933 19.7208 9.32924Z" fill="black"/>
</svg>
