<svg width="16" height="16" viewBox="0 0 16 16" fill="none" xmlns="http://www.w3.org/2000/svg">
<g clip-path="url(#clip0_321_2916)">
<path d="M4.05725 15.9434C3.43839 15.9365 2.82534 15.823 2.24502 15.6078C1.82125 15.4512 1.43784 15.2018 1.12282 14.878C0.798081 14.5636 0.548342 14.1801 0.392157 13.7559C0.177216 13.1756 0.0638717 12.5626 0.057098 11.9438C0.00956862 10.9151 0 10.6066 0 8C0 5.39341 0.0105098 5.08596 0.0566274 4.05647C0.0642231 3.43793 0.177707 2.82525 0.392157 2.24502C0.549103 1.82118 0.798488 1.43761 1.1222 1.1222C1.43682 0.797746 1.82041 0.548239 2.24455 0.392157C2.82487 0.177038 3.43792 0.0635339 4.05678 0.0566274C5.0858 0.00956862 5.39482 0 8 0C10.6052 0 10.914 0.0105098 11.9435 0.0566274C12.5622 0.0641695 13.1751 0.177654 13.7555 0.392157C14.1794 0.548445 14.5629 0.797865 14.8776 1.12204C15.2019 1.4369 15.4514 1.82049 15.6078 2.24455C15.823 2.82486 15.9366 3.43791 15.9435 4.05678C15.9906 5.08627 16.0002 5.39451 16.0002 8.00031C16.0002 10.6061 15.9906 10.9144 15.9435 11.9438C15.9361 12.5626 15.8225 13.1755 15.6078 13.7559C15.4455 14.1768 15.1967 14.559 14.8777 14.878C14.5587 15.1969 14.1764 15.4456 13.7555 15.6078C13.1751 15.823 12.5621 15.9366 11.9432 15.9435C10.9147 15.9906 10.6055 16.0002 7.99969 16.0002C5.39388 16.0002 5.08565 15.9911 4.0571 15.9435" fill="url(#paint0_radial_321_2916)"/>
<path d="M4.05725 15.9434C3.43839 15.9365 2.82534 15.823 2.24502 15.6078C1.82125 15.4512 1.43784 15.2018 1.12282 14.878C0.798081 14.5636 0.548342 14.1801 0.392157 13.7559C0.177216 13.1756 0.0638717 12.5626 0.057098 11.9438C0.00956862 10.9151 0 10.6066 0 8C0 5.39341 0.0105098 5.08596 0.0566274 4.05647C0.0642231 3.43793 0.177707 2.82525 0.392157 2.24502C0.549103 1.82118 0.798488 1.43761 1.1222 1.1222C1.43682 0.797746 1.82041 0.548239 2.24455 0.392157C2.82487 0.177038 3.43792 0.0635339 4.05678 0.0566274C5.0858 0.00956862 5.39482 0 8 0C10.6052 0 10.914 0.0105098 11.9435 0.0566274C12.5622 0.0641695 13.1751 0.177654 13.7555 0.392157C14.1794 0.548445 14.5629 0.797865 14.8776 1.12204C15.2019 1.4369 15.4514 1.82049 15.6078 2.24455C15.823 2.82486 15.9366 3.43791 15.9435 4.05678C15.9906 5.08627 16.0002 5.39451 16.0002 8.00031C16.0002 10.6061 15.9906 10.9144 15.9435 11.9438C15.9361 12.5626 15.8225 13.1755 15.6078 13.7559C15.4455 14.1768 15.1967 14.559 14.8777 14.878C14.5587 15.1969 14.1764 15.4456 13.7555 15.6078C13.1751 15.823 12.5621 15.9366 11.9432 15.9435C10.9147 15.9906 10.6055 16.0002 7.99969 16.0002C5.39388 16.0002 5.08565 15.9911 4.0571 15.9435" fill="url(#paint1_radial_321_2916)"/>
<path d="M6.03574 8.03451C6.03577 7.64263 6.152 7.25956 6.36975 6.93375C6.58749 6.60793 6.89696 6.354 7.25902 6.20407C7.62109 6.05414 8.01948 6.01495 8.40382 6.09144C8.78816 6.16794 9.14118 6.35668 9.41825 6.63381C9.69531 6.91095 9.88398 7.26402 9.96038 7.64838C10.0368 8.03273 9.99749 8.43111 9.84747 8.79314C9.69746 9.15517 9.44346 9.46458 9.11759 9.68224C8.79172 9.89991 8.40863 10.0161 8.01676 10.016C7.4913 10.0159 6.98739 9.80711 6.61589 9.43551C6.24438 9.06391 6.03569 8.55996 6.03574 8.03451ZM4.96452 8.03451C4.96452 8.63818 5.14353 9.2283 5.47891 9.73024C5.8143 10.2322 6.29099 10.6234 6.84871 10.8544C7.40644 11.0854 8.02014 11.1459 8.61221 11.0281C9.20429 10.9103 9.74815 10.6196 10.175 10.1928C10.6019 9.7659 10.8926 9.22204 11.0103 8.62997C11.1281 8.03789 11.0677 7.42419 10.8367 6.86646C10.6056 6.30874 10.2144 5.83205 9.71248 5.49666C9.21055 5.16128 8.62043 4.98227 8.01676 4.98227C7.61592 4.98225 7.21901 5.06118 6.84869 5.21457C6.47837 5.36795 6.14188 5.59277 5.85845 5.8762C5.57502 6.15963 5.3502 6.49612 5.19682 6.86644C5.04343 7.23676 4.9645 7.63367 4.96452 8.03451ZM10.4765 4.86133C10.4765 5.0024 10.5182 5.14032 10.5966 5.25765C10.6749 5.37497 10.7862 5.46644 10.9165 5.52048C11.0468 5.57453 11.1902 5.58872 11.3286 5.56126C11.467 5.5338 11.5941 5.46592 11.6939 5.36621C11.7937 5.2665 11.8617 5.13945 11.8893 5.0011C11.9168 4.86276 11.9028 4.71934 11.8489 4.58898C11.7949 4.45863 11.7036 4.3472 11.5863 4.26877C11.469 4.19035 11.3312 4.14845 11.1901 4.14839C11.001 4.14847 10.8197 4.2236 10.6859 4.35728C10.5522 4.49095 10.477 4.67224 10.4768 4.86133M5.61566 12.8729C5.23873 12.8688 4.86533 12.7998 4.51181 12.669C4.25543 12.5702 4.02258 12.4188 3.82825 12.2245C3.63393 12.0303 3.48242 11.7975 3.3835 11.5412C3.25264 11.1877 3.18366 10.8143 3.17958 10.4373C3.15071 9.81082 3.14507 9.62258 3.14507 8.03529C3.14507 6.448 3.15134 6.26023 3.17958 5.6331C3.18415 5.25622 3.25312 4.88289 3.3835 4.52925C3.48231 4.27279 3.63377 4.03988 3.82811 3.84555C4.02244 3.65121 4.25535 3.49975 4.51181 3.40094C4.86532 3.27008 5.23873 3.2011 5.61566 3.19702C6.24217 3.16815 6.4304 3.16251 8.01707 3.16251C9.60373 3.16251 9.79212 3.16863 10.4193 3.19717C10.7961 3.20175 11.1695 3.27071 11.5231 3.40109C11.7796 3.49991 12.0125 3.65137 12.2068 3.84571C12.4011 4.04005 12.5526 4.27295 12.6514 4.52941C12.7823 4.88292 12.8513 5.25633 12.8553 5.63325C12.8842 6.2607 12.8898 6.448 12.8898 8.03545C12.8898 9.6229 12.884 9.81051 12.8553 10.4376C12.8509 10.8145 12.782 11.1879 12.6514 11.5415C12.5525 11.7978 12.401 12.0306 12.2067 12.2249C12.0123 12.4191 11.7795 12.5705 11.5231 12.6693C11.1696 12.8002 10.7962 12.8692 10.4193 12.8733C9.79275 12.9021 9.60452 12.9078 8.01707 12.9078C6.42962 12.9078 6.24201 12.902 5.61566 12.8733M5.5664 2.12674C5.0732 2.13644 4.58522 2.22979 4.12326 2.40282C3.72836 2.5555 3.36972 2.78903 3.07034 3.08841C2.77096 3.38779 2.53744 3.74643 2.38475 4.14133C2.21175 4.60329 2.1184 5.09127 2.10868 5.58447C2.07934 6.21819 2.07275 6.42086 2.07275 8.03513C2.07275 9.64941 2.0795 9.85192 2.10868 10.4858C2.11839 10.979 2.21174 11.467 2.38475 11.9289C2.53745 12.3238 2.77097 12.6825 3.07035 12.9818C3.36973 13.2812 3.72837 13.5148 4.12326 13.6674C4.58524 13.8404 5.07321 13.9337 5.5664 13.9435C6.20044 13.9724 6.40279 13.9794 8.01707 13.9794C9.63134 13.9794 9.83385 13.9727 10.4677 13.9435C10.9609 13.9338 11.4489 13.8404 11.9109 13.6674C12.3058 13.5148 12.6644 13.2812 12.9638 12.9818C13.2632 12.6825 13.4967 12.3238 13.6494 11.9289C13.8226 11.467 13.916 10.979 13.9255 10.4858C13.9543 9.85161 13.9609 9.64941 13.9609 8.03513C13.9609 6.42086 13.9542 6.21835 13.9255 5.58447C13.9158 5.09127 13.8224 4.60329 13.6494 4.14133C13.4967 3.7465 13.2632 3.38792 12.9639 3.08855C12.6646 2.78917 12.3061 2.55561 11.9113 2.40282C11.4494 2.22968 10.9614 2.13632 10.4682 2.12674C9.83432 2.09772 9.63181 2.09082 8.01785 2.09082C6.40389 2.09082 6.20091 2.09757 5.56671 2.12674" fill="white"/>
</g>
<defs>
<radialGradient id="paint0_radial_321_2916" cx="0" cy="0" r="1" gradientUnits="userSpaceOnUse" gradientTransform="translate(1.03545 15.6496) scale(20.314)">
<stop offset="0.09" stop-color="#FA8F21"/>
<stop offset="0.78" stop-color="#D82D7E"/>
</radialGradient>
<radialGradient id="paint1_radial_321_2916" cx="0" cy="0" r="1" gradientUnits="userSpaceOnUse" gradientTransform="translate(11.0827 15.1357) scale(17.8765)">
<stop offset="0.64" stop-color="#8C3AAA" stop-opacity="0"/>
<stop offset="1" stop-color="#8C3AAA"/>
</radialGradient>
<clipPath id="clip0_321_2916">
<rect width="16" height="16" fill="white"/>
</clipPath>
</defs>
</svg>
