<svg width="16" height="16" viewBox="0 0 16 16" fill="none" xmlns="http://www.w3.org/2000/svg">
<path d="M11.3333 1.33301H4.66659C2.79992 1.33301 1.33325 2.79967 1.33325 4.66634V11.333C1.33325 13.1997 2.79992 14.6663 4.66659 14.6663H11.3333C13.1999 14.6663 14.6666 13.1997 14.6666 11.333V4.66634C14.6666 2.79967 13.1999 1.33301 11.3333 1.33301ZM13.3333 11.333C13.3333 12.4663 12.4666 13.333 11.3333 13.333H4.66659C3.53325 13.333 2.66659 12.4663 2.66659 11.333V4.66634C2.66659 3.53301 3.53325 2.66634 4.66659 2.66634H11.3333C12.4666 2.66634 13.3333 3.53301 13.3333 4.66634V11.333Z" fill="black"/>
<path d="M7.99984 4.66602C6.13317 4.66602 4.6665 6.13268 4.6665 7.99935C4.6665 9.86602 6.13317 11.3327 7.99984 11.3327C9.8665 11.3327 11.3332 9.86602 11.3332 7.99935C11.3332 6.13268 9.8665 4.66602 7.99984 4.66602ZM7.99984 9.99935C6.8665 9.99935 5.99984 9.13268 5.99984 7.99935C5.99984 6.86602 6.8665 5.99935 7.99984 5.99935C9.13317 5.99935 9.99984 6.86602 9.99984 7.99935C9.99984 9.13268 9.13317 9.99935 7.99984 9.99935Z" fill="black"/>
<path d="M11.3332 5.33333C11.7014 5.33333 11.9998 5.03486 11.9998 4.66667C11.9998 4.29848 11.7014 4 11.3332 4C10.965 4 10.6665 4.29848 10.6665 4.66667C10.6665 5.03486 10.965 5.33333 11.3332 5.33333Z" fill="black"/>
</svg>
