<svg width="24" height="24" viewBox="0 0 24 24" fill="none" xmlns="http://www.w3.org/2000/svg">
<path fill-rule="evenodd" clip-rule="evenodd" d="M12.3822 4.21376C12.8164 3.87252 13.4451 3.94792 13.7863 4.38217L18.3676 10.2122C18.7767 10.7182 18.9999 11.3492 18.9999 12C18.9999 12.6509 18.7767 13.2819 18.3676 13.7879L13.7863 19.6179C13.4451 20.0522 12.8164 20.1276 12.3822 19.7863C11.9479 19.4451 11.8725 18.8164 12.2138 18.3822L16.7998 12.5462L16.8105 12.5328C16.933 12.3823 16.9999 12.1941 16.9999 12C16.9999 11.806 16.933 11.6178 16.8105 11.4673L16.7998 11.4539L12.2138 5.61791C11.8725 5.18366 11.9479 4.555 12.3822 4.21376ZM16.3822 4.21376C16.8164 3.87252 17.4451 3.94792 17.7863 4.38217L22.3676 10.2122C22.7767 10.7182 22.9999 11.3492 22.9999 12C22.9999 12.6509 22.7767 13.2819 22.3676 13.7879L17.7863 19.6179C17.4451 20.0522 16.8164 20.1276 16.3822 19.7863C15.9479 19.4451 15.8725 18.8164 16.2138 18.3822L20.7998 12.5462L20.8105 12.5328C20.933 12.3823 20.9999 12.1941 20.9999 12C20.9999 11.806 20.933 11.6178 20.8105 11.4673L20.7998 11.4539L16.2138 5.61791C15.8725 5.18366 15.9479 4.555 16.3822 4.21376ZM8.00006 4.00004C8.77822 4.00004 9.50145 4.35639 9.99395 4.94867L14.3617 10.2048C14.7745 10.712 14.9999 11.346 14.9999 12C14.9999 12.654 14.7745 13.288 14.3616 13.7953L14.3552 13.8032L9.99696 19.0478C9.75628 19.3421 9.45384 19.58 9.11103 19.7445C8.76651 19.9099 8.38971 19.9971 8.00755 20L8.00006 20.0001C7.22189 20.0001 6.49867 19.6437 6.00616 19.0514L1.63842 13.7953C1.2256 13.2881 1.00024 12.654 1.00024 12C1.00024 11.346 1.22564 10.712 1.63846 10.2048L1.64491 10.1969L6.00313 4.95231C6.24381 4.65797 6.54626 4.4201 6.88908 4.25555C7.2336 4.09017 7.61041 4.00294 7.99256 4.00007L8.00006 4.00004ZM8.0036 6.00005C7.91733 6.00127 7.83235 6.02124 7.75454 6.05859C7.67554 6.09651 7.6059 6.15141 7.55058 6.21936L7.5442 6.22719L3.18705 11.4705C3.06619 11.6205 3.00024 11.8073 3.00024 12C3.00024 12.1928 3.06619 12.3796 3.18706 12.5296L7.54395 17.7727C7.54402 17.7728 7.54388 17.7726 7.54395 17.7727C7.67245 17.9271 7.83978 17.999 7.99651 18C8.08278 17.9988 8.16776 17.9788 8.24557 17.9415C8.32457 17.9036 8.39422 17.8487 8.44953 17.7807L8.45591 17.7729L12.813 12.5296C12.9339 12.3796 12.9999 12.1928 12.9999 12C12.9999 11.8073 12.9339 11.6205 12.8131 11.4705L8.45616 6.22742C8.45609 6.22733 8.45623 6.2275 8.45616 6.22742C8.32766 6.07303 8.16033 6.00112 8.0036 6.00005Z" fill="black"/>
</svg>
