<svg width="20" height="20" viewBox="0 0 20 20" fill="none" xmlns="http://www.w3.org/2000/svg">
    <path d="M16.9561 6.87123H12.4892L13.1076 4.90785C13.2586 4.43646 13.2115 3.92848 12.9759 3.4889C12.7403 3.04932 12.3343 2.71176 11.8418 2.54599L10.3809 2.04859C10.192 1.98452 9.98546 1.98379 9.79608 2.04653C9.60671 2.10928 9.44616 2.23164 9.34155 2.39294C9.316 2.4323 6.94058 6.10053 5.49245 8.07539H1.87097C1.63997 8.07539 1.41844 8.16177 1.2551 8.31554C1.09176 8.4693 1 8.67784 1 8.89529V17.1801C1 17.3976 1.09176 17.6061 1.2551 17.7599C1.41844 17.9136 1.63997 18 1.87097 18H14.4501C14.9873 17.9997 15.5115 17.8445 15.9523 17.5554C16.393 17.2662 16.7292 16.857 16.9155 16.3826L18.8426 11.4895C18.9454 11.2216 19 10.9265 19 10.6351V8.79581C18.9992 8.28575 18.7836 7.79678 18.4005 7.43611C18.0174 7.07545 17.498 6.8725 16.9561 6.87178V6.87123ZM5.07497 16.3602H2.74194V9.71574H5.07555V16.3607L5.07497 16.3602ZM17.2581 10.6351C17.2581 10.7362 17.2395 10.8406 17.207 10.9248L15.281 15.8169C15.2181 15.9764 15.1048 16.1141 14.9564 16.2112C14.8079 16.3083 14.6314 16.3603 14.4506 16.3602H6.8169V9.15438C7.96077 7.61188 9.69748 4.97836 10.4558 3.81793L11.2501 4.0885C11.3238 4.11175 11.3849 4.16135 11.4201 4.22659C11.4553 4.29183 11.4618 4.36749 11.4383 4.43723L10.4877 7.45828C10.4495 7.58058 10.4421 7.70959 10.466 7.83507C10.4899 7.96055 10.5445 8.07906 10.6256 8.18121C10.7066 8.28337 10.8118 8.36636 10.9328 8.4236C11.0538 8.48085 11.1873 8.51079 11.3227 8.51103H16.9555C17.1251 8.51103 17.2581 8.63675 17.2581 8.79581V10.6351Z" fill="#686A67"/>
</svg>
