<svg width="28" height="28" viewBox="0 0 28 28" fill="none" xmlns="http://www.w3.org/2000/svg">
<path fill-rule="evenodd" clip-rule="evenodd" d="M5.83333 6.83301C5.47971 6.83301 5.14057 6.97348 4.89052 7.22353C4.75677 7.35729 4.65437 7.51653 4.58805 7.68985L14 13.9645L23.412 7.68985C23.3456 7.51653 23.2432 7.35729 23.1095 7.22353C22.8594 6.97348 22.5203 6.83301 22.1667 6.83301H5.83333ZM23.5 10.0349L14.5547 15.9984C14.2188 16.2223 13.7812 16.2223 13.4453 15.9984L4.5 10.0349V19.833C4.5 20.1866 4.64048 20.5258 4.89052 20.7758C5.14057 21.0259 5.47971 21.1663 5.83333 21.1663H22.1667C22.5203 21.1663 22.8594 21.0259 23.1095 20.7758C23.3595 20.5258 23.5 20.1866 23.5 19.833V10.0349ZM3.47631 5.80932C4.10143 5.1842 4.94928 4.83301 5.83333 4.83301H22.1667C23.0507 4.83301 23.8986 5.1842 24.5237 5.80932C25.1488 6.43444 25.5 7.28229 25.5 8.16634V19.833C25.5 20.7171 25.1488 21.5649 24.5237 22.19C23.8986 22.8151 23.0507 23.1663 22.1667 23.1663H5.83333C4.94928 23.1663 4.10143 22.8152 3.47631 22.19C2.85119 21.5649 2.5 20.7171 2.5 19.833V8.16634C2.5 7.28229 2.85119 6.43444 3.47631 5.80932Z" fill="black"/>
</svg>
