<svg width="32" height="32" viewBox="0 0 32 32" fill="none" xmlns="http://www.w3.org/2000/svg">
    <path fill-rule="evenodd" clip-rule="evenodd" d="M16 3.66663C10.6816 3.66663 6.33334 8.07873 6.33334 13.5673C6.33334 16.3613 7.45825 20.1258 9.31302 23.1901C11.2015 26.31 13.6083 28.3333 16 28.3333C18.3917 28.3333 20.7985 26.31 22.687 23.1901C24.5418 20.1258 25.6667 16.3613 25.6667 13.5673C25.6667 8.07873 21.3184 3.66663 16 3.66663ZM4.33334 13.5673C4.33334 7.01529 9.53634 1.66663 16 1.66663C22.4637 1.66663 27.6667 7.01529 27.6667 13.5673C27.6667 16.7935 26.4038 20.912 24.398 24.2257C22.4259 27.4837 19.4993 30.3333 16 30.3333C12.5007 30.3333 9.57414 27.4837 7.60205 24.2257C5.59625 20.912 4.33334 16.7935 4.33334 13.5673Z" fill="white"/>
    <path fill-rule="evenodd" clip-rule="evenodd" d="M11.6667 14C11.6667 11.6067 13.6068 9.66663 16 9.66663C18.3932 9.66663 20.3333 11.6067 20.3333 14C20.3333 16.3932 18.3932 18.3333 16 18.3333C13.6068 18.3333 11.6667 16.3932 11.6667 14ZM16 11.6666C14.7113 11.6666 13.6667 12.7113 13.6667 14C13.6667 15.2886 14.7113 16.3333 16 16.3333C17.2887 16.3333 18.3333 15.2886 18.3333 14C18.3333 12.7113 17.2887 11.6666 16 11.6666Z" fill="white"/>
</svg>
