<svg width="20" height="20" viewBox="0 0 20 20" fill="none" xmlns="http://www.w3.org/2000/svg">
<path fill-rule="evenodd" clip-rule="evenodd" d="M9.16654 3C9.07814 3 8.99335 3.03512 8.93084 3.09763C8.86833 3.16014 8.83321 3.24493 8.83321 3.33333V7.1125C8.83321 7.29112 8.73792 7.45617 8.58324 7.54549C8.42856 7.63481 8.23798 7.63484 8.08328 7.54555L4.80994 5.65639C4.73338 5.61219 4.64234 5.60017 4.55695 5.62305C4.47155 5.64593 4.39875 5.70179 4.35454 5.77835L3.52122 7.22166C3.52122 7.22167 3.52122 7.22166 3.52122 7.22166C3.47703 7.29822 3.46504 7.38921 3.48792 7.4746C3.5108 7.55999 3.56667 7.63279 3.64322 7.677L6.91577 9.56702C7.07044 9.65635 7.16571 9.82139 7.16571 10C7.16571 10.1786 7.07044 10.3437 6.91577 10.433L3.64327 12.323C3.56671 12.3672 3.5108 12.44 3.48792 12.5254C3.46504 12.6108 3.47702 12.7018 3.52122 12.7783M3.52122 12.7783L4.35454 14.2217C4.35455 14.2217 4.35454 14.2216 4.35454 14.2217C4.39875 14.2982 4.47156 14.3541 4.55695 14.377C4.64233 14.3998 4.7333 14.3879 4.80986 14.3437C4.80987 14.3437 4.80985 14.3437 4.80986 14.3437L8.08319 12.4537C8.23789 12.3643 8.4285 12.3643 8.5832 12.4536C8.73791 12.543 8.83321 12.708 8.83321 12.8867V16.6667C8.83321 16.7551 8.86833 16.8399 8.93084 16.9024C8.99335 16.9649 9.07813 17 9.16654 17H10.8332C10.9216 17 11.0064 16.9649 11.0689 16.9024C11.1314 16.8399 11.1665 16.7551 11.1665 16.6667V12.8867C11.1665 12.708 11.2619 12.5429 11.4166 12.4536C11.5713 12.3643 11.7619 12.3643 11.9166 12.4537L15.1899 14.3445C15.1899 14.3445 15.1898 14.3445 15.1899 14.3445C15.2664 14.3886 15.3574 14.4007 15.4428 14.3778C15.5282 14.3549 15.601 14.299 15.6452 14.2225C15.6452 14.2225 15.6452 14.2225 15.6452 14.2225L16.4785 12.7792C16.5227 12.7026 16.5347 12.6116 16.5118 12.5262C16.4889 12.4408 16.4331 12.368 16.3565 12.3238L13.0839 10.4329C12.9293 10.3436 12.834 10.1785 12.834 9.99995C12.8341 9.82136 12.9293 9.65634 13.084 9.56702L16.3565 7.67702C16.433 7.63282 16.4889 7.55999 16.5118 7.4746C16.5347 7.3892 16.5227 7.29822 16.4785 7.22166L15.6452 5.77835C15.6452 5.77835 15.6452 5.77835 15.6452 5.77835C15.601 5.7018 15.5282 5.64593 15.4428 5.62305C15.3574 5.60017 15.2664 5.61215 15.1899 5.65635L11.9165 7.54555C11.7618 7.63484 11.5712 7.63481 11.4165 7.54549C11.2618 7.45617 11.1665 7.29112 11.1665 7.1125V3.33333C11.1665 3.24493 11.1314 3.16014 11.0689 3.09763C11.0064 3.03512 10.9216 3 10.8332 3H9.16654M8.22373 2.39052C8.47378 2.14048 8.81292 2 9.16654 2H10.8332C11.1868 2 11.526 2.14048 11.776 2.39052C12.0261 2.64057 12.1665 2.97971 12.1665 3.33333V6.24663L14.6899 4.79032C14.9961 4.61352 15.36 4.5656 15.7016 4.65712C16.0432 4.74864 16.3344 4.97209 16.5112 5.27832L17.3446 6.72166C17.5214 7.0279 17.5693 7.39184 17.4778 7.7334C17.3862 8.07495 17.1628 8.36616 16.8566 8.54298C16.8566 8.54299 16.8566 8.54297 16.8566 8.54298L14.3336 10.0001L16.8566 11.4578C16.8566 11.4579 16.8565 11.4578 16.8566 11.4578C17.1627 11.6347 17.3863 11.9259 17.4778 12.2674C17.5693 12.609 17.5214 12.9729 17.3446 13.2792L16.5112 14.7225C16.3344 15.0287 16.0432 15.2522 15.7016 15.3437C15.36 15.4352 14.9961 15.3873 14.6899 15.2105L12.1665 13.7529V16.6667C12.1665 17.0203 12.0261 17.3594 11.776 17.6095C11.526 17.8595 11.1868 18 10.8332 18H9.16654C8.81292 18 8.47378 17.8595 8.22373 17.6095C7.97368 17.3594 7.83321 17.0203 7.83321 16.6667V13.7527L5.30989 15.2097C5.00365 15.3865 4.6397 15.4344 4.29814 15.3429C3.95657 15.2514 3.66535 15.0279 3.48854 14.7217L2.6552 13.2783C2.47839 12.9721 2.43048 12.6082 2.52199 12.2666C2.61351 11.925 2.83696 11.6338 3.14319 11.457L5.66595 10L3.14319 8.543C3.14318 8.54299 3.14321 8.54301 3.14319 8.543C2.83699 8.36618 2.61351 8.07495 2.52199 7.7334C2.43048 7.39184 2.47839 7.02791 2.65519 6.72167L3.48853 5.27833C3.66535 4.9721 3.95657 4.74864 4.29814 4.65712C4.6397 4.5656 5.00363 4.61352 5.30987 4.79032L7.83321 6.24663V3.33333C7.83321 2.97971 7.97368 2.64057 8.22373 2.39052Z" fill="black"/>
</svg>
