<svg width="24" height="24" viewBox="0 0 24 24" fill="none" xmlns="http://www.w3.org/2000/svg">
<path fill-rule="evenodd" clip-rule="evenodd" d="M16.2929 2.29289C16.6834 1.90237 17.3166 1.90237 17.7071 2.29289L20.7071 5.29289C21.0976 5.68342 21.0976 6.31658 20.7071 6.70711C20.3166 7.09763 19.6834 7.09763 19.2929 6.70711L16.2929 3.70711C15.9024 3.31658 15.9024 2.68342 16.2929 2.29289ZM14.2929 4.29289C14.6834 3.90237 15.3166 3.90237 15.7071 4.29289L18.7071 7.29289C19.0976 7.68342 19.0976 8.31658 18.7071 8.70711L17.1528 10.2614C17.8775 11.0494 18.4153 11.9969 18.7188 13.0339C19.1274 14.4302 19.0908 15.9191 18.6141 17.2936C18.2579 18.3208 17.6691 19.246 16.8996 20H19C19.5523 20 20 20.4477 20 21C20 21.5523 19.5523 22 19 22H12.0058C12.0038 22 12.0019 22 11.9999 22C11.9993 22 11.9987 22 11.998 22H5C4.44772 22 4 21.5523 4 21C4 20.4477 4.44772 20 5 20H6V19C5.44772 19 5 18.5523 5 18C5 17.4477 5.44772 17 6 17H8C8.55228 17 9 17.4477 9 18C9 18.5523 8.55228 19 8 19V20L12.0001 20C12.0017 20 12.0033 20 12.005 20C13.0424 19.9991 14.054 19.6755 14.8994 19.0739C15.7461 18.4714 16.384 17.6201 16.7245 16.6383C17.065 15.6565 17.0912 14.593 16.7993 13.5956C16.5904 12.882 16.2262 12.2276 15.7369 11.6773L12.7071 14.7071C12.3166 15.0976 11.6834 15.0976 11.2929 14.7071L10.5 13.9142L9.70711 14.7071C9.31658 15.0976 8.68342 15.0976 8.29289 14.7071C7.90237 14.3166 7.90237 13.6834 8.29289 13.2929L9.08579 12.5L8.29289 11.7071C7.90237 11.3166 7.90237 10.6834 8.29289 10.2929L14.2929 4.29289ZM12 12.5858L16.5858 8L15 6.41421L10.4142 11L12 12.5858Z" fill="black"/>
</svg>
