<svg xmlns="http://www.w3.org/2000/svg" width="20" height="20" viewBox="0 0 20 20" fill="none">
    <path d="M7.5 7.50008V8.50008V7.50008ZM5.83333 14.1667H4.83333H5.83333ZM13.1667 7.50008C13.1667 8.05237 13.6144 8.50008 14.1667 8.50008C14.719 8.50008 15.1667 8.05237 15.1667 7.50008H13.1667ZM12.5 4.16675V3.16675V4.16675ZM4.16667 4.16675V3.16675V4.16675ZM2.5 5.83341H1.5H2.5ZM2.5 10.8334H1.5H2.5ZM5.83333 13.5001C6.38562 13.5001 6.83333 13.0524 6.83333 12.5001C6.83333 11.9478 6.38562 11.5001 5.83333 11.5001V13.5001ZM6.83333 9.16675C6.83333 8.98994 6.90357 8.82037 7.0286 8.69534L5.61438 7.28113C5.11428 7.78123 4.83333 8.4595 4.83333 9.16675H6.83333ZM7.0286 8.69534C7.15362 8.57032 7.32319 8.50008 7.5 8.50008V6.50008C6.79276 6.50008 6.11448 6.78103 5.61438 7.28113L7.0286 8.69534ZM7.5 8.50008H15.8333V6.50008H7.5V8.50008ZM15.8333 8.50008C16.0101 8.50008 16.1797 8.57032 16.3047 8.69534L17.719 7.28113C17.2189 6.78103 16.5406 6.50008 15.8333 6.50008V8.50008ZM16.3047 8.69534C16.4298 8.82037 16.5 8.98994 16.5 9.16675H18.5C18.5 8.4595 18.219 7.78123 17.719 7.28113L16.3047 8.69534ZM16.5 9.16675V14.1667H18.5V9.16675H16.5ZM16.5 14.1667C16.5 14.3436 16.4298 14.5131 16.3047 14.6382L17.719 16.0524C18.219 15.5523 18.5 14.874 18.5 14.1667H16.5ZM16.3047 14.6382C16.1797 14.7632 16.0101 14.8334 15.8333 14.8334V16.8334C16.5406 16.8334 17.2189 16.5525 17.719 16.0524L16.3047 14.6382ZM15.8333 14.8334H7.5V16.8334H15.8333V14.8334ZM7.5 14.8334C7.32319 14.8334 7.15362 14.7632 7.0286 14.6382L5.61438 16.0524C6.11448 16.5525 6.79276 16.8334 7.5 16.8334V14.8334ZM7.0286 14.6382C6.90357 14.5131 6.83333 14.3436 6.83333 14.1667H4.83333C4.83333 14.874 5.11428 15.5523 5.61438 16.0524L7.0286 14.6382ZM6.83333 14.1667V9.16675H4.83333V14.1667H6.83333ZM9 11.6667C9 12.374 9.28095 13.0523 9.78105 13.5524L11.1953 12.1382C11.0702 12.0131 11 11.8436 11 11.6667H9ZM9.78105 13.5524C10.2811 14.0525 10.9594 14.3334 11.6667 14.3334V12.3334C11.4899 12.3334 11.3203 12.2632 11.1953 12.1382L9.78105 13.5524ZM11.6667 14.3334C12.3739 14.3334 13.0522 14.0525 13.5523 13.5524L12.1381 12.1382C12.013 12.2632 11.8435 12.3334 11.6667 12.3334V14.3334ZM13.5523 13.5524C14.0524 13.0523 14.3333 12.374 14.3333 11.6667H12.3333C12.3333 11.8436 12.2631 12.0131 12.1381 12.1382L13.5523 13.5524ZM14.3333 11.6667C14.3333 10.9595 14.0524 10.2812 13.5523 9.78113L12.1381 11.1953C12.2631 11.3204 12.3333 11.4899 12.3333 11.6667H14.3333ZM13.5523 9.78113C13.0522 9.28103 12.3739 9.00008 11.6667 9.00008V11.0001C11.8435 11.0001 12.013 11.0703 12.1381 11.1953L13.5523 9.78113ZM11.6667 9.00008C10.9594 9.00008 10.2811 9.28103 9.78105 9.78113L11.1953 11.1953C11.3203 11.0703 11.4899 11.0001 11.6667 11.0001V9.00008ZM9.78105 9.78113C9.28095 10.2812 9 10.9595 9 11.6667H11C11 11.4899 11.0702 11.3204 11.1953 11.1953L9.78105 9.78113ZM15.1667 7.50008V5.83341H13.1667V7.50008H15.1667ZM15.1667 5.83341C15.1667 5.12617 14.8857 4.44789 14.3856 3.9478L12.9714 5.36201C13.0964 5.48703 13.1667 5.6566 13.1667 5.83341H15.1667ZM14.3856 3.9478C13.8855 3.4477 13.2072 3.16675 12.5 3.16675V5.16675C12.6768 5.16675 12.8464 5.23699 12.9714 5.36201L14.3856 3.9478ZM12.5 3.16675H4.16667V5.16675H12.5V3.16675ZM4.16667 3.16675C3.45942 3.16675 2.78115 3.4477 2.28105 3.9478L3.69526 5.36201C3.82029 5.23699 3.98986 5.16675 4.16667 5.16675V3.16675ZM2.28105 3.9478C1.78095 4.44789 1.5 5.12617 1.5 5.83341H3.5C3.5 5.6566 3.57024 5.48703 3.69526 5.36201L2.28105 3.9478ZM1.5 5.83341V10.8334H3.5V5.83341H1.5ZM1.5 10.8334C1.5 11.5407 1.78095 12.2189 2.28105 12.719L3.69526 11.3048C3.57024 11.1798 3.5 11.0102 3.5 10.8334H1.5ZM2.28105 12.719C2.78115 13.2191 3.45942 13.5001 4.16667 13.5001V11.5001C3.98986 11.5001 3.82029 11.4298 3.69526 11.3048L2.28105 12.719ZM4.16667 13.5001H5.83333V11.5001H4.16667V13.5001Z" fill="#D0D0D0"/>
</svg>