<svg width="32" height="32" viewBox="0 0 32 32" fill="none" xmlns="http://www.w3.org/2000/svg">
<g clip-path="url(#clip0_321_2770)">
<path d="M3.54194 18.9784C3.36488 18.4919 2.82688 18.2411 2.34031 18.4181L0.679375 19.0227C0.309 19.1575 0.0625 19.5095 0.0625 19.9036V31.0624C0.0625 31.5802 0.48225 31.9999 1 31.9999H5.0615C5.17088 31.9999 5.27938 31.9808 5.38213 31.9434L7.04313 31.3388C7.52969 31.1617 7.7805 30.6237 7.60344 30.1372L3.54194 18.9784Z" fill="black"/>
<path d="M31.7941 22.0141C31.3175 20.7048 29.8215 20.0851 28.5587 20.6738L24.1357 22.7359C24.1305 22.9441 24.11 23.1544 24.0727 23.3655C23.6688 25.6563 21.4765 27.1914 19.1857 26.7875L12.8729 25.6744C12.363 25.5845 12.0225 25.0982 12.1124 24.5883C12.2024 24.0784 12.6886 23.7379 13.1985 23.8279L19.5113 24.941C20.786 25.1657 22.0016 24.3146 22.2263 23.0399C22.4511 21.7652 21.5999 20.5497 20.3252 20.325L17.3119 19.7937C16.4102 19.6347 15.5694 19.2927 14.8127 18.7772C12.6136 17.2789 9.80762 16.9277 7.30693 17.8379L5.37793 18.5401L9.47574 29.7986L17.4178 30.89C18.3899 31.0236 19.363 30.8534 20.232 30.398L30.6649 24.9302C31.7182 24.378 32.2009 23.1317 31.7941 22.0141Z" fill="black"/>
<path d="M15.3238 5H21.6766L23.0766 1.26669C23.3065 0.65375 22.8533 0 22.1988 0H14.8016C14.1471 0 13.694 0.65375 13.9238 1.26669L15.3238 5Z" fill="black"/>
<path d="M15.5497 17.0193C15.2281 16.6353 15.2639 16.063 15.6383 15.7237C16.022 15.376 16.6149 15.4051 16.9626 15.7888C17.3661 16.2341 18.0021 16.4999 18.6637 16.4999C19.2871 16.4999 19.7248 16.1353 19.7877 15.7826C19.8709 15.317 19.157 15.0151 18.9362 14.9337C17.8675 14.5395 16.9184 14.1171 16.8786 14.0992C16.8334 14.0791 16.79 14.0554 16.7486 14.0284C15.9979 13.5391 15.6111 12.6809 15.7392 11.7888C15.8754 10.8401 16.5679 10.0676 17.5464 9.77281C19.4215 9.20781 20.9703 10.4377 21.1008 10.5452C21.1012 10.5456 21.1017 10.546 21.1022 10.5464C21.1044 10.5482 21.1072 10.5506 21.1084 10.5516L21.1081 10.5519C21.3125 10.7238 21.4426 10.9812 21.4426 11.2692C21.4426 11.787 21.0229 12.2067 20.5051 12.2067C20.2754 12.2067 20.0652 12.1238 19.9021 11.9866L19.9019 11.9869L19.9077 11.9918C19.8991 11.9848 19.0235 11.2863 18.0871 11.5682C17.6889 11.6881 17.6104 11.9488 17.5951 12.0553C17.5847 12.1276 17.5793 12.2989 17.7276 12.4245C17.9793 12.5346 18.7539 12.8681 19.5849 13.1746C21.3648 13.8311 21.8101 15.1226 21.6334 16.1122C21.4442 17.1716 20.5924 17.996 19.488 18.2736L20.6506 18.4786C21.7602 18.6742 22.7274 19.2904 23.3737 20.2134C23.5162 20.417 23.6393 20.63 23.7427 20.8504L27.7187 18.9967V16.5189C27.7187 14.3306 27.1106 12.1899 25.9601 10.3284C25.1151 8.96113 24.0037 7.78925 22.6979 6.875H14.3022C12.9964 7.78925 11.8851 8.96113 11.04 10.3284C10.0692 11.8991 9.48468 13.6685 9.32568 15.4976C9.59493 15.4762 9.86562 15.4649 10.1375 15.4649C12.0662 15.4649 13.9293 16.0012 15.5497 17.0193Z" fill="black"/>
</g>
<defs>
<clipPath id="clip0_321_2770">
<rect width="32" height="32" fill="white"/>
</clipPath>
</defs>
</svg>
