<svg width="24" height="24" viewBox="0 0 24 24" fill="none" xmlns="http://www.w3.org/2000/svg">
<path fill-rule="evenodd" clip-rule="evenodd" d="M8 4C7.73478 4 7.48043 4.10536 7.29289 4.29289C7.10536 4.48043 7 4.73478 7 5V7.76393L8.3664 10.4967C8.36641 10.4968 8.36639 10.4967 8.3664 10.4967C8.78299 11.3298 8.99994 12.2485 9 13.1799V19C9 19.3439 8.94094 19.6818 8.82843 20H18C18.2652 20 18.5196 19.8946 18.7071 19.7071C18.8946 19.5196 19 19.2652 19 19V13.1801C19 13.18 19 13.1801 19 13.1801C18.9999 12.5591 18.8553 11.9466 18.5776 11.3913L17.6336 9.50327C17.6336 9.50325 17.6336 9.50329 17.6336 9.50327C17.217 8.67019 17.0001 7.7515 17 6.82007V5C17 4.73478 16.8946 4.48043 16.7071 4.29289C16.5196 4.10536 16.2652 4 16 4H8ZM6 22C5.20435 22 4.44129 21.6839 3.87868 21.1213C3.31607 20.5587 3 19.7957 3 19V13.18C3.00006 12.2486 3.21698 11.3299 3.63357 10.4968C3.63358 10.4968 3.63356 10.4968 3.63357 10.4968L5 7.76393V5C5 4.20435 5.31607 3.44129 5.87868 2.87868C6.44129 2.31607 7.20435 2 8 2H16C16.7956 2 17.5587 2.31607 18.1213 2.87868C18.6839 3.44129 19 4.20435 19 5V6.81993C19 6.81995 19 6.81991 19 6.81993C19.0001 7.44088 19.1447 8.05336 19.4224 8.60873L20.3664 10.4967C20.783 11.3298 20.9999 12.2485 21 13.1799V19C21 19.7957 20.6839 20.5587 20.1213 21.1213C19.5587 21.6839 18.7957 22 18 22H6ZM6 10.2361L5.42243 11.3912C5.1447 11.9466 5.00005 12.5591 5 13.18C5 13.18 5 13.18 5 13.18V19C5 19.2652 5.10536 19.5196 5.29289 19.7071C5.48043 19.8946 5.73478 20 6 20C6.26522 20 6.51957 19.8946 6.70711 19.7071C6.89464 19.5196 7 19.2652 7 19V13.1801C7 13.18 7 13.1801 7 13.1801C6.99995 12.5591 6.85533 11.9466 6.5776 11.3913L6 10.2361ZM10 7C10 6.44772 10.4477 6 11 6H13C13.5523 6 14 6.44772 14 7C14 7.55228 13.5523 8 13 8H11C10.4477 8 10 7.55228 10 7ZM11.8787 12.8787C12.4413 12.3161 13.2043 12 14 12C14.7957 12 15.5587 12.3161 16.1213 12.8787C16.6839 13.4413 17 14.2043 17 15C17 15.7957 16.6839 16.5587 16.1213 17.1213C15.5587 17.6839 14.7957 18 14 18C13.2043 18 12.4413 17.6839 11.8787 17.1213C11.3161 16.5587 11 15.7957 11 15C11 14.2043 11.3161 13.4413 11.8787 12.8787ZM14 14C13.7348 14 13.4804 14.1054 13.2929 14.2929C13.1054 14.4804 13 14.7348 13 15C13 15.2652 13.1054 15.5196 13.2929 15.7071C13.4804 15.8946 13.7348 16 14 16C14.2652 16 14.5196 15.8946 14.7071 15.7071C14.8946 15.5196 15 15.2652 15 15C15 14.7348 14.8946 14.4804 14.7071 14.2929C14.5196 14.1054 14.2652 14 14 14Z" fill="black"/>
</svg>
