<svg width="28" height="28" viewBox="0 0 28 28" fill="white" xmlns="http://www.w3.org/2000/svg">
<path fill-rule="evenodd" clip-rule="evenodd" d="M5.83333 5.66699C5.47971 5.66699 5.14057 5.80747 4.89052 6.05752C4.64674 6.3013 4.50711 6.62976 4.50026 6.97377C4.76957 11.2682 6.59696 15.3171 9.64007 18.3603C12.6832 21.4034 16.7321 23.2308 21.0265 23.5001C21.3706 23.4932 21.699 23.3536 21.9428 23.1098C22.1929 22.8598 22.3333 22.5206 22.3333 22.167V18.1774L17.9193 16.4118L16.6075 18.5982C16.3397 19.0444 15.7744 19.2107 15.3077 18.9805C12.5768 17.6337 10.3666 15.4235 9.01981 12.6926C8.78961 12.2259 8.9559 11.6606 9.40217 11.3928L11.5886 10.081L9.82297 5.66699H5.83333ZM3.47631 4.6433C4.10143 4.01818 4.94928 3.66699 5.83333 3.66699H10.5C10.9089 3.66699 11.2766 3.91594 11.4285 4.2956L13.7618 10.1289C13.9441 10.5847 13.7687 11.1053 13.3478 11.3578L11.2516 12.6156C12.2619 14.3171 13.6832 15.7385 15.3847 16.7488L16.6425 14.6525C16.895 14.2316 17.4157 14.0562 17.8714 14.2385L23.7047 16.5718C24.0844 16.7237 24.3333 17.0914 24.3333 17.5003V22.167C24.3333 23.051 23.9821 23.8989 23.357 24.524C22.7319 25.1491 21.8841 25.5003 21 25.5003C20.9798 25.5003 20.9595 25.4997 20.9393 25.4985C16.1447 25.2071 11.6224 23.1711 8.22586 19.7745C4.82927 16.3779 2.79321 11.8556 2.50184 7.06098C2.50061 7.04079 2.5 7.02056 2.5 7.00033C2.5 6.11627 2.85119 5.26842 3.47631 4.6433Z" fill="current"/>
</svg>
