<svg width="20" height="20" viewBox="0 0 20 20" fill="none" xmlns="http://www.w3.org/2000/svg">
<path fill-rule="evenodd" clip-rule="evenodd" d="M5.756 2.42267C6.21859 1.96008 6.84599 1.7002 7.5002 1.7002H12.5002C13.1544 1.7002 13.7818 1.96008 14.2444 2.42267C14.707 2.88525 14.9669 3.51266 14.9669 4.16686V6.7002H15.8335C16.4877 6.7002 17.1151 6.96008 17.5777 7.42267C18.0403 7.88525 18.3002 8.51266 18.3002 9.16686V12.5002C18.3002 13.1544 18.0403 13.7818 17.5777 14.2444C17.1151 14.707 16.4877 14.9669 15.8335 14.9669H14.9669V15.8335C14.9669 16.4877 14.707 17.1151 14.2444 17.5777C13.7818 18.0403 13.1544 18.3002 12.5002 18.3002H7.5002C6.84599 18.3002 6.21859 18.0403 5.756 17.5777C5.29341 17.1151 5.03353 16.4877 5.03353 15.8335V14.9669H4.16686C3.51266 14.9669 2.88525 14.707 2.42267 14.2444C1.96008 13.7818 1.7002 13.1544 1.7002 12.5002V9.16686C1.7002 8.51266 1.96008 7.88526 2.42267 7.42267C2.88525 6.96008 3.51266 6.7002 4.16686 6.7002H5.03353V4.16686C5.03353 3.51266 5.29341 2.88525 5.756 2.42267ZM4.16686 8.3002C3.93701 8.3002 3.71657 8.3915 3.55404 8.55404C3.3915 8.71657 3.3002 8.93701 3.3002 9.16686V12.5002C3.3002 12.73 3.3915 12.9505 3.55404 13.113C3.71657 13.2756 3.93701 13.3669 4.16686 13.3669H5.03353V12.5002C5.03353 11.846 5.29341 11.2186 5.756 10.756C6.21859 10.2934 6.84599 10.0335 7.5002 10.0335H12.5002C13.1544 10.0335 13.7818 10.2934 14.2444 10.756C14.707 11.2186 14.9669 11.846 14.9669 12.5002V13.3669H15.8335C16.0634 13.3669 16.2838 13.2756 16.4464 13.113C16.6089 12.9505 16.7002 12.73 16.7002 12.5002V9.16686C16.7002 8.93701 16.6089 8.71657 16.4464 8.55404C16.2838 8.3915 16.0634 8.3002 15.8335 8.3002H4.16686ZM13.3669 6.7002H6.63353V4.16686C6.63353 3.93701 6.72484 3.71657 6.88737 3.55404C7.0499 3.3915 7.27034 3.3002 7.5002 3.3002H12.5002C12.73 3.3002 12.9505 3.3915 13.113 3.55404C13.2756 3.71657 13.3669 3.93701 13.3669 4.16686V6.7002ZM13.3669 12.5002C13.3669 12.2703 13.2756 12.0499 13.113 11.8874C12.9505 11.7248 12.73 11.6335 12.5002 11.6335H7.5002C7.27034 11.6335 7.0499 11.7248 6.88737 11.8874C6.72484 12.0499 6.63353 12.2703 6.63353 12.5002V15.8335C6.63353 16.0634 6.72484 16.2838 6.88737 16.4464C7.0499 16.6089 7.27034 16.7002 7.5002 16.7002H12.5002C12.73 16.7002 12.9505 16.6089 13.113 16.4464C13.2756 16.2838 13.3669 16.0634 13.3669 15.8335V12.5002Z" fill="black"/>
</svg>
