<svg width="24" height="24" viewBox="0 0 24 24" fill="none" xmlns="http://www.w3.org/2000/svg">
<path fill-rule="evenodd" clip-rule="evenodd" d="M13.0253 3.00022C13.1482 2.4618 13.6844 2.12501 14.2228 2.24798C16.4318 2.75249 18.4041 3.99202 19.8167 5.76365C21.2293 7.53527 21.9986 9.73401 21.9986 11.9999C21.9986 14.2657 21.2293 16.4645 19.8167 18.2361C18.4041 20.0077 16.4318 21.2473 14.2228 21.7518C13.6844 21.8747 13.1482 21.538 13.0253 20.9995C12.9023 20.4611 13.2391 19.9249 13.7775 19.802C15.5448 19.3983 17.1228 18.4066 18.2529 16.9892C19.3831 15.5718 19.9986 13.8127 19.9986 11.9999C19.9986 10.187 19.3831 8.42792 18.2529 7.01052C17.1228 5.59311 15.5448 4.60141 13.7775 4.19777C13.2391 4.0748 12.9023 3.53864 13.0253 3.00022ZM10.9753 3.00128C11.0977 3.53983 10.7603 4.07563 10.2217 4.19801C9.23777 4.42162 8.30533 4.83041 7.47417 5.40257C7.01925 5.71573 6.3966 5.60082 6.08344 5.14591C5.77028 4.69099 5.8852 4.06834 6.34011 3.75518C7.38026 3.03914 8.54716 2.52757 9.77854 2.24774C10.3171 2.12535 10.8529 2.46272 10.9753 3.00128ZM4.67785 6.64517C5.16093 6.91285 5.33555 7.52146 5.06788 8.00454L4.90477 8.29891C4.52366 9.02926 4.25186 9.82543 4.11029 10.666C4.01857 11.2106 3.50271 11.5777 2.9581 11.486C2.41348 11.3943 2.04635 10.8784 2.13807 10.3338C2.31585 9.27822 2.65818 8.27786 3.13829 7.36099L3.14948 7.3402L3.31848 7.0352C3.58616 6.55212 4.19477 6.3775 4.67785 6.64517ZM12.0002 6.99988C12.5524 6.99988 13.0002 7.4476 13.0002 7.99988V11.9999C13.0002 12.5522 12.5524 12.9999 12.0002 12.9999C11.4479 12.9999 11.0002 12.5522 11.0002 11.9999V7.99988C11.0002 7.4476 11.4479 6.99988 12.0002 6.99988ZM3.07443 13.5402C3.60498 13.3868 4.15943 13.6926 4.31281 14.2232C4.55019 15.0443 4.91826 15.8218 5.40288 16.5259C5.71601 16.9809 5.60106 17.6035 5.14612 17.9166C4.69119 18.2298 4.06854 18.1148 3.75541 17.6599C3.14904 16.7789 2.6885 15.806 2.39149 14.7786C2.2381 14.2481 2.54387 13.6936 3.07443 13.5402ZM12.0002 14.9999C12.5524 14.9999 13.0002 15.4476 13.0002 15.9999V16.0099C13.0002 16.5622 12.5524 17.0099 12.0002 17.0099C11.4479 17.0099 11.0002 16.5622 11.0002 16.0099V15.9999C11.0002 15.4476 11.4479 14.9999 12.0002 14.9999ZM6.65332 19.3094C6.92866 18.8306 7.53997 18.6657 8.01873 18.941C8.70588 19.3362 9.44833 19.6263 10.2214 19.8017C10.76 19.9238 11.0976 20.4595 10.9754 20.9981C10.8532 21.5367 10.3176 21.8743 9.77897 21.7521C8.81124 21.5326 7.88183 21.1695 7.02163 20.6748C6.54288 20.3994 6.37798 19.7881 6.65332 19.3094Z" fill="black"/>
</svg>
