<svg width="24" height="24" viewBox="0 0 24 24" fill="none" xmlns="http://www.w3.org/2000/svg">
<path fill-rule="evenodd" clip-rule="evenodd" d="M11 4C10.7348 4 10.4804 4.10536 10.2929 4.29289C10.1054 4.48043 10 4.73478 10 5C10 5.26522 10.1054 5.51957 10.2929 5.70711C10.4804 5.89464 10.7348 6 11 6H13C13.2652 6 13.5196 5.89464 13.7071 5.70711C13.8946 5.51957 14 5.26522 14 5C14 4.73478 13.8946 4.48043 13.7071 4.29289C13.5196 4.10536 13.2652 4 13 4H11ZM8.87868 2.87868C9.44129 2.31607 10.2044 2 11 2H13C13.7956 2 14.5587 2.31607 15.1213 2.87868C15.4407 3.19808 15.6807 3.5821 15.8284 4H17C17.7956 4 18.5587 4.31607 19.1213 4.87868C19.6839 5.44129 20 6.20435 20 7V19C20 19.7957 19.6839 20.5587 19.1213 21.1213C18.5587 21.6839 17.7957 22 17 22H7C6.20435 22 5.44129 21.6839 4.87868 21.1213C4.31607 20.5587 4 19.7957 4 19V7C4 6.20435 4.31607 5.44129 4.87868 4.87868C5.44129 4.31607 6.20435 4 7 4H8.17157C8.31933 3.5821 8.55928 3.19808 8.87868 2.87868ZM8.17157 6H7C6.73478 6 6.48043 6.10536 6.29289 6.29289C6.10536 6.48043 6 6.73478 6 7V19C6 19.2652 6.10536 19.5196 6.29289 19.7071C6.48043 19.8946 6.73478 20 7 20H17C17.2652 20 17.5196 19.8946 17.7071 19.7071C17.8946 19.5196 18 19.2652 18 19V7C18 6.73478 17.8946 6.48043 17.7071 6.29289C17.5196 6.10536 17.2652 6 17 6H15.8284C15.6807 6.4179 15.4407 6.80192 15.1213 7.12132C14.5587 7.68393 13.7956 8 13 8H11C10.2044 8 9.44129 7.68393 8.87868 7.12132C8.55928 6.80192 8.31933 6.4179 8.17157 6ZM12 9C12.5523 9 13 9.44772 13 10H14C14.5523 10 15 10.4477 15 11C15 11.5523 14.5523 12 14 12H11.5C11.3674 12 11.2402 12.0527 11.1464 12.1464C11.0527 12.2402 11 12.3674 11 12.5C11 12.6326 11.0527 12.7598 11.1464 12.8536C11.2402 12.9473 11.3674 13 11.5 13H12.5C13.163 13 13.7989 13.2634 14.2678 13.7322C14.7366 14.2011 15 14.837 15 15.5C15 16.163 14.7366 16.7989 14.2678 17.2678C13.9186 17.617 13.4767 17.8522 13 17.9495V18C13 18.5523 12.5523 19 12 19C11.4477 19 11 18.5523 11 18H10C9.44772 18 9 17.5523 9 17C9 16.4477 9.44772 16 10 16H12.5C12.6326 16 12.7598 15.9473 12.8536 15.8536C12.9473 15.7598 13 15.6326 13 15.5C13 15.3674 12.9473 15.2402 12.8536 15.1464C12.7598 15.0527 12.6326 15 12.5 15H11.5C10.837 15 10.2011 14.7366 9.73223 14.2678C9.26339 13.7989 9 13.163 9 12.5C9 11.837 9.26339 11.2011 9.73223 10.7322C10.0814 10.383 10.5233 10.1478 11 10.0505V10C11 9.44772 11.4477 9 12 9Z" fill="black"/>
</svg>
