<svg width="24" height="24" viewBox="0 0 24 24" fill="none" xmlns="http://www.w3.org/2000/svg">
<path fill-rule="evenodd" clip-rule="evenodd" d="M16.9456 3.00148C16.9637 3.00049 16.9818 3 17 3C18.0609 3 19.0783 3.42143 19.8284 4.17157C20.5786 4.92172 21 5.93913 21 7C21 7.01816 20.9995 7.03631 20.9985 7.05444C20.8908 9.02926 20.2 10.9278 19.0133 12.51C17.9586 13.9164 16.5542 15.0167 14.9448 15.7048C14.821 16.6569 14.5022 17.576 14.0057 18.4034C13.3933 19.4241 12.5307 20.2718 11.4995 20.8663C11.2083 21.0342 10.8522 21.0446 10.5518 20.8939C10.2513 20.7433 10.0467 20.4518 10.007 20.118C9.96001 19.7227 9.87968 19.3343 9.76786 18.9567C9.22905 19.5049 8.60068 19.9637 7.90563 20.3113C6.65847 20.9349 5.25349 21.1718 3.8708 20.9916C3.421 20.933 3.06698 20.579 3.00837 20.1292C2.82823 18.7465 3.06514 17.3415 3.68872 16.0944C4.03624 15.3993 4.49504 14.7709 5.04332 14.2321C4.66566 14.1203 4.27728 14.04 3.88199 13.993C3.54823 13.9533 3.25672 13.7487 3.10608 13.4482C2.95543 13.1478 2.96579 12.7917 3.13366 12.5005C3.72818 11.4693 4.57586 10.6067 5.59657 9.99428C6.42404 9.4978 7.34306 9.17903 8.29522 9.05519C8.98333 7.44584 10.0836 6.04143 11.49 4.98665C13.0722 3.8 14.9707 3.10916 16.9456 3.00148ZM7.01887 15.1739C6.36869 15.6443 5.83892 16.2661 5.47758 16.9888C5.15585 17.6322 4.97822 18.3345 4.95287 19.0471C5.66547 19.0218 6.36774 18.8441 7.0112 18.5224C7.7339 18.1611 8.35568 17.6313 8.82608 16.9811C8.58474 16.6297 8.31048 16.2992 8.00565 15.9943C7.70082 15.6895 7.37028 15.4153 7.01887 15.1739ZM17.0253 5.00016C15.4559 5.09147 13.948 5.64317 12.69 6.58665C11.4242 7.53597 10.4684 8.83931 9.94333 10.3319C9.80652 10.7208 9.44506 10.9858 9.03301 10.9995C8.18323 11.0275 7.35464 11.2718 6.62556 11.7093C6.3148 11.8957 6.02649 12.1146 5.76507 12.3615C7.13609 12.7943 8.3917 13.552 9.41986 14.5801C10.448 15.6083 11.2057 16.8639 11.6385 18.2349C11.8854 17.9735 12.1043 17.6852 12.2907 17.3744C12.7282 16.6454 12.9725 15.8168 13.0005 14.967C13.0142 14.5549 13.2792 14.1935 13.6682 14.0567C15.1607 13.5316 16.464 12.5758 17.4133 11.31C18.3568 10.052 18.9085 8.54409 18.9998 6.97471C18.9933 6.45342 18.7833 5.95489 18.4142 5.58579C18.0451 5.21668 17.5466 5.00674 17.0253 5.00016ZM13.5858 7.58579C13.9609 7.21071 14.4696 7 15 7C15.5304 7 16.0391 7.21071 16.4142 7.58579C16.7893 7.96086 17 8.46957 17 9C17 9.53043 16.7893 10.0391 16.4142 10.4142C16.0391 10.7893 15.5304 11 15 11C14.4696 11 13.9609 10.7893 13.5858 10.4142C13.2107 10.0391 13 9.53043 13 9C13 8.46957 13.2107 7.96086 13.5858 7.58579Z" fill="black"/>
</svg>
