<svg width="20" height="20" viewBox="0 0 20 20" fill="none" xmlns="http://www.w3.org/2000/svg">
<path fill-rule="evenodd" clip-rule="evenodd" d="M12.6667 2.66674C13.2856 2.04787 14.125 1.7002 15.0002 1.7002C15.8754 1.7002 16.7148 2.04787 17.3336 2.66674C17.9525 3.28561 18.3002 4.12498 18.3002 5.0002C18.3002 5.87541 17.9525 6.71478 17.3336 7.33365C16.7148 7.95252 15.8754 8.3002 15.0002 8.3002C14.125 8.3002 13.2856 7.95252 12.6667 7.33365C12.5997 7.26662 12.5359 7.19701 12.4753 7.12504L8.22789 9.31311C8.27561 9.53729 8.3002 9.76747 8.3002 10.0002C8.3002 10.2329 8.27561 10.4631 8.22789 10.6873L12.4753 12.8753C12.5359 12.8034 12.5997 12.7338 12.6667 12.6667C13.2856 12.0479 14.125 11.7002 15.0002 11.7002C15.8754 11.7002 16.7148 12.0479 17.3336 12.6667C17.9525 13.2856 18.3002 14.125 18.3002 15.0002C18.3002 15.8754 17.9525 16.7148 17.3336 17.3336C16.7148 17.9525 15.8754 18.3002 15.0002 18.3002C14.125 18.3002 13.2856 17.9525 12.6667 17.3336C12.0479 16.7148 11.7002 15.8754 11.7002 15.0002C11.7002 14.7675 11.7248 14.5373 11.7725 14.3131L7.52509 12.125C7.46452 12.197 7.40067 12.2666 7.33365 12.3336C6.71478 12.9525 5.87541 13.3002 5.0002 13.3002C4.12498 13.3002 3.28561 12.9525 2.66674 12.3336C2.04787 11.7148 1.7002 10.8754 1.7002 10.0002C1.7002 9.12498 2.04787 8.28561 2.66674 7.66674C3.28561 7.04787 4.12498 6.7002 5.0002 6.7002C5.87541 6.7002 6.71478 7.04787 7.33365 7.66674C7.40067 7.73377 7.46451 7.80337 7.52508 7.87533L11.7725 5.68727C11.7248 5.46309 11.7002 5.23291 11.7002 5.0002C11.7002 4.12498 12.0479 3.28561 12.6667 2.66674ZM13.4934 5.78738C13.484 5.76371 13.4733 5.74028 13.4614 5.71715C13.4562 5.70715 13.4509 5.69729 13.4454 5.6876C13.3505 5.4731 13.3002 5.23925 13.3002 5.0002C13.3002 4.54933 13.4793 4.11693 13.7981 3.79811C14.1169 3.4793 14.5493 3.3002 15.0002 3.3002C15.4511 3.3002 15.8835 3.4793 16.2023 3.79811C16.5211 4.11693 16.7002 4.54933 16.7002 5.0002C16.7002 5.45106 16.5211 5.88347 16.2023 6.20228C15.8835 6.52109 15.4511 6.7002 15.0002 6.7002C14.5493 6.7002 14.1169 6.52109 13.7981 6.20228C13.6749 6.0791 13.5726 5.93898 13.4934 5.78738ZM6.50701 9.2131C6.42781 9.06147 6.32547 8.92131 6.20228 8.79811C5.88347 8.4793 5.45106 8.3002 5.0002 8.3002C4.54933 8.3002 4.11693 8.4793 3.79811 8.79811C3.4793 9.11693 3.3002 9.54933 3.3002 10.0002C3.3002 10.4511 3.4793 10.8835 3.79811 11.2023C4.11693 11.5211 4.54933 11.7002 5.0002 11.7002C5.45106 11.7002 5.88347 11.5211 6.20228 11.2023C6.32545 11.0791 6.42778 10.939 6.50697 10.7874C6.51643 10.7637 6.52711 10.7403 6.53902 10.7172C6.54417 10.7072 6.5495 10.6973 6.55501 10.6876C6.64984 10.4731 6.7002 10.2393 6.7002 10.0002C6.7002 9.76111 6.64983 9.52721 6.55497 9.31269C6.54948 9.30302 6.54416 9.2932 6.53902 9.28322C6.52712 9.26013 6.51646 9.23673 6.50701 9.2131ZM13.4454 14.3127C13.3506 14.5272 13.3002 14.7611 13.3002 15.0002C13.3002 15.4511 13.4793 15.8835 13.7981 16.2023C14.1169 16.5211 14.5493 16.7002 15.0002 16.7002C15.4511 16.7002 15.8835 16.5211 16.2023 16.2023C16.5211 15.8835 16.7002 15.4511 16.7002 15.0002C16.7002 14.5493 16.5211 14.1169 16.2023 13.7981C15.8835 13.4793 15.4511 13.3002 15.0002 13.3002C14.5493 13.3002 14.1169 13.4793 13.7981 13.7981C13.6749 13.9213 13.5726 14.0615 13.4934 14.2131C13.4839 14.2367 13.4733 14.2601 13.4614 14.2832C13.4562 14.2932 13.4509 14.303 13.4454 14.3127Z" fill="black"/>
</svg>
