<svg width="32" height="32" viewBox="0 0 32 32" fill="none" xmlns="http://www.w3.org/2000/svg">
<path d="M14.6839 16.0002V29.0055C11.7661 28.0616 9.15087 26.3604 7.10524 24.0756C5.05961 21.7908 3.65678 19.0042 3.03992 16.0002H14.6853H14.6839ZM27.0626 21.0588C24.9294 24.823 21.4657 27.6532 17.3519 28.9935L17.3506 16.0002H28.9613C28.5975 17.7755 27.9568 19.4826 27.0626 21.0588ZM14.6853 3.36816L14.6839 13.3335H2.70259C2.61192 11.4242 2.83726 9.49349 3.38792 7.62416C3.47207 7.33784 3.64984 7.08802 3.89279 6.91469C4.13573 6.74137 4.4298 6.65456 4.72792 6.66816C8.17887 6.82611 11.5748 5.76086 14.3173 3.66016L14.6853 3.36816ZM17.3506 13.3335V3.39616L17.2306 3.29883C19.9203 5.53291 23.3197 6.73257 26.8159 6.6815L27.2719 6.66816C27.57 6.65456 27.8641 6.74137 28.1071 6.91469C28.35 7.08802 28.5278 7.33784 28.6119 7.62416C29.1626 9.49483 29.3879 11.4242 29.2973 13.3335H17.3506Z" fill="black"/>
</svg>
