<svg width="16" height="16" viewBox="0 0 16 16" fill="none" xmlns="http://www.w3.org/2000/svg">
<path d="M7.99989 11.8336L3.88522 13.997L4.67122 9.41496L1.33789 6.17029L5.93789 5.50363L7.99522 1.33496L10.0526 5.50363L14.6526 6.17029L11.3192 9.41496L12.1052 13.997L7.99989 11.8336Z" fill="black"/>
<path fill-rule="evenodd" clip-rule="evenodd" d="M7.99525 0.334961C8.3759 0.334961 8.72353 0.551062 8.89199 0.8924L10.7166 4.58941L14.796 5.18063C15.1729 5.23526 15.4861 5.49922 15.6037 5.86143C15.7213 6.22365 15.623 6.62123 15.3501 6.88687L12.3938 9.76451L13.0909 13.8279C13.1552 14.2032 13.0009 14.5826 12.6927 14.8063C12.3845 15.0299 11.976 15.0592 11.6391 14.8816L7.99939 12.9637L4.35062 14.8821C4.01369 15.0592 3.60542 15.0297 3.29747 14.806C2.98951 14.5822 2.83529 14.2031 2.89965 13.8279L3.59669 9.76451L0.640408 6.88687C0.367512 6.62123 0.269187 6.22365 0.386813 5.86143C0.504439 5.49922 0.817593 5.23526 1.19449 5.18063L5.27396 4.58941L7.09852 0.8924C7.26697 0.551062 7.61461 0.334961 7.99525 0.334961ZM7.99525 3.59454L6.83466 5.94619C6.68894 6.24145 6.40721 6.44606 6.08135 6.49329L3.48933 6.86894L5.36877 8.69839C5.60479 8.92814 5.71255 9.25939 5.65686 9.58403L5.21345 12.1689L7.53456 10.9485C7.82619 10.7952 8.17463 10.7953 8.46611 10.9489L10.7766 12.1665L10.3336 9.58403C10.278 9.25939 10.3857 8.92814 10.6217 8.69839L12.5012 6.86894L9.90916 6.49329C9.5833 6.44606 9.30157 6.24145 9.15585 5.94619L7.99525 3.59454Z" fill="black"/>
</svg>
