<svg xmlns="http://www.w3.org/2000/svg" width="24" height="24" viewBox="0 0 24 24" fill="none">
    <path d="M8.24301 7.33992L8.35062 8.08216C8.59499 8.04673 8.80625 7.8933 8.91554 7.67188L8.24301 7.33992ZM1.86301 8.26492L1.7554 7.52268C1.74134 7.52472 1.72734 7.52716 1.71342 7.52999L1.86301 8.26492ZM1.75001 8.28792L1.60042 7.55299C1.58605 7.55592 1.57176 7.55927 1.55757 7.56303L1.75001 8.28792ZM1.31001 9.97192L1.83314 9.43449L1.83245 9.43382L1.31001 9.97192ZM5.93201 14.4709L6.67122 14.5977C6.71298 14.3542 6.63216 14.1058 6.45514 13.9335L5.93201 14.4709ZM4.84201 20.8259L4.1028 20.6991C4.1006 20.712 4.09873 20.7249 4.09719 20.7379L4.84201 20.8259ZM4.82901 20.9359L4.08419 20.8479C4.08248 20.8624 4.08118 20.877 4.08032 20.8916L4.82901 20.9359ZM6.29301 21.8799L5.94399 21.2161L5.9437 21.2162L6.29301 21.8799ZM11.999 18.8799L12.3487 18.2164C12.13 18.1012 11.8687 18.1011 11.65 18.2161L11.999 18.8799ZM17.692 21.8799L17.3424 22.5434C17.3543 22.5497 17.3663 22.5557 17.3786 22.5613L17.692 21.8799ZM17.792 21.9259L17.4786 22.6073C17.4913 22.6131 17.5041 22.6186 17.5171 22.6237L17.792 21.9259ZM19.144 20.8259L18.4048 20.9528L18.4049 20.9531L19.144 20.8259ZM18.053 14.4709L17.5299 13.9334C17.3528 14.1058 17.272 14.3543 17.3138 14.5978L18.053 14.4709ZM22.677 9.97092L23.2001 10.5084C23.2102 10.4986 23.2201 10.4884 23.2296 10.478L22.677 9.97092ZM22.755 9.88592L23.3076 10.393C23.3178 10.3819 23.3277 10.3704 23.3373 10.3587L22.755 9.88592ZM22.122 8.26592L22.0143 9.00815L22.0145 9.00818L22.122 8.26592ZM15.742 7.33992L15.0694 7.67179C15.1787 7.89322 15.3899 8.04668 15.6343 8.08215L15.742 7.33992ZM12.89 1.55992L12.2173 1.89145L12.2174 1.89179L12.89 1.55992ZM11.993 1.00195V0.251953V1.00195ZM11.096 1.55992L11.7685 1.89188L11.7688 1.89145L11.096 1.55992ZM8.1354 6.59768L1.7554 7.52268L1.97062 9.00716L8.35062 8.08216L8.1354 6.59768ZM1.71342 7.52999L1.60042 7.55299L1.8996 9.02285L2.0126 8.99985L1.71342 7.52999ZM1.55757 7.56303C1.25822 7.6425 0.985315 7.8 0.766735 8.01943L1.82947 9.07802C1.8607 9.04667 1.89968 9.02417 1.94245 9.01281L1.55757 7.56303ZM0.766735 8.01943C0.548156 8.23887 0.39173 8.51239 0.313433 8.81205L1.76471 9.19125C1.7759 9.14844 1.79824 9.10936 1.82947 9.07802L0.766735 8.01943ZM0.313433 8.81205C0.235135 9.11172 0.237771 9.4268 0.321072 9.72511L1.7658 9.32168C1.7539 9.27907 1.75353 9.23406 1.76471 9.19125L0.313433 8.81205ZM0.321072 9.72511C0.404373 10.0234 0.565353 10.2943 0.787574 10.51L1.83245 9.43382C1.8007 9.40299 1.7777 9.3643 1.7658 9.32168L0.321072 9.72511ZM0.786879 10.5094L5.40888 15.0084L6.45514 13.9335L1.83314 9.43449L0.786879 10.5094ZM5.1928 14.3441L4.1028 20.6991L5.58122 20.9527L6.67122 14.5977L5.1928 14.3441ZM4.09719 20.7379L4.08419 20.8479L5.57383 21.0239L5.58683 20.9139L4.09719 20.7379ZM4.08032 20.8916C4.062 21.2012 4.12629 21.5101 4.26661 21.7867L5.60431 21.1081C5.58427 21.0686 5.57508 21.0245 5.5777 20.9802L4.08032 20.8916ZM4.26661 21.7867C4.40693 22.0633 4.61824 22.2977 4.87891 22.4658L5.69178 21.2051C5.65455 21.1811 5.62436 21.1476 5.60431 21.1081L4.26661 21.7867ZM4.87891 22.4658C5.13958 22.6338 5.44023 22.7296 5.75008 22.7433L5.81624 21.2448C5.77197 21.2428 5.72902 21.2291 5.69178 21.2051L4.87891 22.4658ZM5.75008 22.7433C6.05993 22.757 6.36786 22.6881 6.64232 22.5436L5.9437 21.2162C5.90449 21.2369 5.8605 21.2467 5.81624 21.2448L5.75008 22.7433ZM6.64203 22.5438L12.348 19.5438L11.65 18.2161L5.94399 21.2161L6.64203 22.5438ZM11.6494 19.5434L17.3424 22.5434L18.0417 21.2164L12.3487 18.2164L11.6494 19.5434ZM17.3786 22.5613L17.4786 22.6073L18.1054 21.2446L18.0054 21.1986L17.3786 22.5613ZM17.5171 22.6237C17.806 22.7375 18.1199 22.7724 18.4267 22.7248L18.1968 21.2425C18.153 21.2493 18.1081 21.2444 18.0669 21.2281L17.5171 22.6237ZM18.4267 22.7248C18.7335 22.6772 19.0221 22.5489 19.2629 22.353L18.3163 21.1894C18.2819 21.2174 18.2406 21.2357 18.1968 21.2425L18.4267 22.7248ZM19.2629 22.353C19.5038 22.157 19.6881 21.9006 19.7971 21.6099L18.3926 21.0833C18.377 21.1248 18.3507 21.1614 18.3163 21.1894L19.2629 22.353ZM19.7971 21.6099C19.9061 21.3192 19.9358 21.0047 19.8831 20.6987L18.4049 20.9531C18.4124 20.9968 18.4081 21.0417 18.3926 21.0833L19.7971 21.6099ZM19.8832 20.699L18.7922 14.344L17.3138 14.5978L18.4048 20.9528L19.8832 20.699ZM18.5761 15.0084L23.2001 10.5084L22.1539 9.43343L17.5299 13.9334L18.5761 15.0084ZM23.2296 10.478L23.3076 10.393L22.2024 9.37884L22.1244 9.46384L23.2296 10.478ZM23.3373 10.3587C23.5322 10.1185 23.6601 9.83096 23.7078 9.52531L22.2257 9.29413C22.2189 9.33779 22.2006 9.37887 22.1728 9.41318L23.3373 10.3587ZM23.7078 9.52531C23.7554 9.21966 23.7213 8.90683 23.6087 8.61869L22.2115 9.16461C22.2276 9.20577 22.2325 9.25046 22.2257 9.29413L23.7078 9.52531ZM23.6087 8.61869C23.4961 8.33056 23.3091 8.07742 23.0669 7.88506L22.1341 9.05981C22.1687 9.08729 22.1954 9.12345 22.2115 9.16461L23.6087 8.61869ZM23.0669 7.88506C22.8246 7.69271 22.5357 7.56801 22.2295 7.52367L22.0145 9.00818C22.0582 9.01451 22.0995 9.03233 22.1341 9.05981L23.0669 7.88506ZM22.2297 7.5237L15.8497 6.5977L15.6343 8.08215L22.0143 9.00815L22.2297 7.5237ZM16.4146 7.00805L13.5626 1.22805L12.2174 1.89179L15.0694 7.67179L16.4146 7.00805ZM13.5628 1.2284C13.4183 0.935333 13.1948 0.68855 12.9173 0.515982L12.1251 1.78967C12.1647 1.81433 12.1966 1.84958 12.2173 1.89145L13.5628 1.2284ZM12.9173 0.515982C12.6399 0.343414 12.3197 0.251953 11.993 0.251953V1.75195C12.0397 1.75195 12.0854 1.76502 12.1251 1.78967L12.9173 0.515982ZM11.993 0.251953C11.6663 0.251953 11.3461 0.343414 11.0687 0.515982L11.861 1.78967C11.9006 1.76502 11.9463 1.75195 11.993 1.75195V0.251953ZM11.0687 0.515982C10.7913 0.68855 10.5677 0.935333 10.4233 1.2284L11.7688 1.89145C11.7894 1.84958 11.8213 1.81433 11.861 1.78967L11.0687 0.515982ZM10.4235 1.22796L7.57048 7.00796L8.91554 7.67188L11.7685 1.89188L10.4235 1.22796Z" fill="#686A67"/>
</svg>