<svg width="24" height="24" viewBox="0 0 24 24" fill="none" xmlns="http://www.w3.org/2000/svg">
<path fill-rule="evenodd" clip-rule="evenodd" d="M8.177 13.5364C8.177 15.6478 9.88856 17.3594 11.9999 17.3594C14.1113 17.3594 15.8228 15.6478 15.8228 13.5364C15.8228 11.4251 14.1113 9.71352 11.9999 9.71352C9.88856 9.71352 8.177 11.4251 8.177 13.5364ZM11.9999 15.8594C10.717 15.8594 9.677 14.8194 9.677 13.5364C9.677 12.2535 10.717 11.2135 11.9999 11.2135C13.2828 11.2135 14.3228 12.2535 14.3228 13.5364C14.3228 14.8193 13.2828 15.8594 11.9999 15.8594Z" fill="black"/>
<path fill-rule="evenodd" clip-rule="evenodd" d="M8.76718 20.4688C8.47041 20.4688 8.27225 20.1757 8.36735 19.9115C8.90337 18.4223 10.3285 17.3594 11.9999 17.3594C13.6713 17.3594 15.0964 18.4223 15.6325 19.9115C15.7275 20.1757 15.5294 20.4688 15.2326 20.4688H8.76718ZM16.3367 19.658L16.3382 19.6575L16.3367 19.658C7.44754 21.9688 6.50367 20.6602 6.95599 19.4035L8.76718 21.9688C17.4962 20.6602 16.5522 21.9688 15.2326 21.9688L17.0438 19.4035C14.3238 15.8594 16.3004 17.338 17.0438 19.4034C7.69943 17.338 9.67604 15.8594 11.9999 15.8594L6.95599 19.4035" fill="black"/>
<path fill-rule="evenodd" clip-rule="evenodd" d="M3.56763 5.85383C3.56763 7.96518 5.27919 9.67676 7.39052 9.67676C9.50188 9.67676 11.2134 7.96519 11.2134 5.85383C11.2134 3.74251 9.50189 2.0309 7.39052 2.0309C5.27918 2.0309 3.56763 3.74252 3.56763 5.85383ZM7.39052 8.17676C6.10763 8.17676 5.06763 7.13677 5.06763 5.85383C5.06763 4.57092 6.10763 3.5309 7.39052 3.5309C8.67345 3.5309 9.71345 4.57093 9.71345 5.85383C9.71345 7.13676 8.67345 8.17676 7.39052 8.17676Z" fill="black"/>
<path fill-rule="evenodd" clip-rule="evenodd" d="M3.75795 12.2289C3.6629 12.4931 3.86108 12.7861 4.15782 12.7861ZM2.34658 11.7209C1.89434 12.9776 2.83818 14.2861 4.15782 14.2861H8.927C9.34122 14.2861 9.677 13.9503 9.677 13.5361C9.677 13.1219 9.34122 12.7861 8.927 12.7861H4.15782M3.75797 12.2288C4.29404 10.7396 5.71911 9.67676 7.39052 9.67676C8.60241 9.67676 9.68349 10.2345 10.3922 11.1101C10.6529 11.432 11.1251 11.4818 11.4471 11.2212C11.769 10.9606 11.8188 10.4883 11.5582 10.1663C10.5768 8.95398 9.07417 8.17676 7.39052 8.17676C5.06664 8.17676 3.09008 9.65541 2.3466 11.7208L2.34658 11.7209" fill="black"/>
<path fill-rule="evenodd" clip-rule="evenodd" d="M16.6093 8.17676C15.3264 8.17676 14.2864 7.13676 14.2864 5.85383C14.2864 4.57093 15.3264 3.5309 16.6093 3.5309C17.8922 3.5309 18.9322 4.57092 18.9322 5.85383C18.9322 7.13677 17.8922 8.17676 16.6093 8.17676ZM12.7864 5.85383C12.7864 7.96519 14.4979 9.67676 16.6093 9.67676C18.7206 9.67676 20.4322 7.96518 20.4322 5.85383C20.4322 3.74252 18.7206 2.0309 16.6093 2.0309C14.4979 2.0309 12.7864 3.74251 12.7864 5.85383Z" fill="black"/>
<path fill-rule="evenodd" clip-rule="evenodd" d="M14.3229 13.5361C14.3229 13.9503 14.6587 14.2861 15.0729 14.2861H19.8421C21.1617 14.2861 22.1056 12.9776 21.6533 11.7209L21.6533 11.7208C20.9098 9.65541 18.9333 8.17676 16.6094 8.17676C14.9257 8.17676 13.423 8.95398 12.4417 10.1663C12.1811 10.4883 12.2309 10.9606 12.5528 11.2212C12.8748 11.4818 13.347 11.432 13.6076 11.1101C14.3164 10.2345 15.3975 9.67676 16.6094 9.67676C18.2808 9.67676 19.7058 10.7396 20.2419 12.2288M14.3229 13.5361C14.3229 13.1219 14.6587 12.7861 15.0729 12.7861ZM15.0729 12.7861H19.8421ZM19.8421 12.7861C20.1388 12.7861 20.337 12.4931 20.2419 12.2289Z" fill="black"/>
</svg>
