<svg width="28" height="28" viewBox="0 0 28 28" fill="none" xmlns="http://www.w3.org/2000/svg">
<path d="M5.54741 12.8711C10.8087 10.5788 14.3171 9.06757 16.0725 8.33743C21.0846 6.25273 22.1261 5.8906 22.8049 5.87851C22.9542 5.87601 23.288 5.91301 23.5043 6.08847C23.6868 6.23662 23.7371 6.43676 23.7611 6.57723C23.7852 6.7177 23.8151 7.03768 23.7913 7.28771C23.5197 10.1415 22.3445 17.0669 21.7466 20.2632C21.4936 21.6157 20.9954 22.0692 20.5132 22.1136C19.4651 22.21 18.6692 21.4209 17.6541 20.7555C16.0657 19.7142 15.1683 19.0661 13.6264 18.05C11.8445 16.8758 12.9997 16.2304 14.0152 15.1756C14.2809 14.8996 18.8987 10.6993 18.9881 10.3183C18.9993 10.2706 19.0097 10.093 18.9042 9.99922C18.7986 9.90542 18.6429 9.9375 18.5305 9.96301C18.3712 9.99917 15.8336 11.6764 10.9178 14.9947C10.1975 15.4893 9.54509 15.7303 8.96056 15.7177C8.31615 15.7038 7.07658 15.3533 6.15509 15.0538C5.02484 14.6864 4.12654 14.4921 4.20476 13.8682C4.2455 13.5432 4.69305 13.2108 5.54741 12.8711Z" fill="black"/>
</svg>
