<svg width="24" height="24" viewBox="0 0 24 24" fill="none" xmlns="http://www.w3.org/2000/svg">
<path fill-rule="evenodd" clip-rule="evenodd" d="M8.46447 3.46447C9.40215 2.52678 10.6739 2 12 2C13.3261 2 14.5979 2.52678 15.5355 3.46447C16.4732 4.40215 17 5.67392 17 7C17 8.32608 16.4732 9.59785 15.5355 10.5355C14.5979 11.4732 13.3261 12 12 12C10.6739 12 9.40215 11.4732 8.46447 10.5355C7.52678 9.59785 7 8.32608 7 7C7 5.67392 7.52678 4.40215 8.46447 3.46447ZM12 4C11.2044 4 10.4413 4.31607 9.87868 4.87868C9.31607 5.44129 9 6.20435 9 7C9 7.79565 9.31607 8.55871 9.87868 9.12132C10.4413 9.68393 11.2044 10 12 10C12.7956 10 13.5587 9.68393 14.1213 9.12132C14.6839 8.55871 15 7.79565 15 7C15 6.20435 14.6839 5.44129 14.1213 4.87868C13.5587 4.31607 12.7956 4 12 4ZM10 16C9.20435 16 8.44129 16.3161 7.87868 16.8787C7.31607 17.4413 7 18.2044 7 19V21C7 21.5523 6.55228 22 6 22C5.44772 22 5 21.5523 5 21V19C5 17.6739 5.52678 16.4021 6.46447 15.4645C7.40215 14.5268 8.67392 14 10 14H13.5C14.0523 14 14.5 14.4477 14.5 15C14.5 15.5523 14.0523 16 13.5 16H10ZM18.4266 14.0582C19.0863 13.9262 19.7712 14.0213 20.3699 14.328L20.3735 14.3298C20.9705 14.6387 21.4466 15.1389 21.7256 15.7503C22.0046 16.3618 22.0705 17.0491 21.9126 17.7024C21.7547 18.3558 21.3822 18.9372 20.8547 19.3538C20.3273 19.7703 19.6753 19.9979 19.0032 20C18.4509 20.0018 18.0018 19.5555 18 19.0032C17.9982 18.4509 18.4445 18.0018 18.9968 18C19.2213 17.9993 19.439 17.9233 19.6152 17.7842C19.7914 17.645 19.9158 17.4508 19.9685 17.2326C20.0213 17.0144 19.9993 16.7848 19.9061 16.5806C19.8132 16.377 19.6548 16.2103 19.4562 16.1071C19.2598 16.007 19.0353 15.976 18.819 16.0193C18.6021 16.0627 18.4062 16.1782 18.2633 16.3471C17.9064 16.7686 17.2755 16.8211 16.8539 16.4643C16.4324 16.1075 16.3799 15.4765 16.7367 15.0549C17.1714 14.5415 17.767 14.1901 18.4266 14.0582ZM19 21C19.5523 21 20 21.4477 20 22V22.01C20 22.5623 19.5523 23.01 19 23.01C18.4477 23.01 18 22.5623 18 22.01V22C18 21.4477 18.4477 21 19 21Z" fill="black"/>
</svg>
