<svg width="28" height="28" viewBox="0 0 28 28" fill="none" xmlns="http://www.w3.org/2000/svg">
<path fill-rule="evenodd" clip-rule="evenodd" d="M9.99306 4.15973C11.0558 3.09702 12.4971 2.5 14 2.5C15.5029 2.5 16.9442 3.09702 18.0069 4.15973C19.0696 5.22243 19.6667 6.66377 19.6667 8.16667C19.6667 9.66956 19.0696 11.1109 18.0069 12.1736C16.9442 13.2363 15.5029 13.8333 14 13.8333C12.4971 13.8333 11.0558 13.2363 9.99306 12.1736C8.93035 11.1109 8.33333 9.66956 8.33333 8.16667C8.33333 6.66377 8.93035 5.22243 9.99306 4.15973ZM14 4.5C13.0275 4.5 12.0949 4.88631 11.4073 5.57394C10.7196 6.26157 10.3333 7.19421 10.3333 8.16667C10.3333 9.13913 10.7196 10.0718 11.4073 10.7594C12.0949 11.447 13.0275 11.8333 14 11.8333C14.9725 11.8333 15.9051 11.447 16.5927 10.7594C17.2804 10.0718 17.6667 9.13913 17.6667 8.16667C17.6667 7.19421 17.2804 6.26157 16.5927 5.57394C15.9051 4.88631 14.9725 4.5 14 4.5ZM20.7667 18.0129L19.9863 19.5887C19.8404 19.8834 19.559 20.0875 19.2336 20.1346L17.4961 20.3865L18.751 21.6057C18.9876 21.8356 19.0956 22.1675 19.0397 22.4926L18.7427 24.218L20.3026 23.4007C20.5932 23.2484 20.9401 23.2484 21.2308 23.4007L22.79 24.2176L22.4936 22.4923C22.4378 22.1672 22.5458 21.8356 22.7823 21.6057L24.0373 20.3865L22.2997 20.1346C21.9743 20.0875 21.6929 19.8834 21.547 19.5887L20.7667 18.0129ZM23.7691 24.7307L23.7648 24.7284C23.7662 24.7291 23.7677 24.7299 23.7691 24.7307ZM19.9991 15.5513C20.2297 15.4084 20.4955 15.3328 20.7667 15.3328C21.0379 15.3328 21.3037 15.4084 21.5342 15.5513C21.7647 15.6941 21.9508 15.8984 22.0716 16.1412L22.0723 16.1427L23.1063 18.2307L25.4182 18.5658C25.4186 18.5659 25.4189 18.5659 25.4193 18.566M19.9991 15.5513C19.7686 15.6941 19.5825 15.8984 19.4618 16.1412ZM19.4618 16.1412L19.461 16.1427ZM19.461 16.1427L18.427 18.2307ZM18.427 18.2307L16.1162 18.5657C15.8477 18.6036 15.5951 18.716 15.3871 18.89C15.178 19.0649 15.0222 19.295 14.9377 19.5542C14.8531 19.8133 14.8431 20.091 14.9088 20.3556C14.9744 20.6197 15.1127 20.86 15.3081 21.0493C15.3085 21.0497 15.3089 21.05 15.3093 21.0504L16.9792 22.6729L16.5845 24.9662L16.5827 24.9769C16.5398 25.2436 16.5718 25.517 16.6753 25.7666C16.7788 26.0161 16.9495 26.232 17.1686 26.3901C17.3876 26.5482 17.6463 26.6423 17.9157 26.662C18.1851 26.6816 18.4547 26.6259 18.6943 26.5012L20.7667 25.4154L22.8322 26.4976C22.8332 26.4982 22.8343 26.4987 22.8353 26.4992C23.0749 26.6256 23.3451 26.6825 23.6153 26.6636C23.8868 26.6446 24.1474 26.5499 24.3678 26.3902C24.5881 26.2305 24.7592 26.0122 24.8617 25.7602C24.9641 25.5081 24.9939 25.2324 24.9475 24.9643L24.5539 22.673M11.6667 18.5C10.6942 18.5 9.76158 18.8863 9.07394 19.5739C8.38631 20.2616 8 21.1942 8 22.1667V24.5C8 25.0523 7.55228 25.5 7 25.5C6.44772 25.5 6 25.0523 6 24.5V22.1667C6 20.6638 6.59702 19.2224 7.65973 18.1597C8.72243 17.097 10.1638 16.5 11.6667 16.5H12.25C12.8023 16.5 13.25 16.9477 13.25 17.5C13.25 18.0523 12.8023 18.5 12.25 18.5H11.6667Z" fill="black"/>
</svg>
