<svg width="28" height="28" viewBox="0 0 28 28" fill="none" xmlns="http://www.w3.org/2000/svg">
<path fill-rule="evenodd" clip-rule="evenodd" d="M6.49306 4.15973C7.55577 3.09702 8.99711 2.5 10.5 2.5C12.0029 2.5 13.4442 3.09702 14.5069 4.15973C15.5696 5.22243 16.1667 6.66377 16.1667 8.16667C16.1667 9.66956 15.5696 11.1109 14.5069 12.1736C13.4442 13.2363 12.0029 13.8333 10.5 13.8333C8.99711 13.8333 7.55577 13.2363 6.49306 12.1736C5.43036 11.1109 4.83333 9.66956 4.83333 8.16667C4.83333 6.66377 5.43036 5.22243 6.49306 4.15973ZM10.5 4.5C9.52754 4.5 8.59491 4.88631 7.90727 5.57394C7.21964 6.26157 6.83333 7.19421 6.83333 8.16667C6.83333 9.13913 7.21964 10.0718 7.90727 10.7594C8.59491 11.447 9.52754 11.8333 10.5 11.8333C11.4725 11.8333 12.4051 11.447 13.0927 10.7594C13.7804 10.0718 14.1667 9.13913 14.1667 8.16667C14.1667 7.19421 13.7804 6.26157 13.0927 5.57394C12.4051 4.88631 11.4725 4.5 10.5 4.5ZM17.6979 3.40363C17.8349 2.86861 18.3797 2.54593 18.9147 2.68292C20.1336 2.99502 21.214 3.70392 21.9855 4.69786C22.757 5.69181 23.1758 6.91426 23.1758 8.17251C23.1758 9.43075 22.757 10.6532 21.9855 11.6471C21.214 12.6411 20.1336 13.35 18.9147 13.6621C18.3797 13.7991 17.8349 13.4764 17.6979 12.9414C17.5609 12.4064 17.8836 11.8616 18.4186 11.7246C19.2073 11.5226 19.9064 11.0639 20.4056 10.4208C20.9048 9.77766 21.1758 8.98666 21.1758 8.17251C21.1758 7.35835 20.9048 6.56735 20.4056 5.92421C19.9064 5.28106 19.2073 4.82236 18.4186 4.62042C17.8836 4.48343 17.5609 3.93866 17.6979 3.40363ZM8.16667 18.5C7.19421 18.5 6.26158 18.8863 5.57394 19.5739C4.88631 20.2616 4.5 21.1942 4.5 22.1667V24.5C4.5 25.0523 4.05228 25.5 3.5 25.5C2.94772 25.5 2.5 25.0523 2.5 24.5V22.1667C2.5 20.6638 3.09702 19.2224 4.15973 18.1597C5.22243 17.097 6.66377 16.5 8.16667 16.5H12.8333C14.3362 16.5 15.7776 17.097 16.8403 18.1597C17.903 19.2224 18.5 20.6638 18.5 22.1667V24.5C18.5 25.0523 18.0523 25.5 17.5 25.5C16.9477 25.5 16.5 25.0523 16.5 24.5V22.1667C16.5 21.1942 16.1137 20.2616 15.4261 19.5739C14.7384 18.8863 13.8058 18.5 12.8333 18.5H8.16667ZM20.0317 17.425C20.1698 16.8903 20.7152 16.5687 21.25 16.7068C22.461 17.0194 23.5345 17.724 24.3033 18.7105C25.072 19.6971 25.4928 20.9103 25.5 22.1609L25.5 22.1667L25.5 24.5C25.5 25.0523 25.0523 25.5 24.5 25.5C23.9477 25.5 23.5 25.0523 23.5 24.5V22.1699C23.4948 21.3616 23.2226 20.5775 22.7257 19.9398C22.2283 19.3014 21.5336 18.8456 20.75 18.6433C20.2153 18.5052 19.8937 17.9598 20.0317 17.425Z" fill="black"/>
</svg>
