<svg width="24" height="24" viewBox="0 0 24 24" fill="none" xmlns="http://www.w3.org/2000/svg">
<path fill-rule="evenodd" clip-rule="evenodd" d="M8.46447 3.46447C9.40215 2.52678 10.6739 2 12 2C13.3261 2 14.5979 2.52678 15.5355 3.46447C16.4732 4.40215 17 5.67392 17 7C17 8.32608 16.4732 9.59785 15.5355 10.5355C14.5979 11.4732 13.3261 12 12 12C10.6739 12 9.40215 11.4732 8.46447 10.5355C7.52678 9.59785 7 8.32608 7 7C7 5.67392 7.52678 4.40215 8.46447 3.46447ZM12 4C11.2044 4 10.4413 4.31607 9.87868 4.87868C9.31607 5.44129 9 6.20435 9 7C9 7.79565 9.31607 8.55871 9.87868 9.12132C10.4413 9.68393 11.2044 10 12 10C12.7956 10 13.5587 9.68393 14.1213 9.12132C14.6839 8.55871 15 7.79565 15 7C15 6.20435 14.6839 5.44129 14.1213 4.87868C13.5587 4.31607 12.7956 4 12 4ZM17.7929 13.7929C18.1834 13.4024 18.8166 13.4024 19.2071 13.7929C20.0073 14.5931 21.2474 15 22 15C22.5523 15 23 15.4477 23 16C23 18.2164 22.3048 19.9269 21.425 21.1C20.9881 21.6826 20.5009 22.1388 20.0234 22.4571C19.5746 22.7563 19.0336 23 18.5 23C17.9664 23 17.4254 22.7563 16.9766 22.4571C16.4991 22.1388 16.0119 21.6826 15.575 21.1C14.6952 19.9269 14 18.2164 14 16C14 15.4477 14.4477 15 15 15C15.7526 15 16.9927 14.5931 17.7929 13.7929ZM16.0473 16.8818C16.194 18.2161 16.6621 19.2162 17.175 19.9C17.4881 20.3174 17.8134 20.6112 18.0859 20.7929C18.3225 20.9507 18.4636 20.9884 18.497 20.9973C18.4981 20.9976 18.4991 20.9978 18.5 20.9981C18.5009 20.9978 18.5019 20.9976 18.503 20.9973C18.5364 20.9884 18.6775 20.9507 18.9141 20.7929C19.1866 20.6112 19.5119 20.3174 19.825 19.9C20.3379 19.2162 20.806 18.2161 20.9527 16.8818C20.1465 16.7103 19.2662 16.3518 18.5 15.804C17.7338 16.3518 16.8535 16.7103 16.0473 16.8818ZM10 16C9.20435 16 8.44129 16.3161 7.87868 16.8787C7.31607 17.4413 7 18.2044 7 19V21C7 21.5523 6.55228 22 6 22C5.44772 22 5 21.5523 5 21V19C5 17.6739 5.52678 16.4021 6.46447 15.4645C7.40215 14.5268 8.67392 14 10 14H12C12.5523 14 13 14.4477 13 15C13 15.5523 12.5523 16 12 16H10Z" fill="black"/>
</svg>
