<svg width="24" height="24" viewBox="0 0 24 24" fill="none" xmlns="http://www.w3.org/2000/svg">
<path fill-rule="evenodd" clip-rule="evenodd" d="M8.46447 3.46447C9.40215 2.52678 10.6739 2 12 2C13.3261 2 14.5979 2.52678 15.5355 3.46447C16.4732 4.40215 17 5.67392 17 7C17 8.32608 16.4732 9.59785 15.5355 10.5355C14.5979 11.4732 13.3261 12 12 12C10.6739 12 9.40215 11.4732 8.46447 10.5355C7.52678 9.59785 7 8.32608 7 7C7 5.67392 7.52678 4.40215 8.46447 3.46447ZM12 4C11.2044 4 10.4413 4.31607 9.87868 4.87868C9.31607 5.44129 9 6.20435 9 7C9 7.79565 9.31607 8.55871 9.87868 9.12132C10.4413 9.68393 11.2044 10 12 10C12.7956 10 13.5587 9.68393 14.1213 9.12132C14.6839 8.55871 15 7.79565 15 7C15 6.20435 14.6839 5.44129 14.1213 4.87868C13.5587 4.31607 12.7956 4 12 4ZM10 16C9.20435 16 8.44129 16.3161 7.87868 16.8787C7.31607 17.4413 7 18.2044 7 19V21C7 21.5523 6.55228 22 6 22C5.44772 22 5 21.5523 5 21V19C5 17.6739 5.52678 16.4021 6.46447 15.4645C7.40215 14.5268 8.67392 14 10 14H12.5C13.0523 14 13.5 14.4477 13.5 15C13.5 15.5523 13.0523 16 12.5 16H10ZM19.001 14.5C19.5533 14.5 20.001 14.9477 20.001 15.5V16.1716C20.3464 16.2937 20.6687 16.4788 20.9505 16.7197L21.532 16.384C22.0103 16.1078 22.6219 16.2717 22.898 16.75C23.1742 17.2283 23.0103 17.8399 22.532 18.116L21.9505 18.4518C21.9839 18.6313 22.001 18.8148 22.001 19C22.001 19.1851 21.9839 19.3685 21.9506 19.5479L22.5327 19.8838C23.0111 20.1598 23.1752 20.7713 22.8992 21.2497C22.6232 21.7281 22.0117 21.8922 21.5333 21.6162L20.9507 21.2801C20.6689 21.5211 20.3465 21.7063 20.001 21.8284V22.5C20.001 23.0523 19.5533 23.5 19.001 23.5C18.4487 23.5 18.001 23.0523 18.001 22.5V21.8284C17.6557 21.7063 17.3334 21.5213 17.0517 21.2804L16.4697 21.6162C15.9913 21.8922 15.3798 21.7281 15.1038 21.2497C14.8278 20.7713 14.9919 20.1598 15.4703 19.8838L16.0516 19.5485C16.0181 19.3688 16.001 19.1853 16.001 19C16.001 18.8147 16.0181 18.6312 16.0516 18.4515L15.4703 18.1162C14.9919 17.8402 14.8278 17.2287 15.1038 16.7503C15.3798 16.2719 15.9913 16.1078 16.4697 16.3838L17.0517 16.7196C17.3334 16.4787 17.6557 16.2937 18.001 16.1716V15.5C18.001 14.9477 18.4487 14.5 19.001 14.5ZM18.1204 18.5262C18.1258 18.5175 18.131 18.5087 18.1362 18.4997C18.1411 18.4911 18.146 18.4825 18.1506 18.4738C18.1909 18.4087 18.2389 18.3479 18.2939 18.2929C18.4814 18.1054 18.7358 18 19.001 18C19.2662 18 19.5206 18.1054 19.7081 18.2929C19.7687 18.3535 19.8207 18.4211 19.8634 18.4938C19.8646 18.4959 19.8658 18.4979 19.867 18.5C19.8682 18.5021 19.8694 18.5042 19.8706 18.5062C19.9553 18.6554 20.001 18.8254 20.001 19C20.001 19.1746 19.9553 19.3446 19.8706 19.4938C19.8693 19.496 19.8681 19.4981 19.8668 19.5003C19.8657 19.5022 19.8646 19.5042 19.8634 19.5062C19.8208 19.5789 19.7687 19.6465 19.7081 19.7071C19.5206 19.8946 19.2662 20 19.001 20C18.7358 20 18.4814 19.8946 18.2939 19.7071C18.2389 19.6521 18.1909 19.5913 18.1506 19.5261C18.1459 19.5175 18.1411 19.5089 18.1362 19.5003C18.131 19.4913 18.1258 19.4825 18.1204 19.4738C18.0427 19.3295 18.001 19.1669 18.001 19C18.001 18.8331 18.0427 18.6705 18.1204 18.5262Z" fill="black"/>
</svg>
