<svg width="24" height="24" viewBox="0 0 24 24" fill="none" xmlns="http://www.w3.org/2000/svg">
<path fill-rule="evenodd" clip-rule="evenodd" d="M5 7C4.73478 7 4.48043 7.10536 4.29289 7.29289C4.10536 7.48043 4 7.73478 4 8V16C4 16.2652 4.10536 16.5196 4.29289 16.7071C4.48043 16.8946 4.73478 17 5 17H13C13.2652 17 13.5196 16.8946 13.7071 16.7071C13.8946 16.5196 14 16.2652 14 16V8C14 7.73478 13.8946 7.48043 13.7071 7.29289C13.5196 7.10536 13.2652 7 13 7H5ZM16 8.38212V8C16 7.20435 15.6839 6.44129 15.1213 5.87868C14.5587 5.31607 13.7956 5 13 5H5C4.20435 5 3.44129 5.31607 2.87868 5.87868C2.31607 6.44129 2 7.20435 2 8V16C2 16.7956 2.31607 17.5587 2.87868 18.1213C3.44129 18.6839 4.20435 19 5 19H13C13.7957 19 14.5587 18.6839 15.1213 18.1213C15.6839 17.5587 16 16.7957 16 16V15.6179L19.1059 17.1705C19.4107 17.3228 19.7495 17.3948 20.09 17.3794C20.4304 17.3641 20.7613 17.262 21.0512 17.0829C21.3411 16.9038 21.5805 16.6536 21.7465 16.356C21.9126 16.0584 21.9998 15.7233 22 15.3825V8.618C21.9998 8.27722 21.9126 7.9416 21.7465 7.64401C21.5805 7.34641 21.3411 7.09619 21.0512 6.91707C20.7613 6.73796 20.4304 6.63589 20.09 6.62056C19.7496 6.60522 19.4108 6.67713 19.106 6.82946L16 8.38212ZM16 10.6181V13.3819L20 15.3815V8.61853L16 10.6181Z" fill="black"/>
</svg>
