<svg xmlns="http://www.w3.org/2000/svg" width="24" height="24" viewBox="0 0 24 24" fill="none">
    <g clip-path="url(#clip0_1818_24393)">
        <path d="M19.5142 17.2509C21.1124 16.3398 21.6323 14.6468 20.9005 12.6143C20.6518 11.9246 20.2709 11.4701 19.965 11.1048C19.6172 10.6898 19.3875 10.4156 19.3865 9.94689L19.3839 8.1794C19.3807 6.22279 18.6076 4.40471 17.2072 3.06002C15.8237 1.7316 13.9744 1 12 1C10.0257 1 8.17636 1.7316 6.79286 3.06002C5.39247 4.40471 4.61941 6.22279 4.61618 8.17918L4.61236 9.94703C4.61182 10.416 4.38218 10.6903 4.03457 11.1053C3.72879 11.4705 3.34821 11.9249 3.09944 12.6145C2.36779 14.647 2.88763 16.3401 4.48563 17.2513C3.98543 17.9812 3.67542 18.975 3.65229 20.3829C3.65224 20.3854 3.65224 20.3878 3.65224 20.3903V23.5507C3.65224 23.7988 3.8534 24 4.10146 24H11.999C11.9993 24 11.9994 24 11.9997 24H12.0001H12.0005C12.0007 24 12.0009 24 12.0011 24H19.8987C20.1468 24 20.3479 23.7988 20.3479 23.5507V20.3903C20.3479 20.3878 20.3479 20.3854 20.3479 20.3829C20.3247 18.9748 20.0146 17.9808 19.5142 17.2509ZM3.94464 12.9192C4.13929 12.3797 4.43622 12.0251 4.7234 11.6822C5.11005 11.2205 5.50994 10.743 5.51079 9.94851L5.51461 8.18088C5.5205 4.65803 8.36921 1.89844 12 1.89844C15.6308 1.89844 18.4796 4.65803 18.4855 8.18084L18.488 9.9486C18.4898 10.7431 18.8896 11.2203 19.2763 11.6819C19.5636 12.0248 19.8607 12.3795 20.0553 12.919C20.4117 13.9088 20.7124 15.6571 18.9044 16.5584C18.0072 15.7555 16.7891 15.3855 15.5353 15.0049C15.3022 14.9341 15.0635 14.8617 14.8228 14.7854V13.6882C16.2502 12.761 17.1963 11.1527 17.1963 9.32747V8.26547C17.1963 8.04059 17.03 7.85035 16.8072 7.8203C14.0928 7.45423 12.2688 6.44169 11.2309 4.72491C11.1324 4.56207 10.9419 4.47879 10.7555 4.51742C10.5692 4.55592 10.4273 4.70771 10.4014 4.89629C10.2549 5.96413 9.54396 6.28658 8.72081 6.65992C7.86672 7.04728 6.80382 7.52934 6.80382 9.02573V9.32751C6.80382 11.1528 7.74992 12.761 9.17735 13.6882V14.7854C8.93671 14.8617 8.69795 14.9342 8.46489 15.0049C7.21081 15.3857 5.99258 15.7557 5.09531 16.5588C3.28752 15.6573 3.58836 13.9088 3.94464 12.9192ZM12 13.6253C9.63021 13.6253 7.70221 11.6973 7.70221 9.32742V9.02564C7.70221 8.14912 8.1787 7.89221 9.09187 7.47808C9.76794 7.17144 10.5703 6.80753 11.0066 5.95725C12.1717 7.36578 13.946 8.27023 16.2979 8.65283V9.32747C16.2979 11.6973 14.3699 13.6253 12 13.6253ZM13.9243 14.1541V15.1029C13.9144 15.371 13.9006 15.6328 13.8836 15.8899C13.8517 15.9083 13.8213 15.926 13.7933 15.9417C12.6175 16.6017 11.4415 16.6002 10.1983 15.937C10.173 15.9235 10.1454 15.9088 10.1167 15.8938C10.0996 15.6355 10.0858 15.3723 10.0757 15.1029V14.1542C10.6712 14.3924 11.3205 14.5237 12 14.5237C12.6795 14.5237 13.3289 14.3924 13.9243 14.1541ZM7.30362 23.1015V21.0193C7.30362 20.7712 7.10246 20.5701 6.8544 20.5701C6.60635 20.5701 6.40519 20.7712 6.40519 21.0193V23.1015H4.55068V20.394C4.57615 18.8776 4.95587 17.8558 5.74546 17.1786C6.48393 16.5451 7.52289 16.2297 8.72585 15.8645C8.88334 15.8167 9.04353 15.7679 9.20548 15.7178C9.288 17.1566 9.47397 18.4256 9.77136 19.5814C10.1019 20.8663 10.5696 22.0251 11.1928 23.1015H7.30362V23.1015ZM12.0001 22.703C11.0375 21.0624 10.4618 19.2188 10.2082 16.9386C10.818 17.2023 11.4249 17.3342 12.0262 17.3342C12.6208 17.3342 13.2101 17.2047 13.791 16.9467C13.537 19.2232 12.9616 21.0644 12.0001 22.703ZM19.4494 23.1015H17.5948V21.0193C17.5948 20.7712 17.3937 20.5701 17.1456 20.5701C16.8976 20.5701 16.6964 20.7712 16.6964 21.0193V23.1015H12.8073C13.4305 22.0251 13.8982 20.8663 14.2287 19.5814C14.5261 18.4256 14.7121 17.1566 14.7946 15.7179C14.9566 15.768 15.1168 15.8167 15.2743 15.8645C16.4772 16.2297 17.5161 16.5452 18.2547 17.1786C19.0442 17.8558 19.4239 18.8777 19.4494 20.3941V23.1015H19.4494Z" fill="#686A67" stroke="#686A67" stroke-width="0.5"/>
    </g>
    <defs>
        <clipPath id="clip0_1818_24393">
            <rect width="24" height="24" fill="white"/>
        </clipPath>
    </defs>
</svg>