<svg width="28" height="28" viewBox="0 0 28 28" fill="none" xmlns="http://www.w3.org/2000/svg">
<path d="M23.31 9.2225C23.065 8.365 22.4525 7.7525 21.595 7.5075C20.125 7.14 13.8775 7.14 13.8775 7.14C13.8775 7.14 7.75252 7.14 6.16002 7.5075C5.30252 7.7525 4.69001 8.365 4.44501 9.2225C4.20001 10.815 4.20001 14 4.20001 14C4.20001 14 4.20002 17.185 4.56752 18.7775C4.81252 19.635 5.42501 20.2475 6.28251 20.4925C7.75251 20.86 14 20.86 14 20.86C14 20.86 20.125 20.86 21.7175 20.4925C22.575 20.2475 23.1875 19.635 23.4325 18.7775C23.8 17.185 23.8 14 23.8 14C23.8 14 23.8 10.815 23.31 9.2225ZM12.04 16.94V11.06L17.185 14L12.04 16.94Z" fill="black"/>
</svg>
